<?xml version="1.0" encoding="UTF-8"?>
<svg width="2885px" height="1758px" viewBox="0 0 2885 1758" version="1.1" xmlns="http://www.w3.org/2000/svg" xmlns:xlink="http://www.w3.org/1999/xlink">
    <!-- Generator: Sketch 52.3 (67297) - http://www.bohemiancoding.com/sketch -->
    <title>SailfishOSDesign2</title>
    <desc>Created with Sketch.</desc>
    <g id="Page-1" stroke="none" stroke-width="1" fill="none" fill-rule="evenodd">
        <g id="Group" transform="translate(1025.000000, 0.000000)">
            <path d="M0.5,0.5 L0.5,1757.5 L833.5,1757.5 L833.5,0.5 L0.5,0.5 Z M60,133.5 L773,133.5 C789.844685,133.5 803.5,147.155315 803.5,164 L803.5,1621 C803.5,1637.84468 789.844685,1651.5 773,1651.5 L60,1651.5 C43.1553151,1651.5 29.5,1637.84468 29.5,1621 L29.5,164 C29.5,147.155315 43.1553151,133.5 60,133.5 Z" id="Combined-Shape" stroke="#979797" fill="#D8D8D8"></path>
            <rect id="Rectangle" fill="#A93D39" x="30" y="134" width="773" height="1517" rx="30"></rect>
            <g id="Screen-+-Reachability" transform="translate(61.000000, 504.000000)">
                <g id="Reaching-Area" transform="translate(98.000000, 0.000000)">
                    <path d="M675,6.9049437 C358.473406,-19.004396 160.09808,40.2176622 79.8740204,184.571118 C-12.5175981,350.81862 -21.3410405,717.729091 35.8753598,899.143463 C66.7125248,996.917963 152.876486,1081.6984 217.904624,1105.50131 C282.932763,1129.30421 451.255704,1141.14632 556.487812,1045.73021 C626.642551,982.119466 666.146614,925.793737 675,876.75302 L675,6.9049437 Z" id="Path-9" fill="#FF8400" opacity="0.601329985"></path>
                    <path d="M675,221.400295 C440.917892,241.763222 274.683326,331.339973 176.296302,490.130548 C28.7157659,728.316411 98.2982949,929.166075 186.886327,1030.99342 C275.474358,1132.82076 459.646808,1004.39774 533.520228,900.7409 C582.769175,831.636341 629.929099,738.18891 675,620.398607 L675,221.400295 Z" id="Path-8" fill="#73DB5F" opacity="0.902297247"></path>
                </g>
            </g>
            <text id="Holding-the-phone-mo" font-family="Helvetica-Bold, Helvetica" font-size="48" font-weight="bold" fill="#4A4A4A">
                <tspan x="206.367188" y="47">Holding the phone </tspan>
                <tspan x="202.3125" y="105">more to the middle</tspan>
            </text>
        </g>
        <g id="Group">
            <path d="M0.5,0.5 L0.5,1757.5 L833.5,1757.5 L833.5,0.5 L0.5,0.5 Z M60,133.5 L773,133.5 C789.844685,133.5 803.5,147.155315 803.5,164 L803.5,1621 C803.5,1637.84468 789.844685,1651.5 773,1651.5 L60,1651.5 C43.1553151,1651.5 29.5,1637.84468 29.5,1621 L29.5,164 C29.5,147.155315 43.1553151,133.5 60,133.5 Z" id="Combined-Shape" stroke="#979797" fill="#D8D8D8"></path>
            <rect id="Rectangle" fill="#A93D39" x="30" y="134" width="773" height="1517" rx="30"></rect>
            <g id="Screen-+-Reachability" transform="translate(61.000000, 483.000000)" stroke="#979797">
                <g id="Reaching-Area" transform="translate(0.000000, 38.000000)">
                    <path d="M772.742762,0.3956203 C327.367157,161.470794 82.7706578,281.221681 38.9532631,359.648281 C-26.7728289,477.288182 5.24252581,944.494679 38.9532631,1000.25137 C72.6640004,1056.00807 107.527075,1184.89528 300.759172,1208.53955 C493.991269,1232.18381 643.90927,1193.96593 703.537254,1147.84532 C743.289243,1117.09825 766.357746,1095.42746 772.742762,1082.83293 L772.742762,0.3956203 Z" id="Path-11" fill="#FF8400" opacity="0.60046968"></path>
                    <path d="M772.145557,194.033858 C395.74221,291.483175 185.539888,425.872113 141.538591,597.200672 C75.5366448,854.193511 88.5672317,1023.02313 167.735501,1100.99337 C246.90377,1178.96361 495.61417,1143.10551 592.978352,1088.98548 C657.887807,1052.90546 717.610209,991.940603 772.145557,906.090901 L772.145557,194.033858 Z" id="Path-10" fill="#73DB5F" opacity="0.899181548"></path>
                </g>
            </g>
            <text id="Pinky-on-the-bottom" font-family="Helvetica-Bold, Helvetica" font-size="48" font-weight="bold" fill="#4A4A4A">
                <tspan x="274.3125" y="47">Pinky on the </tspan>
                <tspan x="301.03125" y="105">bottom lip</tspan>
            </text>
        </g>
        <g id="Group" transform="translate(2050.000000, 0.000000)">
            <path d="M0.5,0.5 L0.5,1757.5 L833.5,1757.5 L833.5,0.5 L0.5,0.5 Z M60,133.5 L773,133.5 C789.844685,133.5 803.5,147.155315 803.5,164 L803.5,1621 C803.5,1637.84468 789.844685,1651.5 773,1651.5 L60,1651.5 C43.1553151,1651.5 29.5,1637.84468 29.5,1621 L29.5,164 C29.5,147.155315 43.1553151,133.5 60,133.5 Z" id="Combined-Shape" stroke="#979797" fill="#D8D8D8"></path>
            <rect id="Rectangle" fill="#A93D39" x="30" y="134" width="773" height="1517" rx="30"></rect>
            <g id="Screen-+-Reachability" transform="translate(61.000000, 483.000000)" stroke="#979797">
                <g id="Reaching-Area" fill="#FF8400" opacity="0.60046968">
                    <path d="M772.742762,1120.83293 C766.357746,1133.42746 743.289243,1155.09825 703.537254,1185.84532 C643.90927,1231.96593 493.991269,1270.18381 300.759172,1246.53955 C107.527075,1222.89528 72.6640004,1094.00807 38.9532631,1038.25137 C5.24252581,982.494679 -26.7728289,515.288182 38.9532631,397.648281 C45.998715,385.037973 67.6243361,364.832089 103.830126,337.030627 L103.830127,337.030627 C120.180624,324.475516 132.251373,307.174033 138.390093,287.494457 C153.500098,239.054633 166.661408,204.746853 177.87402,184.571118 C258.09808,40.2176622 456.473406,-19.004396 773,6.9049437 L773,876.75302 C772.916951,877.213045 772.831205,877.673712 772.742762,878.135019 L772.742762,1120.83293 Z" id="Path"></path>
                </g>
                <g id="Reaching-Area" transform="translate(99.000000, 221.000000)" fill="#73DB5F" opacity="0.899181548">
                    <path d="M673.145557,401.62808 L673.145557,723.090901 C618.610209,808.940603 558.887807,869.905463 493.978352,905.985482 C396.61417,960.10551 147.90377,995.963608 68.7355009,917.993367 C-10.4327683,840.023127 -23.4633552,671.193511 42.5385905,414.200672 C65.6888107,324.060287 134.844874,244.1451 250.00678,174.455111 C350.038379,74.3056956 491.369453,16.2874236 674,0.400294987 L674,399.398607 C673.715269,400.142737 673.430454,400.885894 673.145557,401.62808 Z" id="Combined-Shape"></path>
                </g>
            </g>
            <text id="Combined" font-family="Helvetica-Bold, Helvetica" font-size="48" font-weight="bold" fill="#4A4A4A">
                <tspan x="299.671875" y="47">Combined</tspan>
            </text>
        </g>
    </g>
</svg>