<?xml version="1.0" encoding="UTF-8" standalone="no"?>
<!DOCTYPE svg PUBLIC "-//W3C//DTD SVG 1.1//EN" "http://www.w3.org/Graphics/SVG/1.1/DTD/svg11.dtd">
<svg width="100%" height="100%" viewBox="0 0 663 1357" version="1.1" xmlns="http://www.w3.org/2000/svg" xmlns:xlink="http://www.w3.org/1999/xlink" xml:space="preserve" xmlns:serif="http://www.serif.com/" style="fill-rule:evenodd;clip-rule:evenodd;stroke-linecap:round;stroke-miterlimit:10;">
    <g transform="matrix(1,0,0,1,-2686.34,-380)">
        <g transform="matrix(0.781232,0,0,0.781232,2686.34,380)">
            <path d="M27,0L821,0C835.912,0 848,12.088 848,27L848,1710C848,1724.91 835.912,1737 821,1737L27,1737C12.088,1737 0,1724.91 0,1710L0,27C0,12.088 12.088,0 27,0Z" style="fill:rgb(177,177,177);"/>
        </g>
        <g transform="matrix(0.781232,0,0,0.781232,2686.34,405.781)">
            <path d="M77,97L782,97C795.807,97 807,108.193 807,122L807,1582C807,1595.81 795.807,1607 782,1607L77,1607C63.193,1607 52,1595.81 52,1582L52,122C52,108.193 63.193,97 77,97Z" style="fill:rgb(17,56,63);"/>
        </g>
        <g transform="matrix(0.781232,0,0,0.781232,2686.34,-677.788)">
            <rect x="244" y="1415" width="371" height="261" style="fill:white;fill-opacity:0.647059;"/>
        </g>
        <g transform="matrix(0.781232,0,0,0.781232,2686.34,-677.788)">
            <path d="M615,1415L782,1415C795.807,1415 807,1426.19 807,1440L807,1676L615,1676L615,1415Z" style="fill:rgb(198,37,57);fill-opacity:0.8;"/>
        </g>
        <g transform="matrix(0.781232,0,0,0.781232,2686.34,-677.788)">
            <path d="M77,1415L244,1415L244,1676L52,1676L52,1440C52,1426.19 63.193,1415 77,1415Z" style="fill:rgb(198,37,57);fill-opacity:0.8;"/>
        </g>
        <g transform="matrix(0.781232,0,0,0.781232,2686.34,380)">
            <rect x="195.753" y="510.041" width="22.412" height="107.959" style="fill:rgb(192,192,192);fill-rule:nonzero;"/>
            <path d="M281.74,536.262C289.992,536.262 296.742,538.422 301.991,542.744C307.24,547.065 309.865,554.23 309.865,564.24L309.865,618L288.478,618L288.478,569.44C288.478,565.241 287.917,562.019 286.793,559.772C284.743,555.671 280.836,553.62 275.075,553.62C267.995,553.62 263.136,556.623 260.5,562.629C259.132,565.803 258.449,569.855 258.449,574.787L258.449,618L237.648,618L237.648,538.313L257.79,538.313L257.79,549.958C260.475,545.856 263.014,542.902 265.407,541.096C269.704,537.873 275.148,536.262 281.74,536.262Z" style="fill:rgb(192,192,192);fill-rule:nonzero;"/>
            <rect x="322.829" y="566.291" width="42.041" height="19.775" style="fill:rgb(192,192,192);fill-rule:nonzero;"/>
            <path d="M410.28,577.204L437.672,577.204L424.196,534.724L410.28,577.204ZM411.671,510.041L437.16,510.041L475.392,618L450.929,618L443.971,595.808L404.201,595.808L396.73,618L373.146,618L411.671,510.041Z" style="fill:rgb(192,192,192);fill-rule:nonzero;"/>
            <path d="M542.409,578.083C542.409,571.931 541.005,566.486 538.197,561.75C535.39,557.014 530.836,554.646 524.538,554.646C516.969,554.646 511.769,558.234 508.937,565.412C507.472,569.221 506.74,574.055 506.74,579.914C506.74,589.191 509.206,595.71 514.137,599.47C517.067,601.667 520.534,602.766 524.538,602.766C530.348,602.766 534.779,600.52 537.831,596.027C540.883,591.535 542.409,585.554 542.409,578.083ZM530.543,536.408C539.87,536.408 547.768,539.851 554.237,546.735C560.707,553.62 563.942,563.728 563.942,577.058C563.942,591.12 560.78,601.838 554.457,609.211C548.134,616.584 539.992,620.271 530.031,620.271C523.683,620.271 518.41,618.684 514.21,615.51C511.916,613.752 509.669,611.188 507.472,607.819L507.472,649.421L486.818,649.421L486.818,538.166L506.813,538.166L506.813,549.958C509.059,546.491 511.452,543.757 513.991,541.755C518.629,538.19 524.147,536.408 530.543,536.408Z" style="fill:rgb(192,192,192);fill-rule:nonzero;"/>
            <path d="M634.035,578.083C634.035,571.931 632.631,566.486 629.823,561.75C627.016,557.014 622.462,554.646 616.164,554.646C608.595,554.646 603.395,558.234 600.563,565.412C599.098,569.221 598.366,574.055 598.366,579.914C598.366,589.191 600.832,595.71 605.763,599.47C608.693,601.667 612.16,602.766 616.164,602.766C621.974,602.766 626.405,600.52 629.457,596.027C632.509,591.535 634.035,585.554 634.035,578.083ZM622.169,536.408C631.496,536.408 639.394,539.851 645.863,546.735C652.333,553.62 655.568,563.728 655.568,577.058C655.568,591.12 652.406,601.838 646.083,609.211C639.76,616.584 631.618,620.271 621.657,620.271C615.309,620.271 610.036,618.684 605.836,615.51C603.542,613.752 601.295,611.188 599.098,607.819L599.098,649.421L578.444,649.421L578.444,538.166L598.439,538.166L598.439,549.958C600.685,546.491 603.078,543.757 605.617,541.755C610.255,538.19 615.773,536.408 622.169,536.408Z" style="fill:rgb(192,192,192);fill-rule:nonzero;"/>
        </g>
        <g transform="matrix(0.781232,0,0,0.781232,2686.34,380)">
            <path d="M274.049,781.887C276.637,781.887 279.127,781.569 281.52,780.935C282.838,780.593 284.523,779.982 286.574,779.104L275.661,768.703L287.306,756.545L298.219,766.945C299.928,763.43 301.125,760.354 301.808,757.717C302.882,753.762 303.419,749.147 303.419,743.874C303.419,731.765 300.941,722.402 295.985,715.786C291.029,709.169 283.791,705.861 274.269,705.861C265.334,705.861 258.205,709.035 252.882,715.383C247.56,721.73 244.899,731.228 244.899,743.874C244.899,758.669 248.708,769.265 256.325,775.661C261.256,779.812 267.165,781.887 274.049,781.887ZM325.978,742.263C325.978,751.882 324.806,759.938 322.462,766.433C320.558,772.634 317.75,777.785 314.04,781.887L326.491,793.532L314.699,805.837L301.662,793.532C297.707,795.925 294.289,797.609 291.408,798.586C286.574,800.197 280.788,801.003 274.049,801.003C259.987,801.003 248.366,796.804 239.186,788.405C228.053,778.298 222.487,763.454 222.487,743.874C222.487,724.147 228.2,709.23 239.625,699.123C248.952,690.871 260.548,686.745 274.416,686.745C288.38,686.745 300.099,691.115 309.572,699.855C320.509,709.963 325.978,724.099 325.978,742.263Z" style="fill:rgb(192,192,192);fill-rule:nonzero;"/>
            <path d="M362.306,718.166L362.306,766.286C362.306,770.827 362.843,774.245 363.917,776.54C365.822,780.593 369.557,782.619 375.124,782.619C382.252,782.619 387.135,779.738 389.772,773.977C391.139,770.852 391.823,766.726 391.823,761.599L391.823,718.166L412.99,718.166L412.99,798L392.702,798L392.702,786.721C392.506,786.965 392.018,787.697 391.237,788.918C390.456,790.139 389.528,791.213 388.454,792.141C385.182,795.07 382.021,797.072 378.969,798.146C375.917,799.221 372.34,799.758 368.239,799.758C356.422,799.758 348.463,795.51 344.362,787.014C342.067,782.326 340.919,775.417 340.919,766.286L340.919,718.166L362.306,718.166Z" style="fill:rgb(192,192,192);fill-rule:nonzero;"/>
            <path d="M454.591,708.645L433.424,708.645L433.424,689.382L454.591,689.382L454.591,708.645ZM433.424,718.166L454.591,718.166L454.591,798L433.424,798L433.424,718.166Z" style="fill:rgb(192,192,192);fill-rule:nonzero;"/>
            <path d="M522.487,746.804C522.096,743.825 521.095,741.14 519.484,738.747C517.14,735.524 513.502,733.913 508.571,733.913C501.54,733.913 496.73,737.404 494.142,744.387C492.775,748.098 492.091,753.029 492.091,759.182C492.091,765.041 492.775,769.753 494.142,773.317C496.632,779.958 501.32,783.278 508.205,783.278C513.087,783.278 516.554,781.96 518.605,779.323C520.656,776.687 521.901,773.269 522.34,769.069L543.654,769.069C543.166,775.417 540.871,781.423 536.769,787.087C530.226,796.218 520.534,800.783 507.692,800.783C494.85,800.783 485.402,796.975 479.347,789.357C473.292,781.74 470.265,771.853 470.265,759.694C470.265,745.974 473.61,735.305 480.299,727.688C486.989,720.07 496.217,716.262 507.985,716.262C517.995,716.262 526.186,718.508 532.558,723C538.93,727.492 542.702,735.427 543.874,746.804L522.487,746.804Z" style="fill:rgb(192,192,192);fill-rule:nonzero;"/>
            <path d="M558.009,690.407L578.517,690.407L578.517,748.562L604.518,718.532L630.373,718.532L602.467,749.074L631.471,798L606.276,798L587.16,763.869L578.517,772.878L578.517,798L558.009,798L558.009,690.407Z" style="fill:rgb(192,192,192);fill-rule:nonzero;"/>
        </g>
        <g transform="matrix(0.781232,0,0,0.781232,2686.34,380)">
            <path d="M226.002,924.899C226.002,906.052 231.056,891.525 241.164,881.32C249.953,872.434 261.134,867.99 274.708,867.99C292.873,867.99 306.154,873.947 314.552,885.861C319.191,892.551 321.681,899.265 322.023,906.003L299.464,906.003C298,900.827 296.12,896.921 293.825,894.284C289.723,889.597 283.644,887.253 275.587,887.253C267.384,887.253 260.915,890.561 256.178,897.177C251.442,903.793 249.074,913.156 249.074,925.266C249.074,937.375 251.576,946.445 256.581,952.475C261.586,958.505 267.946,961.521 275.661,961.521C283.571,961.521 289.601,958.933 293.751,953.757C296.046,950.974 297.951,946.799 299.464,941.232L321.803,941.232C319.85,953 314.857,962.57 306.825,969.943C298.793,977.316 288.502,981.003 275.954,981.003C260.426,981.003 248.219,976.022 239.333,966.062C230.446,956.052 226.002,942.331 226.002,924.899Z" style="fill:rgb(192,192,192);fill-rule:nonzero;"/>
            <rect x="337.77" y="870.041" width="20.874" height="107.959" style="fill:rgb(192,192,192);fill-rule:nonzero;"/>
            <path d="M414.821,963.278C420.924,963.278 425.612,961.105 428.883,956.76C432.155,952.414 433.791,946.237 433.791,938.229C433.791,930.222 432.155,924.057 428.883,919.736C425.612,915.415 420.924,913.254 414.821,913.254C408.717,913.254 404.018,915.415 400.722,919.736C397.426,924.057 395.778,930.222 395.778,938.229C395.778,946.237 397.426,952.414 400.722,956.76C404.018,961.105 408.717,963.278 414.821,963.278ZM455.69,938.229C455.69,949.948 452.321,959.97 445.583,968.295C438.844,976.621 428.615,980.783 414.894,980.783C401.173,980.783 390.944,976.621 384.206,968.295C377.467,959.97 374.098,949.948 374.098,938.229C374.098,926.706 377.467,916.721 384.206,908.273C390.944,899.826 401.173,895.603 414.894,895.603C428.615,895.603 438.844,899.826 445.583,908.273C452.321,916.721 455.69,926.706 455.69,938.229Z" style="fill:rgb(192,192,192);fill-rule:nonzero;"/>
            <path d="M486.991,952.512C487.431,956.223 488.383,958.859 489.848,960.422C492.435,963.205 497.221,964.597 504.203,964.597C508.305,964.597 511.564,963.986 513.981,962.766C516.398,961.545 517.606,959.714 517.606,957.272C517.606,954.929 516.63,953.146 514.677,951.926C512.724,950.705 505.473,948.605 492.924,945.627C483.891,943.381 477.518,940.573 473.808,937.204C470.097,933.884 468.241,929.099 468.241,922.849C468.241,915.476 471.134,909.14 476.92,903.842C482.706,898.544 490.849,895.896 501.347,895.896C511.308,895.896 519.425,897.885 525.7,901.865C531.974,905.844 535.575,912.717 536.503,922.482L515.629,922.482C515.336,919.797 514.579,917.673 513.358,916.11C511.063,913.278 507.157,911.862 501.64,911.862C497.099,911.862 493.864,912.57 491.935,913.986C490.006,915.402 489.042,917.063 489.042,918.967C489.042,921.359 490.067,923.093 492.118,924.167C494.169,925.29 501.42,927.219 513.871,929.953C522.172,931.906 528.397,934.86 532.548,938.815C536.649,942.819 538.7,947.824 538.7,953.83C538.7,961.74 535.758,968.198 529.874,973.203C523.991,978.208 514.896,980.71 502.592,980.71C490.043,980.71 480.778,978.061 474.796,972.763C468.815,967.465 465.824,960.715 465.824,952.512L486.991,952.512Z" style="fill:rgb(192,192,192);fill-rule:nonzero;"/>
            <path d="M585.648,913.254C580.814,913.254 577.067,914.768 574.406,917.795C571.745,920.822 570.072,924.924 569.389,930.1L601.835,930.1C601.493,924.582 599.821,920.395 596.818,917.539C593.815,914.682 590.092,913.254 585.648,913.254ZM585.648,896.042C592.289,896.042 598.27,897.287 603.593,899.777C608.915,902.268 613.309,906.198 616.776,911.569C619.901,916.306 621.928,921.799 622.855,928.049C623.392,931.711 623.612,936.984 623.515,943.869L568.876,943.869C569.169,951.877 571.683,957.492 576.42,960.715C579.301,962.717 582.767,963.718 586.82,963.718C591.117,963.718 594.608,962.497 597.294,960.056C598.759,958.737 600.053,956.906 601.176,954.563L622.489,954.563C621.952,959.299 619.486,964.108 615.092,968.991C608.256,976.755 598.685,980.637 586.381,980.637C576.225,980.637 567.265,977.365 559.501,970.822C551.737,964.279 547.855,953.635 547.855,938.889C547.855,925.07 551.359,914.475 558.366,907.102C565.372,899.729 574.467,896.042 585.648,896.042Z" style="fill:rgb(192,192,192);fill-rule:nonzero;"/>
        </g>
        <g transform="matrix(0.781232,0,0,0.781232,2686.34,380)">
            <path d="M308.277,188.619L308.277,197.54L293.204,197.54L293.204,239L282.608,239L282.608,197.54L267.467,197.54L267.467,188.619L308.277,188.619Z" style="fill:rgb(52,52,52);fill-rule:nonzero;"/>
            <path d="M325.207,232.13C328.056,232.13 330.243,231.116 331.77,229.088C333.297,227.06 334.06,224.177 334.06,220.44C334.06,216.703 333.297,213.827 331.77,211.81C330.243,209.793 328.056,208.785 325.207,208.785C322.359,208.785 320.166,209.793 318.628,211.81C317.09,213.827 316.321,216.703 316.321,220.44C316.321,224.177 317.09,227.06 318.628,229.088C320.166,231.116 322.359,232.13 325.207,232.13ZM344.28,220.44C344.28,225.909 342.707,230.586 339.563,234.471C336.418,238.356 331.645,240.299 325.242,240.299C318.839,240.299 314.065,238.356 310.92,234.471C307.776,230.586 306.204,225.909 306.204,220.44C306.204,215.063 307.776,210.403 310.92,206.461C314.065,202.519 318.839,200.548 325.242,200.548C331.645,200.548 336.418,202.519 339.563,206.461C342.707,210.403 344.28,215.063 344.28,220.44Z" style="fill:rgb(52,52,52);fill-rule:nonzero;"/>
            <path d="M376.921,220.372C376.921,217.501 376.266,214.96 374.956,212.75C373.646,210.54 371.521,209.435 368.581,209.435C365.05,209.435 362.623,211.109 361.301,214.459C360.618,216.236 360.276,218.492 360.276,221.227C360.276,225.556 361.427,228.598 363.728,230.353C365.095,231.378 366.713,231.891 368.581,231.891C371.293,231.891 373.361,230.842 374.785,228.746C376.209,226.65 376.921,223.858 376.921,220.372ZM371.384,200.924C375.736,200.924 379.422,202.53 382.441,205.743C385.461,208.956 386.97,213.673 386.97,219.894C386.97,226.456 385.495,231.458 382.544,234.898C379.593,238.339 375.793,240.06 371.145,240.06C368.183,240.06 365.722,239.319 363.762,237.838C362.691,237.018 361.643,235.821 360.618,234.249L360.618,253.663L350.979,253.663L350.979,201.744L360.31,201.744L360.31,207.247C361.358,205.629 362.475,204.353 363.66,203.419C365.824,201.756 368.399,200.924 371.384,200.924Z" style="fill:rgb(52,52,52);fill-rule:nonzero;"/>
            <path d="M447.639,188.619L462.781,188.619L462.781,239L452.971,239L452.971,204.923C452.971,203.943 452.982,202.57 453.005,200.804C453.028,199.038 453.039,197.677 453.039,196.72L443.503,239L433.284,239L423.816,196.72C423.816,197.677 423.827,199.038 423.85,200.804C423.873,202.57 423.884,203.943 423.884,204.923L423.884,239L414.075,239L414.075,188.619L429.387,188.619L438.547,228.233L447.639,188.619Z" style="fill:rgb(52,52,52);fill-rule:nonzero;"/>
            <path d="M486.467,208.785C484.211,208.785 482.462,209.492 481.221,210.904C479.979,212.317 479.198,214.231 478.879,216.646L494.021,216.646C493.861,214.072 493.081,212.118 491.68,210.785C490.278,209.452 488.541,208.785 486.467,208.785ZM486.467,200.753C489.566,200.753 492.357,201.334 494.841,202.496C497.325,203.658 499.376,205.493 500.994,207.999C502.452,210.209 503.398,212.773 503.83,215.689C504.081,217.398 504.184,219.859 504.138,223.072L478.64,223.072C478.777,226.809 479.95,229.43 482.161,230.934C483.505,231.868 485.123,232.335 487.014,232.335C489.019,232.335 490.649,231.765 491.902,230.626C492.585,230.011 493.189,229.156 493.713,228.063L503.66,228.063C503.409,230.273 502.258,232.517 500.207,234.796C497.017,238.419 492.551,240.23 486.809,240.23C482.069,240.23 477.888,238.704 474.265,235.65C470.642,232.597 468.83,227.63 468.83,220.748C468.83,214.299 470.465,209.355 473.735,205.914C477.005,202.473 481.249,200.753 486.467,200.753Z" style="fill:rgb(52,52,52);fill-rule:nonzero;"/>
            <path d="M531.345,200.855C535.196,200.855 538.346,201.864 540.796,203.88C543.245,205.897 544.47,209.241 544.47,213.912L544.47,239L534.49,239L534.49,216.339C534.49,214.379 534.228,212.875 533.704,211.827C532.746,209.913 530.924,208.956 528.235,208.956C524.931,208.956 522.663,210.357 521.433,213.16C520.795,214.641 520.476,216.533 520.476,218.834L520.476,239L510.769,239L510.769,201.813L520.168,201.813L520.168,207.247C521.422,205.333 522.607,203.954 523.723,203.111C525.728,201.607 528.269,200.855 531.345,200.855Z" style="fill:rgb(52,52,52);fill-rule:nonzero;"/>
            <path d="M563.166,201.744L563.166,224.2C563.166,226.319 563.417,227.914 563.918,228.985C564.807,230.877 566.55,231.822 569.148,231.822C572.475,231.822 574.753,230.478 575.984,227.789C576.622,226.331 576.941,224.405 576.941,222.013L576.941,201.744L586.819,201.744L586.819,239L577.351,239L577.351,233.736C577.26,233.85 577.032,234.192 576.667,234.762C576.303,235.331 575.87,235.833 575.369,236.266C573.842,237.633 572.366,238.567 570.942,239.068C569.518,239.57 567.849,239.82 565.935,239.82C560.421,239.82 556.706,237.838 554.792,233.873C553.721,231.686 553.186,228.461 553.186,224.2L553.186,201.744L563.166,201.744Z" style="fill:rgb(52,52,52);fill-rule:nonzero;"/>
        </g>
        <g transform="matrix(0.552414,0.552414,0.552414,-0.552414,2769.49,530.008)">
            <path d="M0,0.5L116.38,0.5" style="fill:none;stroke:white;stroke-width:10.24px;"/>
        </g>
        <g transform="matrix(-0.552414,0.552414,-0.552414,-0.552414,2834.89,593.535)">
            <path d="M-57,58.5L59.38,58.5" style="fill:none;stroke:white;stroke-width:10.24px;"/>
        </g>
        <g transform="matrix(0.552414,0.552414,0.552414,-0.552414,3209.33,530.008)">
            <path d="M0,0.5L116.38,0.5" style="fill:none;stroke:white;stroke-width:10.24px;"/>
        </g>
        <g transform="matrix(-0.552414,0.552414,-0.552414,-0.552414,3274.72,593.535)">
            <path d="M-57,58.5L59.38,58.5" style="fill:none;stroke:white;stroke-width:10.24px;"/>
        </g>
    </g>
</svg>
