<?xml version="1.0" encoding="UTF-8" standalone="no"?>
<!DOCTYPE svg PUBLIC "-//W3C//DTD SVG 1.1//EN" "http://www.w3.org/Graphics/SVG/1.1/DTD/svg11.dtd">
<svg width="100%" height="100%" viewBox="0 0 3451 5663" version="1.1" xmlns="http://www.w3.org/2000/svg" xmlns:xlink="http://www.w3.org/1999/xlink" xml:space="preserve" xmlns:serif="http://www.serif.com/" style="fill-rule:evenodd;clip-rule:evenodd;stroke-linejoin:round;stroke-miterlimit:1.41421;">
    <path d="M44,0L3407,0C3431.3,0 3451,19.699 3451,44L3451,5619C3451,5643.3 3431.3,5663 3407,5663L44,5663C19.699,5663 0,5643.3 0,5619L0,44C0,19.699 19.699,0 44,0Z" style="fill:rgb(177,177,177);"/>
    <g transform="matrix(1,0,0,1,0,-1917.3)">
        <path d="M1718.25,3886.16L1716,3590.37L1736,3590.22L1738.25,3886L1774.05,3885.73C1777.47,3885.7 1780.27,3888.46 1780.3,3891.89C1780.31,3892.85 1780.09,3893.8 1779.66,3894.67L1734.57,3986.6C1733.06,3989.68 1729.34,3990.95 1726.27,3989.44C1725.06,3988.85 1724.08,3987.88 1723.47,3986.69L1676.98,3895.45C1675.42,3892.39 1676.64,3888.66 1679.69,3887.1C1680.55,3886.67 1681.5,3886.43 1682.46,3886.43L1718.25,3886.16Z" style="fill:rgb(74,74,74);fill-rule:nonzero;"/>
    </g>
    <g transform="matrix(1,0,0,1,0,-1917.22)">
        <path d="M2897,3886L2897,3590.22L2917,3590.22L2917,3886L2952.8,3886C2956.22,3886 2959,3888.78 2959,3892.2C2959,3893.17 2958.78,3894.12 2958.35,3894.98L2912.55,3986.57C2911.02,3989.63 2907.29,3990.88 2904.23,3989.34C2903.03,3988.74 2902.05,3987.77 2901.45,3986.57L2855.66,3894.98C2854.12,3891.91 2855.37,3888.19 2858.43,3886.66C2859.29,3886.22 2860.24,3886 2861.2,3886L2897,3886Z" style="fill:rgb(74,74,74);fill-rule:nonzero;"/>
    </g>
    <g transform="matrix(1,0,0,1,0,-1917.83)">
        <path d="M539,3886.3L539,3590.53L559,3590.53L559,3886.3L594.796,3886.3C598.223,3886.3 601,3889.08 601,3892.51C601,3893.47 600.776,3894.42 600.345,3895.28L554.55,3986.87C553.017,3989.94 549.291,3991.18 546.226,3989.65C545.026,3989.05 544.052,3988.07 543.452,3986.87L497.656,3895.28C496.124,3892.22 497.366,3888.49 500.431,3886.96C501.292,3886.53 502.242,3886.3 503.205,3886.3L539,3886.3Z" style="fill:rgb(74,74,74);fill-rule:nonzero;"/>
    </g>
    <g transform="matrix(-1,-0,0,1,3459,1904.48)">
        <path d="M1719.5,1783.37L1719.5,2079.15L1739.5,2079.15L1739.5,1783.37L1775.3,1783.37C1778.72,1783.37 1781.5,1780.6 1781.5,1777.17C1781.5,1776.21 1781.28,1775.26 1780.85,1774.39L1735.05,1682.8C1733.52,1679.74 1729.79,1678.5 1726.73,1680.03C1725.53,1680.63 1724.55,1681.6 1723.95,1682.8L1678.16,1774.39C1676.62,1777.46 1677.87,1781.19 1680.93,1782.72C1681.79,1783.15 1682.74,1783.37 1683.7,1783.37L1719.5,1783.37Z" style="fill:rgb(74,74,74);fill-rule:nonzero;"/>
    </g>
    <g transform="matrix(-1,-0,0,1,1093,1904.48)">
        <path d="M536.5,1783.37L536.5,2079.15L556.5,2079.15L556.5,1783.37L592.296,1783.37C595.723,1783.37 598.5,1780.6 598.5,1777.17C598.5,1776.21 598.276,1775.26 597.845,1774.39L552.05,1682.8C550.517,1679.74 546.791,1678.5 543.726,1680.03C542.526,1680.63 541.552,1681.6 540.952,1682.8L495.156,1774.39C493.624,1777.46 494.866,1781.19 497.931,1782.72C498.792,1783.15 499.742,1783.37 500.705,1783.37L536.5,1783.37Z" style="fill:rgb(74,74,74);fill-rule:nonzero;"/>
    </g>
    <g transform="matrix(-1,-0,0,1,5811,1904.48)">
        <path d="M2895.5,1783.37L2895.5,2079.15L2915.5,2079.15L2915.5,1783.37L2951.3,1783.37C2954.72,1783.37 2957.5,1780.6 2957.5,1777.17C2957.5,1776.21 2957.28,1775.26 2956.85,1774.39L2911.05,1682.8C2909.52,1679.74 2905.79,1678.5 2902.73,1680.03C2901.53,1680.63 2900.55,1681.6 2899.95,1682.8L2854.16,1774.39C2852.62,1777.46 2853.87,1781.19 2856.93,1782.72C2857.79,1783.15 2858.74,1783.37 2859.7,1783.37L2895.5,1783.37Z" style="fill:rgb(74,74,74);fill-rule:nonzero;"/>
    </g>
    <g transform="matrix(1,0,0,1,0,56)">
        <path d="M1237.56,2814L923.5,2814L923.5,2793L1237.56,2793L1237.56,2755.5C1237.56,2751.91 1240.47,2749 1244.06,2749C1245.07,2749 1246.06,2749.24 1246.96,2749.69L1342.96,2797.68C1346.17,2799.29 1347.47,2803.2 1345.87,2806.41C1345.24,2807.66 1344.22,2808.69 1342.96,2809.32L1246.96,2857.31C1243.75,2858.92 1239.85,2857.62 1238.24,2854.4C1237.79,2853.5 1237.56,2852.51 1237.56,2851.5L1237.56,2814Z" style="fill:rgb(74,74,74);fill-rule:nonzero;"/>
    </g>
    <g transform="matrix(-1,-0,0,1,4632.22,56)">
        <path d="M2423,2793.5L2105.22,2793.5L2105.22,2813.5L2423,2813.5L2423,2849.3C2423,2852.72 2425.78,2855.5 2429.2,2855.5C2430.17,2855.5 2431.12,2855.28 2431.98,2854.85L2523.57,2809.05C2526.63,2807.52 2527.88,2803.79 2526.34,2800.73C2525.74,2799.53 2524.77,2798.55 2523.57,2797.95L2431.98,2752.16C2428.91,2750.62 2425.19,2751.87 2423.66,2754.93C2423.22,2755.79 2423,2756.74 2423,2757.7L2423,2793.5Z" style="fill:rgb(74,74,74);fill-rule:nonzero;"/>
    </g>
    <g transform="matrix(1,0,0,1,0,-12)">
        <path d="M1373,2085L2079,2085C2092.81,2085 2104,2096.19 2104,2110L2104,3565C2104,3578.81 2092.81,3590 2079,3590L1373,3590C1359.19,3590 1348,3578.81 1348,3565L1348,2110C1348,2096.19 1359.19,2085 1373,2085Z" style="fill:rgb(17,56,63);"/>
    </g>
    <g transform="matrix(1,0,0,1,0,3810)">
        <path d="M1372,174L2078,174C2091.81,174 2103,185.193 2103,199L2103,1654C2103,1667.81 2091.81,1679 2078,1679L1372,1679C1358.19,1679 1347,1667.81 1347,1654L1347,199C1347,185.193 1358.19,174 1372,174Z" style="fill:rgb(17,56,63);"/>
    </g>
    <g transform="matrix(1,0,0,1,0,3810)">
        <path d="M2549,174L3255,174C3268.81,174 3280,185.193 3280,199L3280,1654C3280,1667.81 3268.81,1679 3255,1679L2549,1679C2535.19,1679 2524,1667.81 2524,1654L2524,199C2524,185.193 2535.19,174 2549,174Z" style="fill:rgb(17,56,63);"/>
    </g>
    <g transform="matrix(1,0,0,1,0,3810)">
        <path d="M194,174L900,174C913.807,174 925,185.193 925,199L925,1654C925,1667.81 913.807,1679 900,1679L194,1679C180.193,1679 169,1667.81 169,1654L169,199C169,185.193 180.193,174 194,174Z" style="fill:rgb(17,56,63);"/>
    </g>
    <g transform="matrix(1,0,0,1,0,-7)">
        <path d="M2550,2080L3255,2080C3268.81,2080 3280,2091.19 3280,2105L3280,3565C3280,3578.81 3268.81,3590 3255,3590L2550,3590C2536.19,3590 2525,3578.81 2525,3565L2525,2105C2525,2091.19 2536.19,2080 2550,2080Z" style="fill:rgb(17,56,63);"/>
    </g>
    <g transform="matrix(1,0,0,1,0,-7)">
        <path d="M196,2080L901,2080C914.807,2080 926,2091.19 926,2105L926,3565C926,3578.81 914.807,3590 901,3590L196,3590C182.193,3590 171,3578.81 171,3565L171,2105C171,2091.19 182.193,2080 196,2080Z" style="fill:rgb(17,56,63);"/>
    </g>
    <g transform="matrix(1,0,0,1,0,-3832)">
        <path d="M1373,3995L2079,3995C2092.81,3995 2104,4006.19 2104,4020L2104,5475C2104,5488.81 2092.81,5500 2079,5500L1373,5500C1359.19,5500 1348,5488.81 1348,5475L1348,4020C1348,4006.19 1359.19,3995 1373,3995Z" style="fill:rgb(28,28,28);"/>
    </g>
    <g transform="matrix(1,0,0,1,0,-3832)">
        <path d="M2550,3995L3256,3995C3269.81,3995 3281,4006.19 3281,4020L3281,5475C3281,5488.81 3269.81,5500 3256,5500L2550,5500C2536.19,5500 2525,5488.81 2525,5475L2525,4020C2525,4006.19 2536.19,3995 2550,3995Z" style="fill:rgb(28,28,28);"/>
    </g>
    <g transform="matrix(1,0,0,1,0,-3832)">
        <path d="M196,3995L902,3995C915.807,3995 927,4006.19 927,4020L927,5475C927,5488.81 915.807,5500 902,5500L196,5500C182.193,5500 171,5488.81 171,5475L171,4020C171,4006.19 182.193,3995 196,3995Z" style="fill:rgb(28,28,28);"/>
    </g>
    <g>
        <path d="M1581.94,4551.2L1609.34,4551.2L1595.86,4508.72L1581.94,4551.2ZM1583.33,4484.04L1608.82,4484.04L1647.06,4592L1622.59,4592L1615.63,4569.81L1575.86,4569.81L1568.39,4592L1544.81,4592L1583.33,4484.04Z" style="fill:rgb(192,192,192);fill-rule:nonzero;"/>
        <path d="M1714.07,4552.08C1714.07,4545.93 1712.67,4540.49 1709.86,4535.75C1707.05,4531.01 1702.5,4528.65 1696.2,4528.65C1688.63,4528.65 1683.43,4532.23 1680.6,4539.41C1679.13,4543.22 1678.4,4548.06 1678.4,4553.91C1678.4,4563.19 1680.87,4569.71 1685.8,4573.47C1688.73,4575.67 1692.2,4576.77 1696.2,4576.77C1702.01,4576.77 1706.44,4574.52 1709.49,4570.03C1712.55,4565.53 1714.07,4559.55 1714.07,4552.08ZM1702.21,4510.41C1711.53,4510.41 1719.43,4513.85 1725.9,4520.73C1732.37,4527.62 1735.6,4537.73 1735.6,4551.06C1735.6,4565.12 1732.44,4575.84 1726.12,4583.21C1719.8,4590.58 1711.65,4594.27 1701.69,4594.27C1695.35,4594.27 1690.07,4592.68 1685.87,4589.51C1683.58,4587.75 1681.33,4585.19 1679.13,4581.82L1679.13,4623.42L1658.48,4623.42L1658.48,4512.17L1678.48,4512.17L1678.48,4523.96C1680.72,4520.49 1683.11,4517.76 1685.65,4515.76C1690.29,4512.19 1695.81,4510.41 1702.21,4510.41Z" style="fill:rgb(192,192,192);fill-rule:nonzero;"/>
        <path d="M1805.7,4552.08C1805.7,4545.93 1804.29,4540.49 1801.49,4535.75C1798.68,4531.01 1794.12,4528.65 1787.83,4528.65C1780.26,4528.65 1775.06,4532.23 1772.23,4539.41C1770.76,4543.22 1770.03,4548.06 1770.03,4553.91C1770.03,4563.19 1772.49,4569.71 1777.43,4573.47C1780.36,4575.67 1783.82,4576.77 1787.83,4576.77C1793.64,4576.77 1798.07,4574.52 1801.12,4570.03C1804.17,4565.53 1805.7,4559.55 1805.7,4552.08ZM1793.83,4510.41C1803.16,4510.41 1811.06,4513.85 1817.53,4520.73C1824,4527.62 1827.23,4537.73 1827.23,4551.06C1827.23,4565.12 1824.07,4575.84 1817.75,4583.21C1811.42,4590.58 1803.28,4594.27 1793.32,4594.27C1786.97,4594.27 1781.7,4592.68 1777.5,4589.51C1775.2,4587.75 1772.96,4585.19 1770.76,4581.82L1770.76,4623.42L1750.11,4623.42L1750.11,4512.17L1770.1,4512.17L1770.1,4523.96C1772.35,4520.49 1774.74,4517.76 1777.28,4515.76C1781.92,4512.19 1787.44,4510.41 1793.83,4510.41Z" style="fill:rgb(192,192,192);fill-rule:nonzero;"/>
        <path d="M1858.68,4566.51C1859.12,4570.22 1860.07,4572.86 1861.54,4574.42C1864.12,4577.2 1868.91,4578.6 1875.89,4578.6C1879.99,4578.6 1883.25,4577.99 1885.67,4576.77C1888.09,4575.55 1889.29,4573.71 1889.29,4571.27C1889.29,4568.93 1888.32,4567.15 1886.36,4565.93C1884.41,4564.7 1877.16,4562.61 1864.61,4559.63C1855.58,4557.38 1849.2,4554.57 1845.5,4551.2C1841.78,4547.88 1839.93,4543.1 1839.93,4536.85C1839.93,4529.48 1842.82,4523.14 1848.61,4517.84C1854.39,4512.54 1862.54,4509.9 1873.03,4509.9C1883,4509.9 1891.11,4511.89 1897.39,4515.86C1903.66,4519.84 1907.26,4526.72 1908.19,4536.48L1887.32,4536.48C1887.02,4533.8 1886.27,4531.67 1885.05,4530.11C1882.75,4527.28 1878.84,4525.86 1873.33,4525.86C1868.79,4525.86 1865.55,4526.57 1863.62,4527.99C1861.69,4529.4 1860.73,4531.06 1860.73,4532.97C1860.73,4535.36 1861.75,4537.09 1863.81,4538.17C1865.86,4539.29 1873.11,4541.22 1885.56,4543.95C1893.86,4545.91 1900.08,4548.86 1904.24,4552.82C1908.34,4556.82 1910.39,4561.82 1910.39,4567.83C1910.39,4575.74 1907.44,4582.2 1901.56,4587.2C1895.68,4592.21 1886.58,4594.71 1874.28,4594.71C1861.73,4594.71 1852.47,4592.06 1846.48,4586.76C1840.5,4581.47 1837.51,4574.72 1837.51,4566.51L1858.68,4566.51Z" style="fill:rgb(192,192,192);fill-rule:nonzero;"/>
    </g>
    <g>
        <path d="M2758.94,4551.2L2786.34,4551.2L2772.86,4508.72L2758.94,4551.2ZM2760.33,4484.04L2785.82,4484.04L2824.05,4592L2799.59,4592L2792.63,4569.81L2752.86,4569.81L2745.39,4592L2721.81,4592L2760.33,4484.04Z" style="fill:rgb(192,192,192);fill-rule:nonzero;"/>
        <path d="M2891.07,4552.08C2891.07,4545.93 2889.67,4540.49 2886.86,4535.75C2884.05,4531.01 2879.5,4528.65 2873.2,4528.65C2865.63,4528.65 2860.43,4532.23 2857.6,4539.41C2856.14,4543.22 2855.4,4548.06 2855.4,4553.91C2855.4,4563.19 2857.87,4569.71 2862.8,4573.47C2865.73,4575.67 2869.2,4576.77 2873.2,4576.77C2879.01,4576.77 2883.44,4574.52 2886.49,4570.03C2889.55,4565.53 2891.07,4559.55 2891.07,4552.08ZM2879.21,4510.41C2888.53,4510.41 2896.43,4513.85 2902.9,4520.73C2909.37,4527.62 2912.6,4537.73 2912.6,4551.06C2912.6,4565.12 2909.44,4575.84 2903.12,4583.21C2896.8,4590.58 2888.65,4594.27 2878.69,4594.27C2872.35,4594.27 2867.07,4592.68 2862.87,4589.51C2860.58,4587.75 2858.33,4585.19 2856.14,4581.82L2856.14,4623.42L2835.48,4623.42L2835.48,4512.17L2855.48,4512.17L2855.48,4523.96C2857.72,4520.49 2860.11,4517.76 2862.65,4515.76C2867.29,4512.19 2872.81,4510.41 2879.21,4510.41Z" style="fill:rgb(192,192,192);fill-rule:nonzero;"/>
        <path d="M2982.7,4552.08C2982.7,4545.93 2981.29,4540.49 2978.49,4535.75C2975.68,4531.01 2971.12,4528.65 2964.83,4528.65C2957.26,4528.65 2952.06,4532.23 2949.23,4539.41C2947.76,4543.22 2947.03,4548.06 2947.03,4553.91C2947.03,4563.19 2949.49,4569.71 2954.43,4573.47C2957.36,4575.67 2960.82,4576.77 2964.83,4576.77C2970.64,4576.77 2975.07,4574.52 2978.12,4570.03C2981.17,4565.53 2982.7,4559.55 2982.7,4552.08ZM2970.83,4510.41C2980.16,4510.41 2988.06,4513.85 2994.53,4520.73C3001,4527.62 3004.23,4537.73 3004.23,4551.06C3004.23,4565.12 3001.07,4575.84 2994.75,4583.21C2988.42,4590.58 2980.28,4594.27 2970.32,4594.27C2963.97,4594.27 2958.7,4592.68 2954.5,4589.51C2952.2,4587.75 2949.96,4585.19 2947.76,4581.82L2947.76,4623.42L2927.11,4623.42L2927.11,4512.17L2947.1,4512.17L2947.1,4523.96C2949.35,4520.49 2951.74,4517.76 2954.28,4515.76C2958.92,4512.19 2964.44,4510.41 2970.83,4510.41Z" style="fill:rgb(192,192,192);fill-rule:nonzero;"/>
        <path d="M3035.68,4566.51C3036.12,4570.22 3037.07,4572.86 3038.53,4574.42C3041.12,4577.2 3045.91,4578.6 3052.89,4578.6C3056.99,4578.6 3060.25,4577.99 3062.67,4576.77C3065.09,4575.55 3066.29,4573.71 3066.29,4571.27C3066.29,4568.93 3065.32,4567.15 3063.36,4565.93C3061.41,4564.7 3054.16,4562.61 3041.61,4559.63C3032.58,4557.38 3026.2,4554.57 3022.49,4551.2C3018.78,4547.88 3016.93,4543.1 3016.93,4536.85C3016.93,4529.48 3019.82,4523.14 3025.61,4517.84C3031.39,4512.54 3039.54,4509.9 3050.03,4509.9C3059.99,4509.9 3068.11,4511.89 3074.39,4515.86C3080.66,4519.84 3084.26,4526.72 3085.19,4536.48L3064.32,4536.48C3064.02,4533.8 3063.27,4531.67 3062.05,4530.11C3059.75,4527.28 3055.84,4525.86 3050.33,4525.86C3045.79,4525.86 3042.55,4526.57 3040.62,4527.99C3038.69,4529.4 3037.73,4531.06 3037.73,4532.97C3037.73,4535.36 3038.75,4537.09 3040.8,4538.17C3042.86,4539.29 3050.11,4541.22 3062.56,4543.95C3070.86,4545.91 3077.08,4548.86 3081.24,4552.82C3085.34,4556.82 3087.39,4561.82 3087.39,4567.83C3087.39,4575.74 3084.45,4582.2 3078.56,4587.2C3072.68,4592.21 3063.58,4594.71 3051.28,4594.71C3038.73,4594.71 3029.47,4592.06 3023.48,4586.76C3017.5,4581.47 3014.51,4574.72 3014.51,4566.51L3035.68,4566.51Z" style="fill:rgb(192,192,192);fill-rule:nonzero;"/>
    </g>
    <g>
        <path d="M403.942,4551.2L431.335,4551.2L417.858,4508.72L403.942,4551.2ZM405.334,4484.04L430.822,4484.04L469.055,4592L444.592,4592L437.634,4569.81L397.863,4569.81L390.393,4592L366.809,4592L405.334,4484.04Z" style="fill:rgb(192,192,192);fill-rule:nonzero;"/>
        <path d="M536.071,4552.08C536.071,4545.93 534.667,4540.49 531.86,4535.75C529.052,4531.01 524.499,4528.65 518.2,4528.65C510.632,4528.65 505.432,4532.23 502.6,4539.41C501.135,4543.22 500.402,4548.06 500.402,4553.91C500.402,4563.19 502.868,4569.71 507.8,4573.47C510.729,4575.67 514.196,4576.77 518.2,4576.77C524.011,4576.77 528.442,4574.52 531.494,4570.03C534.545,4565.53 536.071,4559.55 536.071,4552.08ZM524.206,4510.41C533.532,4510.41 541.43,4513.85 547.9,4520.73C554.37,4527.62 557.604,4537.73 557.604,4551.06C557.604,4565.12 554.443,4575.84 548.12,4583.21C541.796,4590.58 533.654,4594.27 523.693,4594.27C517.346,4594.27 512.072,4592.68 507.873,4589.51C505.578,4587.75 503.332,4585.19 501.135,4581.82L501.135,4623.42L480.48,4623.42L480.48,4512.17L500.476,4512.17L500.476,4523.96C502.722,4520.49 505.114,4517.76 507.653,4515.76C512.292,4512.19 517.81,4510.41 524.206,4510.41Z" style="fill:rgb(192,192,192);fill-rule:nonzero;"/>
        <path d="M627.697,4552.08C627.697,4545.93 626.293,4540.49 623.486,4535.75C620.678,4531.01 616.125,4528.65 609.826,4528.65C602.258,4528.65 597.058,4532.23 594.226,4539.41C592.761,4543.22 592.028,4548.06 592.028,4553.91C592.028,4563.19 594.494,4569.71 599.426,4573.47C602.355,4575.67 605.822,4576.77 609.826,4576.77C615.637,4576.77 620.068,4574.52 623.12,4570.03C626.171,4565.53 627.697,4559.55 627.697,4552.08ZM615.832,4510.41C625.158,4510.41 633.056,4513.85 639.526,4520.73C645.996,4527.62 649.23,4537.73 649.23,4551.06C649.23,4565.12 646.069,4575.84 639.746,4583.21C633.422,4590.58 625.28,4594.27 615.319,4594.27C608.972,4594.27 603.698,4592.68 599.499,4589.51C597.204,4587.75 594.958,4585.19 592.761,4581.82L592.761,4623.42L572.106,4623.42L572.106,4512.17L592.102,4512.17L592.102,4523.96C594.348,4520.49 596.74,4517.76 599.279,4515.76C603.918,4512.19 609.436,4510.41 615.832,4510.41Z" style="fill:rgb(192,192,192);fill-rule:nonzero;"/>
        <path d="M680.678,4566.51C681.118,4570.22 682.07,4572.86 683.535,4574.42C686.122,4577.2 690.908,4578.6 697.89,4578.6C701.992,4578.6 705.251,4577.99 707.668,4576.77C710.085,4575.55 711.293,4573.71 711.293,4571.27C711.293,4568.93 710.317,4567.15 708.364,4565.93C706.411,4564.7 699.16,4562.61 686.611,4559.63C677.578,4557.38 671.205,4554.57 667.495,4551.2C663.784,4547.88 661.928,4543.1 661.928,4536.85C661.928,4529.48 664.821,4523.14 670.607,4517.84C676.393,4512.54 684.536,4509.9 695.034,4509.9C704.995,4509.9 713.112,4511.89 719.387,4515.86C725.661,4519.84 729.262,4526.72 730.19,4536.48L709.316,4536.48C709.023,4533.8 708.266,4531.67 707.045,4530.11C704.75,4527.28 700.844,4525.86 695.327,4525.86C690.786,4525.86 687.551,4526.57 685.622,4527.99C683.693,4529.4 682.729,4531.06 682.729,4532.97C682.729,4535.36 683.754,4537.09 685.805,4538.17C687.856,4539.29 695.107,4541.22 707.558,4543.95C715.859,4545.91 722.084,4548.86 726.235,4552.82C730.336,4556.82 732.387,4561.82 732.387,4567.83C732.387,4575.74 729.445,4582.2 723.561,4587.2C717.678,4592.21 708.583,4594.71 696.279,4594.71C683.73,4594.71 674.465,4592.06 668.483,4586.76C662.502,4581.47 659.511,4574.72 659.511,4566.51L680.678,4566.51Z" style="fill:rgb(192,192,192);fill-rule:nonzero;"/>
    </g>
    <path d="M1531.4,2682L1531.4,2574.04L1553.74,2574.04L1553.74,2615.2L1595.93,2615.2L1595.93,2574.04L1618.34,2574.04L1618.34,2682L1595.93,2682L1595.93,2633.81L1553.74,2633.81L1553.74,2682L1531.4,2682Z" style="fill:rgb(192,192,192);fill-rule:nonzero;"/>
    <path d="M1674.01,2667.28C1680.11,2667.28 1684.8,2665.11 1688.07,2660.76C1691.34,2656.41 1692.98,2650.24 1692.98,2642.23C1692.98,2634.22 1691.34,2628.06 1688.07,2623.74C1684.8,2619.41 1680.11,2617.25 1674.01,2617.25C1667.9,2617.25 1663.2,2619.41 1659.91,2623.74C1656.61,2628.06 1654.97,2634.22 1654.97,2642.23C1654.97,2650.24 1656.61,2656.41 1659.91,2660.76C1663.2,2665.11 1667.9,2667.28 1674.01,2667.28ZM1714.88,2642.23C1714.88,2653.95 1711.51,2663.97 1704.77,2672.3C1698.03,2680.62 1687.8,2684.78 1674.08,2684.78C1660.36,2684.78 1650.13,2680.62 1643.39,2672.3C1636.65,2663.97 1633.29,2653.95 1633.29,2642.23C1633.29,2630.71 1636.65,2620.72 1643.39,2612.27C1650.13,2603.83 1660.36,2599.6 1674.08,2599.6C1687.8,2599.6 1698.03,2603.83 1704.77,2612.27C1711.51,2620.72 1714.88,2630.71 1714.88,2642.23Z" style="fill:rgb(192,192,192);fill-rule:nonzero;"/>
    <path d="M1819.03,2600.41C1822.54,2600.41 1826.01,2601.09 1829.43,2602.46C1832.85,2603.83 1835.95,2606.22 1838.73,2609.64C1840.98,2612.42 1842.49,2615.84 1843.27,2619.89C1843.76,2622.58 1844,2626.51 1844,2631.68L1843.86,2682L1822.47,2682L1822.47,2631.17C1822.47,2628.14 1821.98,2625.65 1821.01,2623.7C1819.15,2619.99 1815.73,2618.13 1810.75,2618.13C1804.99,2618.13 1801.01,2620.53 1798.81,2625.31C1797.69,2627.85 1797.13,2630.9 1797.13,2634.47L1797.13,2682L1776.11,2682L1776.11,2634.47C1776.11,2629.73 1775.62,2626.29 1774.64,2624.14C1772.88,2620.28 1769.44,2618.35 1764.32,2618.35C1758.36,2618.35 1754.35,2620.28 1752.3,2624.14C1751.18,2626.34 1750.62,2629.61 1750.62,2633.95L1750.62,2682L1729.45,2682L1729.45,2602.31L1749.74,2602.31L1749.74,2613.96C1752.33,2609.81 1754.77,2606.85 1757.06,2605.1C1761.12,2601.97 1766.37,2600.41 1772.81,2600.41C1778.91,2600.41 1783.85,2601.75 1787.61,2604.44C1790.63,2606.93 1792.93,2610.12 1794.49,2614.03C1797.23,2609.34 1800.62,2605.9 1804.67,2603.7C1808.97,2601.51 1813.75,2600.41 1819.03,2600.41Z" style="fill:rgb(192,192,192);fill-rule:nonzero;"/>
    <path d="M1894.69,2617.25C1889.85,2617.25 1886.11,2618.77 1883.44,2621.8C1880.78,2624.82 1879.11,2628.92 1878.43,2634.1L1910.87,2634.1C1910.53,2628.58 1908.86,2624.39 1905.86,2621.54C1902.85,2618.68 1899.13,2617.25 1894.69,2617.25ZM1894.69,2600.04C1901.33,2600.04 1907.31,2601.29 1912.63,2603.78C1917.95,2606.27 1922.35,2610.2 1925.81,2615.57C1928.94,2620.31 1930.97,2625.8 1931.89,2632.05C1932.43,2635.71 1932.65,2640.98 1932.55,2647.87L1877.91,2647.87C1878.21,2655.88 1880.72,2661.49 1885.46,2664.72C1888.34,2666.72 1891.81,2667.72 1895.86,2667.72C1900.15,2667.72 1903.65,2666.5 1906.33,2664.06C1907.8,2662.74 1909.09,2660.91 1910.21,2658.56L1931.53,2658.56C1930.99,2663.3 1928.52,2668.11 1924.13,2672.99C1917.29,2680.76 1907.72,2684.64 1895.42,2684.64C1885.26,2684.64 1876.3,2681.37 1868.54,2674.82C1860.78,2668.28 1856.89,2657.64 1856.89,2642.89C1856.89,2629.07 1860.4,2618.47 1867.4,2611.1C1874.41,2603.73 1883.51,2600.04 1894.69,2600.04Z" style="fill:rgb(192,192,192);fill-rule:nonzero;"/>
    <path d="M2753.81,2593.16L2696.68,2593.16L2696.68,2616.08L2749.12,2616.08L2749.12,2634.83L2696.68,2634.83L2696.68,2662.59L2756.45,2662.59L2756.45,2682L2674.64,2682L2674.64,2574.04L2753.81,2574.04L2753.81,2593.16Z" style="fill:rgb(192,192,192);fill-rule:nonzero;"/>
    <path d="M2821.56,2602.17L2843.97,2602.17L2815.19,2682L2793.14,2682L2764.51,2602.17L2787.94,2602.17L2804.57,2661.05L2821.56,2602.17Z" style="fill:rgb(192,192,192);fill-rule:nonzero;"/>
    <path d="M2887.26,2617.25C2882.43,2617.25 2878.68,2618.77 2876.02,2621.8C2873.36,2624.82 2871.68,2628.92 2871,2634.1L2903.45,2634.1C2903.1,2628.58 2901.43,2624.39 2898.43,2621.54C2895.43,2618.68 2891.7,2617.25 2887.26,2617.25ZM2887.26,2600.04C2893.9,2600.04 2899.88,2601.29 2905.2,2603.78C2910.53,2606.27 2914.92,2610.2 2918.39,2615.57C2921.51,2620.31 2923.54,2625.8 2924.47,2632.05C2925,2635.71 2925.22,2640.98 2925.13,2647.87L2870.49,2647.87C2870.78,2655.88 2873.3,2661.49 2878.03,2664.72C2880.91,2666.72 2884.38,2667.72 2888.43,2667.72C2892.73,2667.72 2896.22,2666.5 2898.91,2664.06C2900.37,2662.74 2901.66,2660.91 2902.79,2658.56L2924.1,2658.56C2923.56,2663.3 2921.1,2668.11 2916.7,2672.99C2909.87,2680.76 2900.3,2684.64 2887.99,2684.64C2877.84,2684.64 2868.88,2681.37 2861.11,2674.82C2853.35,2668.28 2849.47,2657.64 2849.47,2642.89C2849.47,2629.07 2852.97,2618.47 2859.98,2611.1C2866.98,2603.73 2876.08,2600.04 2887.26,2600.04Z" style="fill:rgb(192,192,192);fill-rule:nonzero;"/>
    <path d="M2983.43,2600.26C2991.68,2600.26 2998.43,2602.42 3003.68,2606.74C3008.93,2611.07 3011.55,2618.23 3011.55,2628.24L3011.55,2682L2990.16,2682L2990.16,2633.44C2990.16,2629.24 2989.6,2626.02 2988.48,2623.77C2986.43,2619.67 2982.52,2617.62 2976.76,2617.62C2969.68,2617.62 2964.82,2620.62 2962.19,2626.63C2960.82,2629.8 2960.14,2633.86 2960.14,2638.79L2960.14,2682L2939.34,2682L2939.34,2602.31L2959.48,2602.31L2959.48,2613.96C2962.16,2609.86 2964.7,2606.9 2967.09,2605.1C2971.39,2601.87 2976.84,2600.26 2983.43,2600.26Z" style="fill:rgb(192,192,192);fill-rule:nonzero;"/>
    <path d="M3022.61,2617.77L3022.61,2602.9L3033.74,2602.9L3033.74,2580.63L3054.4,2580.63L3054.4,2602.9L3067.36,2602.9L3067.36,2617.77L3054.4,2617.77L3054.4,2659.95C3054.4,2663.23 3054.81,2665.26 3055.64,2666.07C3056.47,2666.88 3059.01,2667.28 3063.26,2667.28C3063.9,2667.28 3064.57,2667.27 3065.28,2667.24C3065.98,2667.22 3066.68,2667.18 3067.36,2667.13L3067.36,2682.73L3057.47,2683.1C3047.61,2683.44 3040.87,2681.73 3037.26,2677.97C3034.92,2675.58 3033.74,2671.89 3033.74,2666.91L3033.74,2617.77L3022.61,2617.77Z" style="fill:rgb(192,192,192);fill-rule:nonzero;"/>
    <path d="M3097.03,2656.51C3097.47,2660.22 3098.42,2662.86 3099.88,2664.42C3102.47,2667.2 3107.26,2668.6 3114.24,2668.6C3118.34,2668.6 3121.6,2667.99 3124.01,2666.77C3126.43,2665.55 3127.64,2663.71 3127.64,2661.27C3127.64,2658.93 3126.66,2657.15 3124.71,2655.93C3122.76,2654.7 3115.51,2652.61 3102.96,2649.63C3093.93,2647.38 3087.55,2644.57 3083.84,2641.2C3080.13,2637.88 3078.28,2633.1 3078.28,2626.85C3078.28,2619.48 3081.17,2613.14 3086.95,2607.84C3092.74,2602.54 3100.88,2599.9 3111.38,2599.9C3121.34,2599.9 3129.46,2601.89 3135.73,2605.87C3142.01,2609.84 3145.61,2616.72 3146.54,2626.48L3125.66,2626.48C3125.37,2623.8 3124.61,2621.67 3123.39,2620.11C3121.1,2617.28 3117.19,2615.86 3111.67,2615.86C3107.13,2615.86 3103.9,2616.57 3101.97,2617.99C3100.04,2619.4 3099.08,2621.06 3099.08,2622.97C3099.08,2625.36 3100.1,2627.09 3102.15,2628.17C3104.2,2629.29 3111.45,2631.22 3123.91,2633.95C3132.21,2635.91 3138.43,2638.86 3142.58,2642.82C3146.68,2646.82 3148.73,2651.82 3148.73,2657.83C3148.73,2665.74 3145.79,2672.2 3139.91,2677.2C3134.03,2682.21 3124.93,2684.71 3112.63,2684.71C3100.08,2684.71 3090.81,2682.06 3084.83,2676.76C3078.85,2671.47 3075.86,2664.72 3075.86,2656.51L3097.03,2656.51Z" style="fill:rgb(192,192,192);fill-rule:nonzero;"/>
    <path d="M393.812,2587.16L336.684,2587.16L336.684,2610.08L389.125,2610.08L389.125,2628.83L336.684,2628.83L336.684,2656.59L396.449,2656.59L396.449,2676L314.638,2676L314.638,2568.04L393.812,2568.04L393.812,2587.16Z" style="fill:rgb(192,192,192);fill-rule:nonzero;"/>
    <path d="M461.562,2596.17L483.974,2596.17L455.189,2676L433.144,2676L404.506,2596.17L427.943,2596.17L444.569,2655.05L461.562,2596.17Z" style="fill:rgb(192,192,192);fill-rule:nonzero;"/>
    <path d="M527.26,2611.25C522.426,2611.25 518.678,2612.77 516.017,2615.8C513.356,2618.82 511.684,2622.92 511,2628.1L543.446,2628.1C543.104,2622.58 541.432,2618.39 538.429,2615.54C535.426,2612.68 531.703,2611.25 527.26,2611.25ZM527.26,2594.04C533.9,2594.04 539.882,2595.29 545.204,2597.78C550.526,2600.27 554.921,2604.2 558.388,2609.57C561.513,2614.31 563.539,2619.8 564.467,2626.05C565.004,2629.71 565.224,2634.98 565.126,2641.87L510.487,2641.87C510.78,2649.88 513.295,2655.49 518.031,2658.72C520.912,2660.72 524.379,2661.72 528.432,2661.72C532.729,2661.72 536.22,2660.5 538.905,2658.06C540.37,2656.74 541.664,2654.91 542.787,2652.56L564.101,2652.56C563.563,2657.3 561.098,2662.11 556.703,2666.99C549.867,2674.76 540.297,2678.64 527.992,2678.64C517.836,2678.64 508.876,2675.37 501.112,2668.82C493.349,2662.28 489.467,2651.64 489.467,2636.89C489.467,2623.07 492.97,2612.47 499.977,2605.1C506.984,2597.73 516.078,2594.04 527.26,2594.04Z" style="fill:rgb(192,192,192);fill-rule:nonzero;"/>
    <path d="M623.427,2594.26C631.679,2594.26 638.429,2596.42 643.678,2600.74C648.927,2605.07 651.552,2612.23 651.552,2622.24L651.552,2676L630.165,2676L630.165,2627.44C630.165,2623.24 629.604,2620.02 628.48,2617.77C626.43,2613.67 622.523,2611.62 616.762,2611.62C609.682,2611.62 604.823,2614.62 602.187,2620.63C600.819,2623.8 600.136,2627.86 600.136,2632.79L600.136,2676L579.335,2676L579.335,2596.31L599.477,2596.31L599.477,2607.96C602.162,2603.86 604.701,2600.9 607.094,2599.1C611.391,2595.87 616.835,2594.26 623.427,2594.26Z" style="fill:rgb(192,192,192);fill-rule:nonzero;"/>
    <path d="M662.611,2611.77L662.611,2596.9L673.744,2596.9L673.744,2574.63L694.398,2574.63L694.398,2596.9L707.362,2596.9L707.362,2611.77L694.398,2611.77L694.398,2653.95C694.398,2657.23 694.813,2659.26 695.644,2660.07C696.474,2660.88 699.013,2661.28 703.261,2661.28C703.896,2661.28 704.567,2661.27 705.275,2661.24C705.983,2661.22 706.679,2661.18 707.362,2661.13L707.362,2676.73L697.475,2677.1C687.611,2677.44 680.873,2675.73 677.26,2671.97C674.916,2669.58 673.744,2665.89 673.744,2660.91L673.744,2611.77L662.611,2611.77Z" style="fill:rgb(192,192,192);fill-rule:nonzero;"/>
    <path d="M737.025,2650.51C737.465,2654.22 738.417,2656.86 739.882,2658.42C742.47,2661.2 747.255,2662.6 754.237,2662.6C758.339,2662.6 761.598,2661.99 764.015,2660.77C766.432,2659.55 767.641,2657.71 767.641,2655.27C767.641,2652.93 766.664,2651.15 764.711,2649.93C762.758,2648.7 755.507,2646.61 742.958,2643.63C733.925,2641.38 727.553,2638.57 723.842,2635.2C720.131,2631.88 718.275,2627.1 718.275,2620.85C718.275,2613.48 721.168,2607.14 726.955,2601.84C732.741,2596.54 740.883,2593.9 751.381,2593.9C761.342,2593.9 769.459,2595.89 775.734,2599.87C782.008,2603.84 785.609,2610.72 786.537,2620.48L765.663,2620.48C765.37,2617.8 764.613,2615.67 763.393,2614.11C761.098,2611.28 757.191,2609.86 751.674,2609.86C747.133,2609.86 743.898,2610.57 741.969,2611.99C740.041,2613.4 739.076,2615.06 739.076,2616.97C739.076,2619.36 740.102,2621.09 742.152,2622.17C744.203,2623.29 751.454,2625.22 763.905,2627.95C772.206,2629.91 778.432,2632.86 782.582,2636.82C786.684,2640.82 788.734,2645.82 788.734,2651.83C788.734,2659.74 785.792,2666.2 779.909,2671.2C774.025,2676.21 764.931,2678.71 752.626,2678.71C740.077,2678.71 730.812,2676.06 724.831,2670.76C718.849,2665.47 715.858,2658.72 715.858,2650.51L737.025,2650.51Z" style="fill:rgb(192,192,192);fill-rule:nonzero;"/>
    <g>
        <path d="M2866.46,567.041L2866.46,586.157L2834.16,586.157L2834.16,675L2811.45,675L2811.45,586.157L2779.01,586.157L2779.01,567.041L2866.46,567.041Z" style="fill:rgb(192,192,192);fill-rule:nonzero;"/>
        <path d="M2902.72,660.278C2908.83,660.278 2913.51,658.105 2916.79,653.76C2920.06,649.414 2921.69,643.237 2921.69,635.229C2921.69,627.222 2920.06,621.057 2916.79,616.736C2913.51,612.415 2908.83,610.254 2902.72,610.254C2896.62,610.254 2891.92,612.415 2888.62,616.736C2885.33,621.057 2883.68,627.222 2883.68,635.229C2883.68,643.237 2885.33,649.414 2888.62,653.76C2891.92,658.105 2896.62,660.278 2902.72,660.278ZM2943.59,635.229C2943.59,646.948 2940.22,656.97 2933.49,665.295C2926.75,673.621 2916.52,677.783 2902.8,677.783C2889.08,677.783 2878.85,673.621 2872.11,665.295C2865.37,656.97 2862,646.948 2862,635.229C2862,623.706 2865.37,613.721 2872.11,605.273C2878.85,596.826 2889.08,592.603 2902.8,592.603C2916.52,592.603 2926.75,596.826 2933.49,605.273C2940.22,613.721 2943.59,623.706 2943.59,635.229Z" style="fill:rgb(192,192,192);fill-rule:nonzero;"/>
        <path d="M3013.54,635.083C3013.54,628.931 3012.14,623.486 3009.33,618.75C3006.52,614.014 3001.97,611.646 2995.67,611.646C2988.1,611.646 2982.9,615.234 2980.07,622.412C2978.6,626.221 2977.87,631.055 2977.87,636.914C2977.87,646.191 2980.34,652.71 2985.27,656.47C2988.2,658.667 2991.66,659.766 2995.67,659.766C3001.48,659.766 3005.91,657.52 3008.96,653.027C3012.01,648.535 3013.54,642.554 3013.54,635.083ZM3001.67,593.408C3011,593.408 3018.9,596.851 3025.37,603.735C3031.84,610.62 3035.07,620.728 3035.07,634.058C3035.07,648.12 3031.91,658.838 3025.59,666.211C3019.26,673.584 3011.12,677.271 3001.16,677.271C2994.81,677.271 2989.54,675.684 2985.34,672.51C2983.05,670.752 2980.8,668.188 2978.6,664.819L2978.6,706.421L2957.95,706.421L2957.95,595.166L2977.94,595.166L2977.94,606.958C2980.19,603.491 2982.58,600.757 2985.12,598.755C2989.76,595.19 2995.28,593.408 3001.67,593.408Z" style="fill:rgb(192,192,192);fill-rule:nonzero;"/>
    </g>
    <path d="M2795.67,747.041L2828.12,747.041L2828.12,855L2807.1,855L2807.1,781.978C2807.1,779.878 2807.12,776.936 2807.17,773.152C2807.22,769.368 2807.24,766.45 2807.24,764.399L2786.81,855L2764.91,855L2744.62,764.399C2744.62,766.45 2744.64,769.368 2744.69,773.152C2744.74,776.936 2744.77,779.878 2744.77,781.978L2744.77,855L2723.75,855L2723.75,747.041L2756.56,747.041L2776.19,831.929L2795.67,747.041Z" style="fill:rgb(192,192,192);fill-rule:nonzero;"/>
    <path d="M2878.87,790.254C2874.04,790.254 2870.29,791.768 2867.63,794.795C2864.97,797.822 2863.3,801.924 2862.61,807.1L2895.06,807.1C2894.72,801.582 2893.05,797.395 2890.04,794.539C2887.04,791.682 2883.32,790.254 2878.87,790.254ZM2878.87,773.042C2885.51,773.042 2891.5,774.287 2896.82,776.777C2902.14,779.268 2906.53,783.198 2910,788.569C2913.13,793.306 2915.15,798.799 2916.08,805.049C2916.62,808.711 2916.84,813.984 2916.74,820.869L2862.1,820.869C2862.39,828.877 2864.91,834.492 2869.64,837.715C2872.53,839.717 2875.99,840.718 2880.05,840.718C2884.34,840.718 2887.83,839.497 2890.52,837.056C2891.98,835.737 2893.28,833.906 2894.4,831.563L2915.71,831.563C2915.18,836.299 2912.71,841.108 2908.32,845.991C2901.48,853.755 2891.91,857.637 2879.61,857.637C2869.45,857.637 2860.49,854.365 2852.73,847.822C2844.96,841.279 2841.08,830.635 2841.08,815.889C2841.08,802.07 2844.58,791.475 2851.59,784.102C2858.6,776.729 2867.69,773.042 2878.87,773.042Z" style="fill:rgb(192,192,192);fill-rule:nonzero;"/>
    <path d="M2975.04,773.262C2983.29,773.262 2990.04,775.422 2995.29,779.744C3000.54,784.065 3003.17,791.23 3003.17,801.24L3003.17,855L2981.78,855L2981.78,806.44C2981.78,802.241 2981.22,799.019 2980.09,796.772C2978.04,792.671 2974.14,790.62 2968.38,790.62C2961.3,790.62 2956.44,793.623 2953.8,799.629C2952.43,802.803 2951.75,806.855 2951.75,811.787L2951.75,855L2930.95,855L2930.95,775.313L2951.09,775.313L2951.09,786.958C2953.78,782.856 2956.32,779.902 2958.71,778.096C2963,774.873 2968.45,773.262 2975.04,773.262Z" style="fill:rgb(192,192,192);fill-rule:nonzero;"/>
    <path d="M3043.23,775.166L3043.23,823.286C3043.23,827.827 3043.77,831.245 3044.84,833.54C3046.74,837.593 3050.48,839.619 3056.05,839.619C3063.18,839.619 3068.06,836.738 3070.7,830.977C3072.06,827.852 3072.75,823.726 3072.75,818.599L3072.75,775.166L3093.91,775.166L3093.91,855L3073.62,855L3073.62,843.721C3073.43,843.965 3072.94,844.697 3072.16,845.918C3071.38,847.139 3070.45,848.213 3069.38,849.141C3066.11,852.07 3062.94,854.072 3059.89,855.146C3056.84,856.221 3053.26,856.758 3049.16,856.758C3037.35,856.758 3029.39,852.51 3025.28,844.014C3022.99,839.326 3021.84,832.417 3021.84,823.286L3021.84,775.166L3043.23,775.166Z" style="fill:rgb(192,192,192);fill-rule:nonzero;"/>
    <g>
        <path d="M505.459,567.041L505.459,586.157L473.159,586.157L473.159,675L450.454,675L450.454,586.157L418.008,586.157L418.008,567.041L505.459,567.041Z" style="fill:rgb(192,192,192);fill-rule:nonzero;"/>
        <path d="M541.723,660.278C547.827,660.278 552.514,658.105 555.786,653.76C559.057,649.414 560.693,643.237 560.693,635.229C560.693,627.222 559.057,621.057 555.786,616.736C552.514,612.415 547.827,610.254 541.723,610.254C535.62,610.254 530.92,612.415 527.624,616.736C524.328,621.057 522.68,627.222 522.68,635.229C522.68,643.237 524.328,649.414 527.624,653.76C530.92,658.105 535.62,660.278 541.723,660.278ZM582.593,635.229C582.593,646.948 579.223,656.97 572.485,665.295C565.747,673.621 555.517,677.783 541.797,677.783C528.076,677.783 517.846,673.621 511.108,665.295C504.37,656.97 501.001,646.948 501.001,635.229C501.001,623.706 504.37,613.721 511.108,605.273C517.846,596.826 528.076,592.603 541.797,592.603C555.517,592.603 565.747,596.826 572.485,605.273C579.223,613.721 582.593,623.706 582.593,635.229Z" style="fill:rgb(192,192,192);fill-rule:nonzero;"/>
        <path d="M652.539,635.083C652.539,628.931 651.135,623.486 648.327,618.75C645.52,614.014 640.967,611.646 634.668,611.646C627.099,611.646 621.899,615.234 619.067,622.412C617.602,626.221 616.87,631.055 616.87,636.914C616.87,646.191 619.336,652.71 624.267,656.47C627.197,658.667 630.664,659.766 634.668,659.766C640.478,659.766 644.909,657.52 647.961,653.027C651.013,648.535 652.539,642.554 652.539,635.083ZM640.674,593.408C650,593.408 657.898,596.851 664.367,603.735C670.837,610.62 674.072,620.728 674.072,634.058C674.072,648.12 670.91,658.838 664.587,666.211C658.264,673.584 650.122,677.271 640.161,677.271C633.813,677.271 628.54,675.684 624.341,672.51C622.046,670.752 619.8,668.188 617.602,664.819L617.602,706.421L596.948,706.421L596.948,595.166L616.943,595.166L616.943,606.958C619.189,603.491 621.582,600.757 624.121,598.755C628.76,595.19 634.277,593.408 640.674,593.408Z" style="fill:rgb(192,192,192);fill-rule:nonzero;"/>
    </g>
    <path d="M434.67,747.041L467.117,747.041L467.117,855L446.096,855L446.096,781.978C446.096,779.878 446.121,776.936 446.169,773.152C446.218,769.368 446.243,766.45 446.243,764.399L425.808,855L403.909,855L383.621,764.399C383.621,766.45 383.645,769.368 383.694,773.152C383.743,776.936 383.767,779.878 383.767,781.978L383.767,855L362.747,855L362.747,747.041L395.559,747.041L415.188,831.929L434.67,747.041Z" style="fill:rgb(192,192,192);fill-rule:nonzero;"/>
    <path d="M517.874,790.254C513.04,790.254 509.292,791.768 506.631,794.795C503.97,797.822 502.297,801.924 501.614,807.1L534.06,807.1C533.718,801.582 532.046,797.395 529.043,794.539C526.04,791.682 522.317,790.254 517.874,790.254ZM517.874,773.042C524.514,773.042 530.496,774.287 535.818,776.777C541.14,779.268 545.535,783.198 549.001,788.569C552.126,793.306 554.153,798.799 555.081,805.049C555.618,808.711 555.837,813.984 555.74,820.869L501.101,820.869C501.394,828.877 503.909,834.492 508.645,837.715C511.526,839.717 514.993,840.718 519.045,840.718C523.342,840.718 526.833,839.497 529.519,837.056C530.984,835.737 532.278,833.906 533.401,831.563L554.714,831.563C554.177,836.299 551.711,841.108 547.317,845.991C540.481,853.755 530.911,857.637 518.606,857.637C508.45,857.637 499.49,854.365 491.726,847.822C483.962,841.279 480.081,830.635 480.081,815.889C480.081,802.07 483.584,791.475 490.591,784.102C497.598,776.729 506.692,773.042 517.874,773.042Z" style="fill:rgb(192,192,192);fill-rule:nonzero;"/>
    <path d="M614.041,773.262C622.292,773.262 629.043,775.422 634.292,779.744C639.541,784.065 642.166,791.23 642.166,801.24L642.166,855L620.779,855L620.779,806.44C620.779,802.241 620.217,799.019 619.094,796.772C617.043,792.671 613.137,790.62 607.375,790.62C600.295,790.62 595.437,793.623 592.8,799.629C591.433,802.803 590.75,806.855 590.75,811.787L590.75,855L569.949,855L569.949,775.313L590.09,775.313L590.09,786.958C592.776,782.856 595.315,779.902 597.708,778.096C602.004,774.873 607.449,773.262 614.041,773.262Z" style="fill:rgb(192,192,192);fill-rule:nonzero;"/>
    <path d="M682.229,775.166L682.229,823.286C682.229,827.827 682.766,831.245 683.84,833.54C685.745,837.593 689.48,839.619 695.046,839.619C702.175,839.619 707.058,836.738 709.695,830.977C711.062,827.852 711.746,823.726 711.746,818.599L711.746,775.166L732.913,775.166L732.913,855L712.625,855L712.625,843.721C712.429,843.965 711.941,844.697 711.16,845.918C710.378,847.139 709.451,848.213 708.376,849.141C705.105,852.07 701.943,854.072 698.892,855.146C695.84,856.221 692.263,856.758 688.162,856.758C676.345,856.758 668.386,852.51 664.285,844.014C661.99,839.326 660.842,832.417 660.842,823.286L660.842,775.166L682.229,775.166Z" style="fill:rgb(192,192,192);fill-rule:nonzero;"/>
    <g>
        <path d="M1683.46,567.041L1683.46,586.157L1651.16,586.157L1651.16,675L1628.45,675L1628.45,586.157L1596.01,586.157L1596.01,567.041L1683.46,567.041Z" style="fill:rgb(192,192,192);fill-rule:nonzero;"/>
        <path d="M1719.72,660.278C1725.83,660.278 1730.51,658.105 1733.79,653.76C1737.06,649.414 1738.69,643.237 1738.69,635.229C1738.69,627.222 1737.06,621.057 1733.79,616.736C1730.51,612.415 1725.83,610.254 1719.72,610.254C1713.62,610.254 1708.92,612.415 1705.62,616.736C1702.33,621.057 1700.68,627.222 1700.68,635.229C1700.68,643.237 1702.33,649.414 1705.62,653.76C1708.92,658.105 1713.62,660.278 1719.72,660.278ZM1760.59,635.229C1760.59,646.948 1757.22,656.97 1750.49,665.295C1743.75,673.621 1733.52,677.783 1719.8,677.783C1706.08,677.783 1695.85,673.621 1689.11,665.295C1682.37,656.97 1679,646.948 1679,635.229C1679,623.706 1682.37,613.721 1689.11,605.273C1695.85,596.826 1706.08,592.603 1719.8,592.603C1733.52,592.603 1743.75,596.826 1750.49,605.273C1757.22,613.721 1760.59,623.706 1760.59,635.229Z" style="fill:rgb(192,192,192);fill-rule:nonzero;"/>
        <path d="M1830.54,635.083C1830.54,628.931 1829.13,623.486 1826.33,618.75C1823.52,614.014 1818.97,611.646 1812.67,611.646C1805.1,611.646 1799.9,615.234 1797.07,622.412C1795.6,626.221 1794.87,631.055 1794.87,636.914C1794.87,646.191 1797.34,652.71 1802.27,656.47C1805.2,658.667 1808.66,659.766 1812.67,659.766C1818.48,659.766 1822.91,657.52 1825.96,653.027C1829.01,648.535 1830.54,642.554 1830.54,635.083ZM1818.67,593.408C1828,593.408 1835.9,596.851 1842.37,603.735C1848.84,610.62 1852.07,620.728 1852.07,634.058C1852.07,648.12 1848.91,658.838 1842.59,666.211C1836.26,673.584 1828.12,677.271 1818.16,677.271C1811.81,677.271 1806.54,675.684 1802.34,672.51C1800.05,670.752 1797.8,668.188 1795.6,664.819L1795.6,706.421L1774.95,706.421L1774.95,595.166L1794.94,595.166L1794.94,606.958C1797.19,603.491 1799.58,600.757 1802.12,598.755C1806.76,595.19 1812.28,593.408 1818.67,593.408Z" style="fill:rgb(192,192,192);fill-rule:nonzero;"/>
    </g>
    <path d="M1612.67,747.041L1645.12,747.041L1645.12,855L1624.1,855L1624.1,781.978C1624.1,779.878 1624.12,776.936 1624.17,773.152C1624.22,769.368 1624.24,766.45 1624.24,764.399L1603.81,855L1581.91,855L1561.62,764.399C1561.62,766.45 1561.64,769.368 1561.69,773.152C1561.74,776.936 1561.77,779.878 1561.77,781.978L1561.77,855L1540.75,855L1540.75,747.041L1573.56,747.041L1593.19,831.929L1612.67,747.041Z" style="fill:rgb(192,192,192);fill-rule:nonzero;"/>
    <path d="M1695.87,790.254C1691.04,790.254 1687.29,791.768 1684.63,794.795C1681.97,797.822 1680.3,801.924 1679.61,807.1L1712.06,807.1C1711.72,801.582 1710.05,797.395 1707.04,794.539C1704.04,791.682 1700.32,790.254 1695.87,790.254ZM1695.87,773.042C1702.51,773.042 1708.5,774.287 1713.82,776.777C1719.14,779.268 1723.54,783.198 1727,788.569C1730.13,793.306 1732.15,798.799 1733.08,805.049C1733.62,808.711 1733.84,813.984 1733.74,820.869L1679.1,820.869C1679.39,828.877 1681.91,834.492 1686.64,837.715C1689.53,839.717 1692.99,840.718 1697.05,840.718C1701.34,840.718 1704.83,839.497 1707.52,837.056C1708.98,835.737 1710.28,833.906 1711.4,831.563L1732.71,831.563C1732.18,836.299 1729.71,841.108 1725.32,845.991C1718.48,853.755 1708.91,857.637 1696.61,857.637C1686.45,857.637 1677.49,854.365 1669.73,847.822C1661.96,841.279 1658.08,830.635 1658.08,815.889C1658.08,802.07 1661.58,791.475 1668.59,784.102C1675.6,776.729 1684.69,773.042 1695.87,773.042Z" style="fill:rgb(192,192,192);fill-rule:nonzero;"/>
    <path d="M1792.04,773.262C1800.29,773.262 1807.04,775.422 1812.29,779.744C1817.54,784.065 1820.17,791.23 1820.17,801.24L1820.17,855L1798.78,855L1798.78,806.44C1798.78,802.241 1798.22,799.019 1797.09,796.772C1795.04,792.671 1791.14,790.62 1785.38,790.62C1778.3,790.62 1773.44,793.623 1770.8,799.629C1769.43,802.803 1768.75,806.855 1768.75,811.787L1768.75,855L1747.95,855L1747.95,775.313L1768.09,775.313L1768.09,786.958C1770.78,782.856 1773.32,779.902 1775.71,778.096C1780,774.873 1785.45,773.262 1792.04,773.262Z" style="fill:rgb(192,192,192);fill-rule:nonzero;"/>
    <path d="M1860.23,775.166L1860.23,823.286C1860.23,827.827 1860.77,831.245 1861.84,833.54C1863.75,837.593 1867.48,839.619 1873.05,839.619C1880.17,839.619 1885.06,836.738 1887.69,830.977C1889.06,827.852 1889.75,823.726 1889.75,818.599L1889.75,775.166L1910.91,775.166L1910.91,855L1890.62,855L1890.62,843.721C1890.43,843.965 1889.94,844.697 1889.16,845.918C1888.38,847.139 1887.45,848.213 1886.38,849.141C1883.11,852.07 1879.94,854.072 1876.89,855.146C1873.84,856.221 1870.26,856.758 1866.16,856.758C1854.35,856.758 1846.39,852.51 1842.29,844.014C1839.99,839.326 1838.84,832.417 1838.84,823.286L1838.84,775.166L1860.23,775.166Z" style="fill:rgb(192,192,192);fill-rule:nonzero;"/>
</svg>
