<?xml version="1.0" encoding="UTF-8"?>
<svg width="1842px" height="1846px" viewBox="0 0 1842 1846" version="1.1" xmlns="http://www.w3.org/2000/svg" xmlns:xlink="http://www.w3.org/1999/xlink">
    <!-- Generator: Sketch 52.3 (67297) - http://www.bohemiancoding.com/sketch -->
    <title>Group 2</title>
    <desc>Created with Sketch.</desc>
    <defs>
        <path d="M97.411,28.2049054 C97.411,43.0954654 97.411,81.1613409 97.411,102.174283 C97.411,110.16667 90.7210184,116.648 82.467999,116.648 C64.2928268,116.648 33.7920697,116.648 15.616001,116.648 C7.36313099,116.648 0.673,110.16667 0.673,102.174283 C0.673,79.7921273 0.673,37.0338727 0.673,14.6517169 C0.673,6.65788306 7.36313099,0.178 15.616001,0.178 C32.4179114,0.178 58.861046,0.178 70.4284231,0.178 C74.0909526,0.178 77.5906034,1.64129278 80.1040162,4.22195651 C83.7650515,7.98078079 89.2117753,13.5748724 93.0132748,17.4798812 C95.837502,20.3804141 97.411,24.2173964 97.411,28.2049054 Z" id="path-1"></path>
        <path d="M83.1245,0.647852761 C128.475902,0.647852761 165.295512,37.4641104 165.295512,82.8239264 C165.295512,128.17362 128.475902,165 83.1245,165 C37.7730976,165 0.953487805,128.17362 0.953487805,82.8239264" id="path-3"></path>
        <path d="M101.343098,18.6478528 C146.697853,18.6478528 183.520184,55.4641104 183.520184,100.823926 C183.520184,146.17362 146.697853,183 101.343098,183 C55.9883436,183 19.1660123,146.17362 19.1660123,100.823926" id="path-5"></path>
        <path d="M82.5678221,0.647852761 C127.923589,0.647852761 164.74592,37.4641104 164.74592,82.8239264 C164.74592,128.17362 127.923589,165 82.5678221,165 C37.2130675,165 0.390736196,128.17362 0.390736196,82.8239264" id="path-7"></path>
        <path d="M96.12363,27.6760635 C96.12363,42.2874254 96.12363,79.6395657 96.12363,100.258515 C96.12363,108.101045 89.5220623,114.46085 81.3781135,114.46085 C63.4431419,114.46085 33.3454785,114.46085 15.4096222,114.46085 C7.26582089,114.46085 0.664105727,108.101045 0.664105727,100.258515 C0.664105727,78.2960249 0.664105727,36.3394876 0.664105727,14.3769972 C0.664105727,6.53304775 7.26582089,0.1746625 15.4096222,0.1746625 C31.9894808,0.1746625 58.0831467,0.1746625 69.4976509,0.1746625 C73.111777,0.1746625 76.565177,1.61051854 79.0453728,4.14279482 C82.6580244,7.83114115 88.0327651,13.3203435 91.7840245,17.1521334 C94.5709271,19.9982813 96.12363,23.7633202 96.12363,27.6760635 Z" id="path-9"></path>
        <path d="M67.1005,0.522208589 C103.709463,0.522208589 133.431317,30.1983436 133.431317,66.7611043 C133.431317,103.315706 103.709463,133 67.1005,133 C30.4915366,133 0.769682927,103.315706 0.769682927,66.7611043" id="path-11"></path>
        <path d="M91.3735276,24.5222086 C127.932209,24.5222086 157.613239,54.1983436 157.613239,90.7611043 C157.613239,127.315706 127.932209,157 91.3735276,157 C54.8148466,157 25.133816,127.315706 25.133816,90.7611043" id="path-13"></path>
        <path d="M66.5546687,0.522208589 C103.114166,0.522208589 132.795196,30.1983436 132.795196,66.7611043 C132.795196,103.315706 103.114166,133 66.5546687,133 C29.9959877,133 0.314957055,103.315706 0.314957055,66.7611043" id="path-15"></path>
    </defs>
    <g id="Page-1" stroke="none" stroke-width="1" fill="none" fill-rule="evenodd">
        <g id="Group-2">
            <rect id="Rectangle" stroke="#979797" fill="#D8D8D8" x="0.5" y="0.5" width="1841" height="1845" rx="40"></rect>
            <g id="Top-Menu-Center" transform="translate(920.947631, 1384.799670) rotate(-90.000000) translate(-920.947631, -1384.799670) translate(540.447631, 632.299670)">
                <path d="M30,9.09494702e-13 L736,9.05941988e-13 C749.807119,9.64721586e-13 761,11.1928813 761,25 L761,434.287422 L761,969.643711 L761,1480 C761,1493.80712 749.807119,1505 736,1505 L30,1505 C16.1928813,1505 5,1493.80712 5,1480 L5,25 C5,11.1928813 16.1928813,9.12031028e-13 30,9.09494702e-13 Z" id="Rectangle" fill="#11383F"></path>
                <rect id="Rectangle" fill="#1C1C1C" x="5" y="9.09494702e-13" width="756" height="1505" rx="7"></rect>
                <path d="M130.5,757.591018 C130.5,754.840339 128.247186,752.607613 125.472775,752.607613 L-115.47176,752.607613 C-118.247186,752.607613 -120.5,754.840339 -120.5,757.591018 L-120.5,757.625213 C-120.5,760.374886 -118.247186,762.607613 -115.47176,762.607613 L125.472775,762.607613 C128.247186,762.607613 130.5,760.374886 130.5,757.625213 L130.5,757.591018 Z" id="Fill-3" fill="#90A4AF" transform="translate(5.000000, 757.607613) rotate(-270.000000) translate(-5.000000, -757.607613) "></path>
                <g id="Brightness" transform="translate(391.052850, 1258.028386) rotate(-180.000000) translate(-391.052850, -1258.028386) translate(119.052850, 1218.028386)">
                    <path d="M543.613544,51.4540738 C543.613544,47.19524 540.265538,43.737494 536.141869,43.737494 L8.08521909,43.737494 C3.96154994,43.737494 0.613544032,47.19524 0.613544032,51.4540738 L0.613544032,67.0209142 C0.613544032,71.279748 3.96154994,74.737494 8.08521909,74.737494 L536.141869,74.737494 C540.265538,74.737494 543.613544,71.279748 543.613544,67.0209142 L543.613544,51.4540738 Z" id="Stroke-11" stroke="#FFFFFF" stroke-width="3" stroke-linecap="round" stroke-linejoin="round"></path>
                    <path d="M543.613544,52.4879928 C543.613544,48.2102043 540.261503,44.737494 536.132359,44.737494 L320.093766,44.737494 C315.965585,44.737494 312.613544,48.2102043 312.613544,52.4879928 L312.613544,67.9869952 C312.613544,72.2647837 315.965585,75.737494 320.093766,75.737494 L536.132359,75.737494 C540.261503,75.737494 543.613544,72.2647837 543.613544,67.9869952 L543.613544,52.4879928 Z" id="Fill-12" fill="#FFFFFF"></path>
                    <path d="M311.113544,79.737494 L311.113544,40.737494" id="Stroke-13" stroke="#DF363B" stroke-width="13" stroke-linecap="round" stroke-linejoin="round"></path>
                </g>
                <text id="Switched-to-SIM-2" transform="translate(721.364399, 757.607613) rotate(-270.000000) translate(-721.364399, -757.607613) " font-family="Helvetica" font-size="30" font-weight="normal" letter-spacing="-0.002769231" fill="#FFFFFF">
                    <tspan x="600.501707" y="770.107613">Switched to SIM 2</tspan>
                </text>
                <g id="Row-2" transform="translate(383.000000, 752.528386) rotate(-270.000000) translate(-383.000000, -752.528386) translate(42.500000, 672.528386)">
                    <g id="FlashLight-" stroke="#F7B03B">
                        <rect id="Rectangle" stroke-width="4" x="2" y="2" width="136" height="156" rx="40"></rect>
                        <g id="FlashLight" transform="translate(40.000000, 20.000000)">
                            <g id="FlashLight-Icon">
                                <path d="M30.9996034,48 C35.9666852,48 40,52.0327869 40,57 C40,61.9672131 35.9666852,66 30.9996034,66 C26.0326803,66 22,61.9672131 22,57 C22,52.0327869 26.0326803,48 30.9996034,48 Z" id="Fill-14" stroke-width="2"></path>
                                <path d="M46,39.4209382 C46,35.3254436 42.5282322,32 38.2504269,32 L22.7500854,32 C18.4727924,32 15,35.3254436 15,39.4209382 L15,112.580697 C15,116.676191 18.4727924,120 22.7500854,120 L38.2504269,120 C42.5282322,120 46,116.676191 46,112.580697 L46,39.4209382 Z" id="Stroke-15" stroke-width="3" stroke-linejoin="round"></path>
                                <path d="M60,8.09535801 C60,3.62629061 56.4287485,0 52.0312009,0 L7.9686338,0 C3.57059047,0 0,3.62629061 0,8.09535801 L0,24.2843952 C0,28.7534626 14.9999174,40 14.9999174,40 L44.9994216,40 C44.9994216,40 60,28.7534626 60,24.2843952 L60,8.09535801 Z" id="Stroke-16" stroke-width="3" stroke-linejoin="round"></path>
                            </g>
                        </g>
                    </g>
                    <g id="Location" transform="translate(540.000000, 0.000000)" stroke="#F7B03B">
                        <rect id="Rectangle" stroke-width="4" x="2.5" y="2" width="136" height="156" rx="40"></rect>
                        <g id="Location-Icon" transform="translate(32.500000, 20.000000)" stroke-linejoin="round">
                            <path d="M39,18 C49.2100122,18 57.5,26.2899878 57.5,36.5 C57.5,46.7113409 49.2100122,55 39,55 C28.7899878,55 20.5,46.7113409 20.5,36.5 C20.5,26.2899878 28.7899878,18 39,18 Z" id="Stroke-21" stroke-width="3"></path>
                            <path d="M5.25050942,56.2728703 C2.2238766,50.8323553 0.5,44.5731879 0.5,37.9141818 C0.5,16.9883944 17.5268473,0 38.5,0 C59.4731527,0 76.5,16.9883944 76.5,37.9141818 C76.5,44.5731879 74.7761234,50.8323553 71.7481321,56.2728703 L71.7494906,56.2728703 C71.7494906,56.2728703 56.7834162,92.2054795 47.3679798,114.809233 C46.0774497,117.908999 43.0657598,119.947498 39.7022307,119.999002 C36.3387016,120.050507 33.2658814,118.104174 31.8802595,115.046426 C21.6456762,92.4589364 5.25050942,56.2728703 5.25050942,56.2728703 Z" id="Stroke-24" stroke-width="3.5"></path>
                        </g>
                    </g>
                    <g id="WLAN" transform="translate(360.000000, 0.000000)">
                        <rect id="Rectangle" stroke="#F7B03B" stroke-width="4" fill="#F7B03B" x="2" y="2" width="136" height="156" rx="40"></rect>
                        <g id="WLAN-Icon" transform="translate(20.000000, 40.000000)" stroke="#1F1919" stroke-linecap="round" stroke-linejoin="round">
                            <g id="Group-29">
                                <path d="M21.1078652,51.8631884 C21.1078652,51.8631884 37.7629213,41.0365217 49.7382022,41.2614493 C63.0561798,41.5130435 78.8775281,51.8631884 78.8775281,51.8631884" id="Stroke-26" stroke-width="2"></path>
                                <path d="M8.06179775,38.0684058 C8.06179775,38.0684058 30.4370787,19.2173913 49.647191,19.4307246 C68.9483146,19.644058 91.4134831,38.0684058 91.4134831,38.0684058" id="Stroke-28" stroke-width="2"></path>
                                <path d="M96.7853706,31.6972582 C98.318728,30.0347534 99.1162083,27.7823275 98.9862817,25.4821016 C98.8574752,23.1818758 97.8124625,21.0413716 96.1032561,19.5758957 C87.2335282,12.0060192 69.9264142,-0.0348995324 49.5559455,7.60254248e-05 C30.2820121,0.0338857313 12.3924687,12.0666435 3.06127745,19.6155347 C1.2781474,21.0635228 0.171531516,23.2331732 0.0180837665,25.581199 C-0.134243926,27.9303907 0.681157252,30.2352799 2.26043701,31.9211018 C13.2661128,43.6635624 36.5397681,68.4880475 45.7186317,78.2777062 C46.7367631,79.3642802 48.1289934,79.9833475 49.5873071,79.9996695 C51.0456207,80.0159914 52.4501716,79.4272362 53.4907042,78.3639792 C77.1160573,54.2529955 75.8795148,54.335771 96.7853706,31.6972582 Z" id="Stroke-30" stroke-width="7"></path>
                            </g>
                        </g>
                    </g>
                    <g id="Rotation" transform="translate(181.000000, 0.000000)" stroke-width="4">
                        <rect id="Rectangle" stroke="#F7B03B" fill="#F7B03B" x="2" y="2" width="136" height="156" rx="40"></rect>
                        <g id="Rotation-Icon" transform="translate(21.000000, 22.000000)" stroke="#1F1919" stroke-linejoin="round">
                            <path d="M96,69.5007841 C96,60.9451667 89.2910554,54 81.0298154,54 L14.9686701,54 C6.70743019,54 0,60.9451667 0,69.5007841 L0,100.500784 C0,109.054833 6.70743019,116 14.9686701,116 L81.0298154,116 C89.2910554,116 96,109.054833 96,100.500784 L96,69.5007841 Z" id="Stroke-19"></path>
                            <path d="M20,54 C20,54 21.3833223,41.5764523 23.5386615,22.225192 C24.9565293,9.48470069 35.0828688,-0.0815275647 47.0611479,0.000523838159 C59.0394269,0.082575241 69.0486121,9.78716469 70.31478,22.5469623 C71.370671,33.1734233 72,39.5203407 72,39.5203407" id="Stroke-20"></path>
                        </g>
                    </g>
                </g>
                <g id="Row-1" transform="translate(583.052850, 752.528386) rotate(-270.000000) translate(-583.052850, -752.528386) translate(242.552850, 672.528386)">
                    <g id="Bluetooth" stroke="#F7B03B">
                        <rect id="Rectangle" stroke-width="4" x="2" y="2" width="136" height="156" rx="40"></rect>
                        <polyline id="Stroke-41" stroke-width="3" stroke-linecap="round" stroke-linejoin="round" points="40 50.9853658 99.937 112.463772 68.032789 139.55 68.032789 20 99.937 50.9853658 40 104.71743"></polyline>
                    </g>
                    <g id="Flight-Mode" transform="translate(361.000000, 0.000000)" stroke="#F7B03B">
                        <rect id="Rectangle" stroke-width="4" x="2" y="2" width="136" height="156" rx="40"></rect>
                        <g id="Fligh-Mode-Icon" transform="translate(19.000000, 21.000000)" stroke-linejoin="round">
                            <path d="M56.9610672,112.477207 C59.1143066,94.4686254 60.1920815,21.0810093 56.9610672,4.42281734 C55.8174475,-1.47427245 45.1829399,-1.47427245 44.0393202,4.42281734 C40.8083059,21.0810093 41.8849256,94.4686254 44.0393202,112.477207 C44.7601471,118.507598 56.2402402,118.507598 56.9610672,112.477207 Z" id="Stroke-38" stroke-width="2"></path>
                            <path d="M100,72.6995319 C100,72.6995319 66.6666667,49 50,49 C33.3333333,49 0,72.6995319 0,72.6995319 C0,76.1767115 1.80853957,79 4.03748527,79 C19.3586686,74.7996879 34.6795069,72.6995319 50,72.6995319 C65.3204931,72.6995319 80.6409537,74.7996879 95.9613816,79 C98.1903273,79 100,76.1767115 100,72.6995319 Z" id="Stroke-39" stroke-width="2" stroke-linecap="round"></path>
                            <path d="M73,119.001424 C73,119.001424 57.6670405,103.792244 50.0005607,103.792244 C42.334081,103.792244 27,119.001424 27,119.001424 C27,121.204091 27.8332643,122.991847 28.8583027,122.991847 C35.905722,118.679786 42.9531414,116.523756 50.0005607,116.523756 C57.0479801,116.523756 64.0953995,118.679786 71.1428188,122.991847 C72.1678572,122.991847 73,121.204091 73,119.001424 Z" id="Stroke-40" stroke-linecap="round"></path>
                        </g>
                    </g>
                    <g id="SIM" transform="translate(181.000000, 0.000000)">
                        <rect id="Rectangle" fill="#F7B03B" x="0" y="0" width="140" height="160" rx="40"></rect>
                        <g id="SIM-Icon" transform="translate(10.000000, 20.000000)">
                            <g id="Group-47" transform="translate(10.000000, 2.000000)">
                                <g id="Group-44">
                                    <mask id="mask-2" fill="white">
                                        <use xlink:href="#path-1"></use>
                                    </mask>
                                    <use id="Clip-43" stroke="#1F1919" stroke-width="4" xlink:href="#path-1"></use>
                                    <text id="SIM-2" mask="url(#mask-2)" font-family="Helvetica" font-size="24" font-weight="normal" letter-spacing="-0.0024" fill="#1F1919">
                                        <tspan x="19" y="64">S</tspan>
                                        <tspan x="35.0054125" y="64" letter-spacing="-0.002504348">IM 2</tspan>
                                    </text>
                                </g>
                            </g>
                        </g>
                    </g>
                    <g id="Mobile-Data" transform="translate(541.000000, 0.000000)">
                        <rect id="Rectangle" fill="#F7B03B" x="0" y="0" width="140" height="160" rx="40"></rect>
                        <g id="Mobile-Data-Icon" transform="translate(30.000000, 17.000000)" stroke="#1F1919" stroke-linejoin="round" stroke-width="4">
                            <polygon id="Stroke-32" points="23 123 40.5527667 113.461173 57 123 40.000746 39"></polygon>
                            <path d="M40,15 C46.0706593,15 51,19.9282196 51,26.0007224 C51,32.0717804 46.0706593,37 40,37 C33.9293407,37 29,32.0717804 29,26.0007224 C29,19.9282196 33.9293407,15 40,15 Z" id="Stroke-33"></path>
                            <path d="M59,8 C59,8 65.0915629,17.4818279 64.9989547,24.3235335 C64.8945867,31.9322191 59.155817,41 59.155817,41" id="Stroke-34" stroke-linecap="round"></path>
                            <path d="M21,41 C21,41 14.9069781,31.5166443 15.0010789,24.6749387 C15.1054718,17.0677809 20.845616,8 20.845616,8" id="Stroke-35" stroke-linecap="round"></path>
                            <path d="M10,49 C10,49 -0.155337481,34.9194531 0.00180507175,24.7614526 C0.175316641,13.4636704 9.73973265,0 9.73973265,0" id="Stroke-36" stroke-linecap="round"></path>
                            <path d="M70,0 C70,0 80.1537381,14.0805469 79.9982319,24.2385474 C79.8247197,35.5363296 70.2586314,49 70.2586314,49" id="Stroke-37" stroke-linecap="round"></path>
                        </g>
                    </g>
                </g>
                <g id="Presentational-Component" transform="translate(5.000000, 73.000000)">
                    <g id="Memory" transform="translate(149.000000, 121.500000) rotate(-270.000000) translate(-149.000000, -121.500000) translate(66.000000, 39.000000)">
                        <mask id="mask-4" fill="white">
                            <use xlink:href="#path-3"></use>
                        </mask>
                        <g id="Clip-61"></g>
                        <path d="M23.1509268,82.8239264 L143.098073,82.8239264" id="Stroke-60" stroke="#FFFFFF" stroke-width="2" stroke-linecap="square" mask="url(#mask-4)"></path>
                    </g>
                    <path d="M149,39 C194.257018,39 231,75.9613821 231,121.5 C231,167.028455 194.257018,204 149,204 C103.742982,204 67,167.028455 67,121.5 C67,75.9613821 103.742982,39 149,39 Z" id="Stroke-63" stroke="#FFFFFF" stroke-width="2" stroke-linecap="round" stroke-linejoin="round"></path>
                    <g id="Memory" transform="translate(376.000000, 122.000000) rotate(-270.000000) translate(-376.000000, -122.000000) translate(275.000000, 21.000000)">
                        <mask id="mask-6" fill="white">
                            <use xlink:href="#path-5"></use>
                        </mask>
                        <g id="Clip-65" transform="translate(101.343098, 100.823926) rotate(-285.000000) translate(-101.343098, -100.823926) "></g>
                        <path d="M41.365092,100.823926 L161.321104,100.823926" id="Stroke-64" stroke="#FFFFFF" stroke-width="2" stroke-linecap="square" mask="url(#mask-6)"></path>
                    </g>
                    <path d="M377,39 C422.257018,39 459,75.9613821 459,121.5 C459,167.028455 422.257018,204 377,204 C331.742982,204 295,167.028455 295,121.5 C295,75.9613821 331.742982,39 377,39 Z" id="Stroke-67" stroke="#FFFFFF" stroke-width="2" stroke-linecap="round" stroke-linejoin="round"></path>
                    <path d="M605.999495,39 C651.257245,39 688,75.9613821 688,121.5 C688,167.028455 651.257245,204 605.999495,204 C560.742755,204 524,167.028455 524,121.5 C524,75.9613821 560.742755,39 605.999495,39 Z" id="Stroke-71" stroke="#FFFFFF" stroke-width="2" stroke-linecap="round" stroke-linejoin="round"></path>
                    <g id="Memory-" transform="translate(605.500000, 121.500000) rotate(-270.000000) translate(-605.500000, -121.500000) translate(523.000000, 39.000000)">
                        <mask id="mask-8" fill="white">
                            <use xlink:href="#path-7"></use>
                        </mask>
                        <use id="Clip-69" stroke="#DF363B" stroke-width="8" xlink:href="#path-7"></use>
                        <path d="M22.589816,82.8239264 L142.54684,82.8239264" id="Stroke-68" stroke="#FFFFFF" stroke-width="2" stroke-linecap="square" mask="url(#mask-8)"></path>
                    </g>
                </g>
                <g id="Status-Bar" transform="translate(721.364399, 1371.000000) rotate(-270.000000) translate(-721.364399, -1371.000000) translate(587.364399, 1337.500000)" fill="#FFFFFF" font-family="Helvetica" font-size="28" font-weight="normal">
                    <text id="08:13" letter-spacing="0.0056">
                        <tspan x="177" y="61">08</tspan>
                        <tspan x="208.155731" y="61" letter-spacing="-0.0056">:</tspan>
                        <tspan x="215.929428" y="61">1</tspan>
                        <tspan x="231.507294" y="61" letter-spacing="-15.568">3</tspan>
                    </text>
                    <text id="Friday,2November" letter-spacing="-0.0056">
                        <tspan x="6" y="27">F</tspan>
                        <tspan x="23.0979156" y="27" letter-spacing="0.0028">r</tspan>
                        <tspan x="32.4249344" y="27" letter-spacing="0.0056">ida</tspan>
                        <tspan x="69.8069687" y="27">y</tspan>
                        <tspan x="81.7425156" y="27" letter-spacing="7.7756">,</tspan>
                        <tspan x="97.2974125" y="27" letter-spacing="7.784">2</tspan>
                        <tspan x="120.653678" y="27" letter-spacing="0.0056">No</tspan>
                        <tspan x="156.457847" y="27">v</tspan>
                        <tspan x="170.457847" y="27" letter-spacing="0.0056">e</tspan>
                        <tspan x="186.035712" y="27" letter-spacing="0.0028">m</tspan>
                        <tspan x="209.362731" y="27" letter-spacing="0.0056">be</tspan>
                        <tspan x="240.518462" y="27" letter-spacing="-9.324">r</tspan>
                    </text>
                </g>
                <g id="Media-Controls" transform="translate(189.000000, 843.028386) rotate(-270.000000) translate(-189.000000, -843.028386) translate(-61.000000, 773.028386)">
                    <g id="Previous" transform="translate(59.523983, 42.519634)" fill="#FFFFFF">
                        <path d="M1.54059322,24.6047931 C0.543474576,25.6647931 0.543474576,27.3352069 1.54059322,28.3952069 C6.09859322,33.2419655 18.2248136,46.1346724 23.9649831,52.2378966 C24.4725254,52.7770345 25.2513559,52.9488276 25.9322712,52.6701207 C26.6131864,52.3923276 27.0596441,51.7206897 27.0596441,50.9741207 C27.0596441,40.1292241 27.0596441,12.8707759 27.0596441,2.02587931 C27.0596441,1.27931034 26.6131864,0.607672414 25.9322712,0.32987931 C25.2513559,0.0511724138 24.4725254,0.222965517 23.9649831,0.762103448 C18.2248136,6.86532759 6.09859322,19.7580345 1.54059322,24.6047931 Z" id="Fill-5"></path>
                        <path d="M27.0452712,24.6047931 C26.0490508,25.6647931 26.0490508,27.3352069 27.0452712,28.3952069 C31.6041695,33.2419655 43.7303898,46.1346724 49.469661,52.2378966 C49.9772034,52.7770345 50.7560339,52.9488276 51.4369492,52.6701207 C52.1187627,52.3923276 52.5652203,51.7206897 52.5652203,50.9741207 C52.5652203,40.1292241 52.5652203,12.8707759 52.5652203,2.02587931 C52.5652203,1.27931034 52.1187627,0.607672414 51.4369492,0.32987931 C50.7560339,0.0511724138 49.9772034,0.222965517 49.469661,0.762103448 C43.7303898,6.86532759 31.6041695,19.7580345 27.0452712,24.6047931 Z" id="Fill-6"></path>
                    </g>
                    <g id="Next" transform="translate(390.523983, 42.519634)" fill="#FFFFFF">
                        <path d="M50.0995862,24.6047931 C51.0756207,25.6647931 51.0756207,27.3352069 50.0995862,28.3952069 C45.6370862,33.2419655 33.7672759,46.1346724 28.1493621,52.2378966 C27.6525517,52.7770345 26.8901897,52.9488276 26.2236724,52.6701207 C25.5562759,52.3923276 25.1192586,51.7206897 25.1192586,50.9741207 C25.1192586,40.1292241 25.1192586,12.8707759 25.1192586,2.02587931 C25.1192586,1.27931034 25.5562759,0.607672414 26.2236724,0.32987931 C26.8901897,0.0511724138 27.6525517,0.222965517 28.1493621,0.762103448 C33.7672759,6.86532759 45.6370862,19.7580345 50.0995862,24.6047931 Z" id="Fill-7"></path>
                        <path d="M25.1333276,24.6047931 C26.1093621,25.6647931 26.1093621,27.3352069 25.1333276,28.3952069 C20.6717069,33.2419655 8.80189655,46.1346724 3.18310345,52.2378966 C2.6862931,52.7770345 1.92393103,52.9488276 1.25741379,52.6701207 C0.590896552,52.3923276 0.15387931,51.7206897 0.15387931,50.9741207 C0.15387931,40.1292241 0.15387931,12.8707759 0.15387931,2.02587931 C0.15387931,1.27931034 0.590896552,0.607672414 1.25741379,0.32987931 C1.92393103,0.0511724138 2.6862931,0.222965517 3.18310345,0.762103448 C8.80189655,6.86532759 20.6717069,19.7580345 25.1333276,24.6047931 Z" id="Fill-8"></path>
                    </g>
                    <g id="Pause/Play" transform="translate(227.523983, 36.519634)" fill="#FFFFFF">
                        <path d="M17.5962245,4.13513514 C17.5962245,1.85254054 15.6625102,0 13.279898,0 L4.6472449,0 C2.26559184,0 0.330918367,1.85254054 0.330918367,4.13513514 L0.330918367,63.8648649 C0.330918367,66.1474595 2.26559184,68 4.6472449,68 L13.279898,68 C15.6625102,68 17.5962245,66.1474595 17.5962245,63.8648649 L17.5962245,4.13513514 Z" id="Fill-9"></path>
                        <path d="M46.3717347,4.13513514 C46.3717347,1.85254054 44.4380204,0 42.0554082,0 L33.4227551,0 C31.041102,0 29.1064286,1.85254054 29.1064286,4.13513514 L29.1064286,63.8648649 C29.1064286,66.1474595 31.041102,68 33.4227551,68 L42.0554082,68 C44.4380204,68 46.3717347,66.1474595 46.3717347,63.8648649 L46.3717347,4.13513514 Z" id="Fill-10"></path>
                    </g>
                    <rect id="Rectangle" stroke="#F7B03B" stroke-width="3" x="2.02398261" y="2.01963412" width="496" height="136" rx="68"></rect>
                </g>
                <g id="Settings-Icon" transform="translate(119.000000, 412.000000)" fill-rule="nonzero">
                    <path d="M75.8333333,140 L64.1666667,140 C59.3425,140 55.4166667,136.074167 55.4166667,131.25 L55.4166667,120.388333 C51.6833333,119.309167 48.09,117.81875 44.6804167,115.934583 L36.9979167,123.62 C33.6904167,126.9275 27.93,126.921667 24.6225,123.62 L16.37125,115.371667 C14.7175,113.720833 13.8075,111.521667 13.8075,109.185417 C13.8075,106.849167 14.7175,104.65 16.37125,102.999167 L24.0566667,95.3108333 C22.1754167,91.91 20.685,88.3166667 19.60875,84.5804167 L8.75,84.5804167 C3.92583333,84.5804167 0,80.6545833 0,75.8304167 L0,64.16375 C0,61.8245833 0.91,59.6283333 2.56083333,57.9775 C4.21458333,56.3266667 6.41083333,55.41375 8.75,55.41375 L19.6116667,55.41375 C20.6908333,51.68625 22.1783333,48.09 24.0625,44.6833333 L16.38,36.9979167 C12.9675,33.5854167 12.9675,28.0379167 16.38,24.6254167 L24.6283333,16.3741667 C27.9329167,13.0725 33.69625,13.0666667 37.00375,16.3741667 L44.6891667,24.0595833 C48.0958333,22.1783333 51.6891667,20.6879167 55.4166667,19.6116667 L55.4166667,8.75 C55.4166667,3.92583333 59.3425,0 64.1666667,0 L75.8333333,0 C80.6575,0 84.5833333,3.92583333 84.5833333,8.75 L84.5833333,19.6116667 C88.3166667,20.6908333 91.91,22.18125 95.3108333,24.0595833 L102.99625,16.3741667 C106.30375,13.0725 112.064167,13.0666667 115.371667,16.3741667 L123.622917,24.6225 C125.276667,26.2733333 126.186667,28.4725 126.186667,30.80875 C126.186667,33.145 125.276667,35.3441667 123.622917,36.995 L115.940417,44.6804167 C117.824583,48.0870833 119.315,51.6804167 120.39125,55.41375 L131.25,55.41375 C136.074167,55.41375 140,59.3395833 140,64.16375 L140,75.8304167 C140,78.1695833 139.09,80.3658333 137.439167,82.0166667 C135.788333,83.6675 133.589167,84.5804167 131.25,84.5804167 L120.388333,84.5804167 C119.309167,88.31375 117.81875,91.91 115.9375,95.31375 L123.62,102.999167 C127.0325,106.411667 127.0325,111.959167 123.62,115.371667 L115.371667,123.622917 C112.064167,126.9275 106.30375,126.9275 102.99625,123.622917 L95.3166667,115.9375 C91.91,117.821667 88.31375,119.309167 84.58625,120.388333 L84.58625,131.25 C84.5833333,136.074167 80.6604167,140 75.8333333,140 Z M44.2079167,109.369167 C44.73,109.369167 45.2579167,109.509167 45.7275,109.795 C49.8575,112.320833 54.32875,114.175833 59.01875,115.310417 C60.3283333,115.628333 61.25,116.797917 61.25,118.145417 L61.25,131.25 C61.25,132.86 62.5595833,134.166667 64.1666667,134.166667 L75.8333333,134.166667 C77.4404167,134.166667 78.75,132.86 78.75,131.25 L78.75,118.145417 C78.75,116.797917 79.6716667,115.628333 80.98125,115.310417 C85.6654167,114.175833 90.1366667,112.326667 94.2695833,109.797917 C95.4245833,109.095 96.9004167,109.272917 97.8541667,110.22375 L107.123333,119.495833 C108.217083,120.586667 110.15375,120.5925 111.250417,119.495833 L119.49875,111.244583 C120.63625,110.107083 120.63625,108.257917 119.49875,107.120417 L110.226667,97.8483333 C109.272917,96.8975 109.097917,95.4129167 109.800833,94.26375 C112.32375,90.1395833 114.175833,85.6683333 115.310417,80.9754167 C115.625417,79.6658333 116.797917,78.74125 118.145417,78.74125 L131.25,78.74125 C132.02875,78.74125 132.76375,78.4379167 133.315,77.8866667 C133.863333,77.3441667 134.166667,76.6120833 134.166667,75.8304167 L134.166667,64.16375 C134.166667,62.55375 132.857083,61.2470833 131.25,61.2470833 L118.145417,61.2470833 C116.797917,61.2470833 115.625417,60.3254167 115.310417,59.0129167 C114.17875,54.3258333 112.326667,49.8545833 109.800833,45.7245833 C109.097917,44.5754167 109.272917,43.0966667 110.226667,42.14 L119.49875,32.8679167 C120.04125,32.3225 120.353333,31.5729167 120.353333,30.8058333 C120.353333,30.03875 120.04125,29.28625 119.49875,28.74375 L111.2475,20.4954167 C110.145,19.3958333 108.222917,19.3958333 107.120417,20.4954167 L97.8483333,29.7675 C96.8975,30.7241667 95.41875,30.9020833 94.26375,30.1933333 C90.1425,27.6733333 85.6741667,25.8183333 80.98125,24.68375 C79.6745833,24.3716667 78.75,23.2020833 78.75,21.8545833 L78.75,8.75 C78.75,7.14 77.4404167,5.83333333 75.8333333,5.83333333 L64.1666667,5.83333333 C62.5595833,5.83333333 61.25,7.14 61.25,8.75 L61.25,21.8545833 C61.25,23.2020833 60.3283333,24.3716667 59.01875,24.6895833 C54.3345833,25.82125 49.8633333,27.6733333 45.7304167,30.1991667 C44.5783333,30.9020833 43.0995833,30.7270833 42.14875,29.7733333 L32.8766667,20.50125 C31.7741667,19.4016667 29.8520833,19.4016667 28.7495833,20.50125 L20.5041667,28.7495833 C19.3666667,29.8870833 19.3666667,31.73625 20.5041667,32.87375 L29.77625,42.1458333 C30.73,43.0966667 30.905,44.58125 30.2020833,45.7304167 C27.67625,49.8604167 25.8241667,54.3316667 24.6925,59.0158333 C24.3775,60.3254167 23.205,61.25 21.8575,61.25 L8.75,61.25 C7.97125,61.25 7.23625,61.5533333 6.685,62.1045833 C6.13666667,62.65 5.83333333,63.3820833 5.83333333,64.16375 L5.83333333,75.8304167 C5.83333333,77.4404167 7.14291667,78.7470833 8.75,78.7470833 L21.8545833,78.7470833 C23.2020833,78.7470833 24.3745833,79.66875 24.6895833,80.98125 C25.8241667,85.67125 27.67625,90.1425 30.1991667,94.2666667 C30.9020833,95.4158333 30.7270833,96.8945833 29.7733333,97.85125 L20.50125,107.12625 C19.95875,107.671667 19.6466667,108.42125 19.6466667,109.188333 C19.6466667,109.955417 19.95875,110.707917 20.50125,111.250417 L28.7525,119.49875 C29.8520833,120.598333 31.7770833,120.598333 32.8795833,119.49875 L42.14875,110.226667 C42.70875,109.660833 43.4525,109.369167 44.2079167,109.369167 Z" id="Shape" fill="#FFFFFF"></path>
                    <path d="M69.5,99 C53.2337,99 40,85.7663 40,69.5 C40,53.2337 53.2337,40 69.5,40 C85.7663,40 99,53.2337 99,69.5 C99,85.7663 85.76925,99 69.5,99 Z M69.5,45.9 C56.48755,45.9 45.9,56.48755 45.9,69.5 C45.9,82.51245 56.48755,93.1 69.5,93.1 C82.51245,93.1 93.1,82.51245 93.1,69.5 C93.1,56.48755 82.5154,45.9 69.5,45.9 Z" id="Shape" fill="#DF363B"></path>
                </g>
            </g>
            <g id="Top-Menu-Original-OLD" transform="translate(921.000000, 462.000000) rotate(-90.000000) translate(-921.000000, -462.000000) translate(547.000000, -199.000000)">
                <path d="M747.227,660 L747.227,1293.3251 C747.227,1308.0105 735.334,1319.9401 720.552,1320 L28.1388,1320 C13.4166,1320 1.4639,1308.0474 1.4639,1293.3251 L1.4639,660 L747.227,660 Z" id="Fill-1" fill="#13475E"></path>
                <path d="M721.833,1.8189894e-12 C735.905,0.06 747.227,11.41 747.227,25.39 L747.227,1098.176 L1.4639,1098.176 L1.4639,25.39 C1.4639,11.41 12.7856,0.06 26.8579,1.8189894e-12 L721.833,1.8189894e-12 Z" id="Fill-2" fill="#133240"></path>
                <rect id="Rectangle" fill="#1C1C1C" x="-4.54747351e-13" y="1.8189894e-12" width="748" height="1322" rx="7"></rect>
                <g id="Brightness" transform="translate(382.500000, 1184.147000) rotate(-180.000000) translate(-382.500000, -1184.147000) translate(113.500000, 1143.147000)">
                    <path d="M537,56.1146578 C537,51.9932058 533.688989,48.647 529.610885,48.647 L7.38911511,48.647 C3.31101137,48.647 -9.09494702e-13,51.9932058 -9.09494702e-13,56.1146578 L-9.09494702e-13,71.1793422 C-9.09494702e-13,75.3007942 3.31101137,78.647 7.38911511,78.647 L529.610885,78.647 C533.688989,78.647 537,75.3007942 537,71.1793422 L537,56.1146578 Z" id="Stroke-11" stroke="#FFFFFF" stroke-width="3" stroke-linecap="round" stroke-linejoin="round"></path>
                    <path d="M537.5,55.6474827 C537.5,51.5076874 534.16247,48.147 530.051201,48.147 L314.94784,48.147 C310.83753,48.147 307.5,51.5076874 307.5,55.6474827 L307.5,70.6465173 C307.5,74.7863126 310.83753,78.147 314.94784,78.147 L530.051201,78.147 C534.16247,78.147 537.5,74.7863126 537.5,70.6465173 L537.5,55.6474827 Z" id="Fill-12" fill="#FFFFFF"></path>
                    <path d="M307.5,81.647 L307.5,43.647" id="Stroke-13" stroke="#DF363B" stroke-width="13" stroke-linecap="round" stroke-linejoin="round"></path>
                </g>
                <text id="Switched-to-SIM-2" transform="translate(709.173104, 661.000000) rotate(-270.000000) translate(-709.173104, -661.000000) " font-family="Helvetica" font-size="30" font-weight="normal" letter-spacing="-0.002769231" fill="#FFFFFF">
                    <tspan x="588.310412" y="673.826896">Switched to SIM 2</tspan>
                </text>
                <g id="Row-2" transform="translate(375.000000, 646.000000) rotate(-270.000000) translate(-375.000000, -646.000000) translate(39.000000, 567.500000)">
                    <g id="FlashLight-" stroke="#F7B03B">
                        <rect id="Rectangle" stroke-width="4" x="2" y="2" width="134.14978" height="153" rx="40"></rect>
                        <g id="FlashLight" transform="translate(39.471366, 19.625000)">
                            <g id="FlashLight-Icon">
                                <path d="M30.589917,47.1 C35.4913545,47.1 39.4713656,51.0571721 39.4713656,55.93125 C39.4713656,60.8053279 35.4913545,64.7625 30.589917,64.7625 C25.688636,64.7625 21.7092511,60.8053279 21.7092511,55.93125 C21.7092511,51.0571721 25.688636,47.1 30.589917,47.1 Z" id="Fill-14" stroke-width="2"></path>
                                <path d="M45.3920705,38.6817956 C45.3920705,34.6630915 41.9661851,31.4 37.7449147,31.4 L22.4494235,31.4 C18.2286586,31.4 14.8017621,34.6630915 14.8017621,38.6817956 L14.8017621,110.469809 C14.8017621,114.488513 18.2286586,117.75 22.4494235,117.75 L37.7449147,117.75 C41.9661851,117.75 45.3920705,114.488513 45.3920705,110.469809 L45.3920705,38.6817956 Z" id="Stroke-15" stroke-width="3" stroke-linejoin="round"></path>
                                <path d="M59.2070485,7.94357005 C59.2070485,3.55829766 55.6829941,0 51.3435639,0 L7.86332146,0 C3.52340205,0 0,3.55829766 0,7.94357005 L0,23.8290628 C0,28.2143352 14.8016806,39.25 14.8016806,39.25 L44.4047156,39.25 C44.4047156,39.25 59.2070485,28.2143352 59.2070485,23.8290628 L59.2070485,7.94357005 Z" id="Stroke-16" stroke-width="3" stroke-linejoin="round"></path>
                            </g>
                        </g>
                    </g>
                    <g id="Location" transform="translate(532.863436, 0.000000)" stroke="#F7B03B">
                        <rect id="Rectangle" stroke-width="4" x="2.49339207" y="2" width="134.14978" height="153" rx="40"></rect>
                        <g id="Location-Icon" transform="translate(32.070485, 19.625000)" stroke-linejoin="round">
                            <path d="M38.4845815,17.6625 C48.5596596,17.6625 56.7400881,25.7970505 56.7400881,35.815625 C56.7400881,45.8355033 48.5596596,53.96875 38.4845815,53.96875 C28.4095034,53.96875 20.2290749,45.8355033 20.2290749,35.815625 C20.2290749,25.7970505 28.4095034,17.6625 38.4845815,17.6625 Z" id="Stroke-21" stroke-width="3"></path>
                            <path d="M5.18111943,55.217754 C2.19448616,49.8792487 0.49339207,43.7374406 0.49339207,37.2032909 C0.49339207,16.669862 17.295215,0 37.9911894,0 C58.6871639,0 75.4889868,16.669862 75.4889868,37.2032909 C75.4889868,43.7374406 73.7878927,49.8792487 70.7999189,55.217754 L70.8012594,55.217754 C70.8012594,55.217754 56.0329745,90.4766267 46.7419713,112.65656 C45.4684966,115.698205 42.4966088,117.698482 39.1775316,117.749021 C35.8584544,117.79956 32.8262442,115.889721 31.4589345,112.889305 C21.35961,90.7253314 5.18111943,55.217754 5.18111943,55.217754 Z" id="Stroke-24" stroke-width="3.5"></path>
                        </g>
                    </g>
                    <g id="WLAN" transform="translate(355.242291, 0.000000)">
                        <rect id="Rectangle" stroke="#F7B03B" stroke-width="4" fill="#F7B03B" x="2" y="2" width="134.14978" height="153" rx="40"></rect>
                        <g id="WLAN-Icon" transform="translate(19.735683, 39.250000)" stroke="#1F1919" stroke-linecap="round" stroke-linejoin="round">
                            <g id="Group-29">
                                <path d="M20.8289066,50.8907536 C20.8289066,50.8907536 37.2638519,40.267087 49.0808692,40.4877971 C62.2228382,40.7346739 77.8350938,50.8907536 77.8350938,50.8907536" id="Stroke-26" stroke-width="2"></path>
                                <path d="M7.95525417,37.3546232 C7.95525417,37.3546232 30.0348265,18.8570652 48.9910607,19.0663986 C68.0371034,19.2757319 90.2053754,37.3546232 90.2053754,37.3546232" id="Stroke-28" stroke-width="2"></path>
                                <path d="M95.5062688,31.1029346 C97.0193616,29.4716018 97.8063025,27.2614088 97.678093,25.0043122 C97.5509888,22.7472156 96.5197867,20.6468459 94.8331691,19.2088477 C86.0806622,11.7809063 69.0022766,-0.0342451662 48.9010211,7.45999481e-05 C29.8818093,0.0332503739 12.2286916,11.8403939 3.02082004,19.2477434 C1.26125558,20.6685818 0.169264579,22.7975512 0.017844774,25.1015515 C-0.132469777,27.4066958 0.672155174,29.6683684 2.23056339,31.3225812 C13.0907897,42.8448706 36.0568637,67.2038966 45.1144207,76.8099992 C46.1190966,77.8761999 47.4929274,78.4836598 48.9319682,78.4996757 C50.371009,78.5156916 51.7569976,77.9379755 52.7837786,76.8946546 C76.0969023,53.2357518 74.8767019,53.3169753 95.5062688,31.1029346 Z" id="Stroke-30" stroke-width="7"></path>
                            </g>
                        </g>
                    </g>
                    <g id="Rotation" transform="translate(178.607930, 0.000000)" stroke-width="4">
                        <rect id="Rectangle" stroke="#F7B03B" fill="#F7B03B" x="2" y="2" width="134.14978" height="153" rx="40"></rect>
                        <g id="Rotation-Icon" transform="translate(20.722467, 21.587500)" stroke="#1F1919" stroke-linejoin="round">
                            <path d="M94.7312775,68.1976444 C94.7312775,59.8024448 88.1109974,52.9875 79.9589368,52.9875 L14.7708463,52.9875 C6.61878574,52.9875 0,59.8024448 0,68.1976444 L0,98.6163944 C0,107.010055 6.61878574,113.825 14.7708463,113.825 L79.9589368,113.825 C88.1109974,113.825 94.7312775,107.010055 94.7312775,98.6163944 L94.7312775,68.1976444 Z" id="Stroke-19"></path>
                            <path d="M19.7356828,52.9875 C19.7356828,52.9875 21.1007233,40.7968938 23.2275779,21.8084697 C24.6267073,9.30686256 34.6192185,-0.0799989228 46.4391944,0.000514016194 C58.2591702,0.0810269552 68.1360754,9.60365535 69.3855098,22.1242067 C70.4274463,32.5514217 71.0484581,38.7793343 71.0484581,38.7793343" id="Stroke-20"></path>
                        </g>
                    </g>
                </g>
                <g id="Row-1" transform="translate(573.000000, 646.000000) rotate(-270.000000) translate(-573.000000, -646.000000) translate(237.000000, 567.500000)">
                    <g id="Bluetooth" stroke="#F7B03B">
                        <rect id="Rectangle" stroke-width="4" x="2" y="2" width="134.14978" height="153" rx="40"></rect>
                        <polyline id="Stroke-41" stroke-width="3" stroke-linecap="round" stroke-linejoin="round" points="39.4713656 50.0293902 98.6162467 110.355076 67.1336773 136.933438 67.1336773 19.625 98.6162467 50.0293902 39.4713656 102.753978"></polyline>
                    </g>
                    <g id="Flight-Mode" transform="translate(356.229075, 0.000000)" stroke="#F7B03B">
                        <rect id="Rectangle" stroke-width="4" x="2" y="2" width="134.14978" height="153" rx="40"></rect>
                        <g id="Fligh-Mode-Icon" transform="translate(18.748899, 20.606250)" stroke-linejoin="round">
                            <path d="M56.2082777,110.36826 C58.3330603,92.6973387 59.3965914,20.6857404 56.2082777,4.33988951 C55.079772,-1.44662984 44.5858085,-1.44662984 43.4573028,4.33988951 C40.2689891,20.6857404 41.3313803,92.6973387 43.4573028,110.36826 C44.1686034,116.28558 55.4969772,116.28558 56.2082777,110.36826 Z" id="Stroke-38" stroke-width="2"></path>
                            <path d="M98.6784141,71.3364157 C98.6784141,71.3364157 65.7856094,48.08125 49.339207,48.08125 C32.8928047,48.08125 0,71.3364157 0,71.3364157 C0,74.7483982 1.78463817,77.51875 3.98412643,77.51875 C19.1028272,73.3971938 34.2211874,71.3364157 49.339207,71.3364157 C64.4572267,71.3364157 79.5752142,73.3971938 94.6931695,77.51875 C96.8926577,77.51875 98.6784141,74.7483982 98.6784141,71.3364157 Z" id="Stroke-39" stroke-width="2" stroke-linecap="round"></path>
                            <path d="M72.0352423,116.770148 C72.0352423,116.770148 56.904921,101.84614 49.3397604,101.84614 C41.7745997,101.84614 26.6431718,116.770148 26.6431718,116.770148 C26.6431718,118.931514 27.4654238,120.685749 28.4769154,120.685749 C35.4311971,116.45454 42.3854787,114.338935 49.3397604,114.338935 C56.294042,114.338935 63.2483237,116.45454 70.2026054,120.685749 C71.214097,120.685749 72.0352423,118.931514 72.0352423,116.770148 Z" id="Stroke-40" stroke-linecap="round"></path>
                        </g>
                    </g>
                    <g id="SIM" transform="translate(178.607930, 0.000000)">
                        <rect id="Rectangle" fill="#F7B03B" x="0" y="0" width="138.14978" height="157" rx="40"></rect>
                        <g id="SIM-Icon" transform="translate(9.867841, 19.625000)">
                            <g id="Group-47" transform="translate(9.867841, 1.962500)">
                                <g id="Group-44">
                                    <mask id="mask-10" fill="white">
                                        <use xlink:href="#path-9"></use>
                                    </mask>
                                    <use id="Clip-43" stroke="#1F1919" stroke-width="4" xlink:href="#path-9"></use>
                                    <text id="SIM-2" mask="url(#mask-10)" font-family="Helvetica" font-size="24" font-weight="normal" letter-spacing="-0.0024" fill="#1F1919">
                                        <tspan x="16" y="64">S</tspan>
                                        <tspan x="32.0054125" y="64" letter-spacing="-0.002504348">IM 2</tspan>
                                    </text>
                                </g>
                            </g>
                        </g>
                    </g>
                    <g id="Mobile-Data" transform="translate(533.850220, 0.000000)">
                        <rect id="Rectangle" fill="#F7B03B" x="0" y="0" width="138.14978" height="157" rx="40"></rect>
                        <g id="Mobile-Data-Icon" transform="translate(29.603524, 16.681250)" stroke="#1F1919" stroke-linejoin="round" stroke-width="4">
                            <polygon id="Stroke-32" points="22.6960352 120.69375 40.016827 111.333776 56.246696 120.69375 39.4721018 38.26875"></polygon>
                            <path d="M39.4713656,14.71875 C45.461796,14.71875 50.3259912,19.5545655 50.3259912,25.5132089 C50.3259912,31.4704345 45.461796,36.30625 39.4713656,36.30625 C33.4809353,36.30625 28.6167401,31.4704345 28.6167401,25.5132089 C28.6167401,19.5545655 33.4809353,14.71875 39.4713656,14.71875 Z" id="Stroke-33"></path>
                            <path d="M58.2202643,7.85 C58.2202643,7.85 64.231322,17.1540436 64.1399377,23.8674672 C64.036949,31.33349 58.3740221,40.23125 58.3740221,40.23125" id="Stroke-34" stroke-linecap="round"></path>
                            <path d="M20.722467,40.23125 C20.722467,40.23125 14.7099696,30.9257072 14.8028267,24.2122836 C14.9058401,16.74776 20.5701233,7.85 20.5701233,7.85" id="Stroke-35" stroke-linecap="round"></path>
                            <path d="M9.86784141,48.08125 C9.86784141,48.08125 -0.153284563,34.2647134 0.00178121617,24.2971753 C0.172999681,13.2112266 9.61101371,0 9.61101371,0" id="Stroke-36" stroke-linecap="round"></path>
                            <path d="M69.0748899,0 C69.0748899,0 79.0944376,13.8165366 78.9409865,23.7840747 C78.7697674,34.8700234 69.3301032,48.08125 69.3301032,48.08125" id="Stroke-37" stroke-linecap="round"></path>
                        </g>
                    </g>
                </g>
                <g id="Settings-Icon" transform="translate(112.000000, 310.000000)" fill-rule="nonzero">
                    <path d="M75.8403355,139.744383 L64.2570021,139.744383 C59.4672938,139.744383 55.5695021,135.846591 55.5695021,131.056883 L55.5695021,120.2728 C51.8628355,119.201341 48.2951688,117.721571 44.9099396,115.850862 L37.2823146,123.481383 C33.9984396,126.765258 28.2791688,126.759466 24.9952938,123.481383 L16.8029813,115.291966 C15.1610438,113.652925 14.2575438,111.469466 14.2575438,109.149904 C14.2575438,106.830341 15.1610438,104.646883 16.8029813,103.007841 L24.4335021,95.3744248 C22.5656896,91.9978831 21.0859188,88.4302164 20.0173563,84.7206539 L9.23616879,84.7206539 C4.44646046,84.7206539 0.548668795,80.8228623 0.548668795,76.0331539 L0.548668795,64.4498206 C0.548668795,62.1273623 1.45216879,59.9467998 3.09121046,58.3077581 C4.73314796,56.6687164 6.91371046,55.7623206 9.23616879,55.7623206 L20.0202521,55.7623206 C21.0917105,52.0614456 22.5685855,48.4908831 24.4392938,45.1085498 L16.8116688,37.4780289 C13.4235438,34.0899039 13.4235438,28.5820289 16.8116688,25.1939039 L25.0010855,17.0015914 C28.2820646,13.7235081 34.0042313,13.7177164 37.2881063,17.0015914 L44.9186271,24.6321123 C48.3009605,22.7642998 51.8686271,21.2845289 55.5695021,20.2159664 L55.5695021,9.43188311 C55.5695021,4.64217478 59.4672938,0.744383114 64.2570021,0.744383114 L75.8403355,0.744383114 C80.6300438,0.744383114 84.5278355,4.64217478 84.5278355,9.43188311 L84.5278355,20.2159664 C88.2345021,21.2874248 91.8021688,22.7671956 95.1787105,24.6321123 L102.809231,17.0015914 C106.093106,13.7235081 111.812377,13.7177164 115.096252,17.0015914 L123.288565,25.1910081 C124.930502,26.8300498 125.834002,29.0135081 125.834002,31.3330706 C125.834002,33.6526331 124.930502,35.8360914 123.288565,37.4751331 L115.66094,45.1056539 C117.531648,48.4879873 119.011419,52.0556539 120.079981,55.7623206 L130.861169,55.7623206 C135.650877,55.7623206 139.548669,59.6601123 139.548669,64.4498206 L139.548669,76.0331539 C139.548669,78.3556123 138.645169,80.5361748 137.006127,82.1752164 C135.367085,83.8142581 133.183627,84.7206539 130.861169,84.7206539 L120.077085,84.7206539 C119.005627,88.4273206 117.525856,91.9978831 115.658044,95.3773206 L123.285669,103.007841 C126.673794,106.395966 126.673794,111.903841 123.285669,115.291966 L115.096252,123.484279 C111.812377,126.765258 106.093106,126.765258 102.809231,123.484279 L95.1845021,115.853758 C91.8021688,117.724466 88.2316063,119.201341 84.5307313,120.2728 L84.5307313,131.056883 C84.5278355,135.846591 80.6329396,139.744383 75.8403355,139.744383 Z M44.4408146,109.332341 C44.9591688,109.332341 45.4833146,109.471341 45.9495438,109.755133 C50.0500438,112.262925 54.4893563,114.104675 59.1458563,115.231154 C60.4460855,115.5468 61.3611688,116.708029 61.3611688,118.045904 L61.3611688,131.056883 C61.3611688,132.655383 62.661398,133.952716 64.2570021,133.952716 L75.8403355,133.952716 C77.4359396,133.952716 78.7361688,132.655383 78.7361688,131.056883 L78.7361688,118.045904 C78.7361688,116.708029 79.6512521,115.5468 80.9514813,115.231154 C85.6021896,114.104675 90.0415021,112.268716 94.144898,109.758029 C95.291648,109.060133 96.7569396,109.236779 97.7038771,110.180821 L106.906835,119.386675 C107.992773,120.469716 109.915606,120.475508 111.00444,119.386675 L119.193856,111.194362 C120.323231,110.064987 120.323231,108.229029 119.193856,107.099654 L109.988002,97.8937998 C109.041065,96.9497581 108.867315,95.4757789 109.56521,94.3348206 C112.070106,90.2401123 113.90896,85.8007998 115.03544,81.1414039 C115.34819,79.8411748 116.512315,78.9231956 117.85019,78.9231956 L130.861169,78.9231956 C131.634356,78.9231956 132.364106,78.6220289 132.911419,78.0747164 C133.455835,77.5360914 133.757002,76.8092373 133.757002,76.0331539 L133.757002,64.4498206 C133.757002,62.8513206 132.456773,61.5539873 130.861169,61.5539873 L117.85019,61.5539873 C116.512315,61.5539873 115.34819,60.6389039 115.03544,59.3357789 C113.911856,54.6821748 112.073002,50.2428623 109.56521,46.1423623 C108.867315,45.0014039 109.041065,43.5332164 109.988002,42.5833831 L119.193856,33.3775289 C119.732481,32.8360081 120.042335,32.0917789 120.042335,31.3301748 C120.042335,30.5685706 119.732481,29.8214456 119.193856,29.2828206 L111.001544,21.0934039 C109.906919,20.0016748 107.998565,20.0016748 106.90394,21.0934039 L97.6980855,30.2992581 C96.7540438,31.2490914 95.2858563,31.4257373 94.1391063,30.7220498 C90.0472938,28.2200498 85.6108771,26.3782998 80.9514813,25.2518206 C79.654148,24.9419664 78.7361688,23.7807373 78.7361688,22.4428623 L78.7361688,9.43188311 C78.7361688,7.83338311 77.4359396,6.53604978 75.8403355,6.53604978 L64.2570021,6.53604978 C62.661398,6.53604978 61.3611688,7.83338311 61.3611688,9.43188311 L61.3611688,22.4428623 C61.3611688,23.7807373 60.4460855,24.9419664 59.1458563,25.2576123 C54.495148,26.3811956 50.0558355,28.2200498 45.9524396,30.7278414 C44.8085855,31.4257373 43.340398,31.2519873 42.3963563,30.3050498 L33.1905021,21.0991956 C32.0958771,20.0074664 30.187523,20.0074664 29.092898,21.0991956 L20.9063771,29.2886123 C19.7770021,30.4179873 19.7770021,32.2539456 20.9063771,33.3833206 L30.1122313,42.5891748 C31.0591688,43.5332164 31.2329188,45.0071956 30.535023,46.1481539 C28.0272313,50.2486539 26.1883771,54.6879664 25.0647938,59.3386748 C24.7520438,60.6389039 23.5879188,61.5568831 22.2500438,61.5568831 L9.23616879,61.5568831 C8.46298129,61.5568831 7.73323129,61.8580498 7.18591879,62.4053623 C6.64150213,62.9468831 6.34033546,63.6737373 6.34033546,64.4498206 L6.34033546,76.0331539 C6.34033546,77.6316539 7.64056463,78.9289873 9.23616879,78.9289873 L22.247148,78.9289873 C23.585023,78.9289873 24.749148,79.8440706 25.061898,81.1471956 C26.1883771,85.8036956 28.0272313,90.2430081 30.5321271,94.3377164 C31.230023,95.4786748 31.056273,96.9468623 30.1093355,97.8966956 L20.9034813,107.105446 C20.3648563,107.646966 20.0550021,108.391196 20.0550021,109.1528 C20.0550021,109.914404 20.3648563,110.661529 20.9034813,111.200154 L29.0957938,119.389571 C30.187523,120.4813 32.098773,120.4813 33.193398,119.389571 L42.3963563,110.183716 C42.9523563,109.621925 43.6907938,109.332341 44.4408146,109.332341 Z" id="Shape" fill="#FFFFFF"></path>
                    <path d="M70.5,100 C54.2337,100 41,86.7663 41,70.5 C41,54.2337 54.2337,41 70.5,41 C86.7663,41 100,54.2337 100,70.5 C100,86.7663 86.76925,100 70.5,100 Z M70.5,46.9 C57.48755,46.9 46.9,57.48755 46.9,70.5 C46.9,83.51245 57.48755,94.1 70.5,94.1 C83.51245,94.1 94.1,83.51245 94.1,70.5 C94.1,57.48755 83.5154,46.9 70.5,46.9 Z" id="Shape" fill="#DF363B"></path>
                </g>
                <g id="Presentational-Component" transform="translate(56.000000, 51.000000)">
                    <g id="Memory" transform="translate(68.000000, 97.500000) rotate(-270.000000) translate(-68.000000, -97.500000) translate(1.000000, 31.000000)">
                        <mask id="mask-12" fill="white">
                            <use xlink:href="#path-11"></use>
                        </mask>
                        <g id="Clip-61"></g>
                        <path d="M18.6880976,66.7611043 L115.512902,66.7611043" id="Stroke-60" stroke="#FFFFFF" stroke-width="2" stroke-linecap="square" mask="url(#mask-12)"></path>
                    </g>
                    <path d="M66.5,31 C103.202338,31 133,60.7931141 133,97.5 C133,134.198694 103.202338,164 66.5,164 C29.797662,164 0,134.198694 0,97.5 C0,60.7931141 29.797662,31 66.5,31 Z" id="Stroke-63" stroke="#FFFFFF" stroke-width="2" stroke-linecap="round" stroke-linejoin="round"></path>
                    <g id="Memory" transform="translate(318.000000, 98.000000) rotate(-270.000000) translate(-318.000000, -98.000000) translate(227.000000, 7.000000)">
                        <mask id="mask-14" fill="white">
                            <use xlink:href="#path-13"></use>
                        </mask>
                        <g id="Clip-65" transform="translate(91.373528, 90.761104) rotate(-150.000000) translate(-91.373528, -90.761104) "></g>
                        <path d="M43.0276196,90.7611043 L139.719436,90.7611043" id="Stroke-64" stroke="#FFFFFF" stroke-width="2" stroke-linecap="square" mask="url(#mask-14)"></path>
                    </g>
                    <path d="M318.5,31 C355.202338,31 385,60.7931141 385,97.5 C385,134.198694 355.202338,164 318.5,164 C281.797662,164 252,134.198694 252,97.5 C252,60.7931141 281.797662,31 318.5,31 Z" id="Stroke-67" stroke="#FFFFFF" stroke-width="2" stroke-linecap="round" stroke-linejoin="round"></path>
                    <g id="Memory-" transform="translate(570.500000, 97.500000) rotate(-270.000000) translate(-570.500000, -97.500000) translate(504.000000, 31.000000)">
                        <mask id="mask-16" fill="white">
                            <use xlink:href="#path-15"></use>
                        </mask>
                        <use id="Clip-69" stroke="#CAB16D" stroke-width="8" xlink:href="#path-15"></use>
                        <path d="M18.2087607,66.7611043 L114.901393,66.7611043" id="Stroke-68" stroke="#FFFFFF" stroke-width="2" stroke-linecap="square" mask="url(#mask-16)"></path>
                    </g>
                    <path d="M570.49959,31 C607.202522,31 637,60.7931141 637,97.5 C637,134.198694 607.202522,164 570.49959,164 C533.797478,164 504,134.198694 504,97.5 C504,60.7931141 533.797478,31 570.49959,31 Z" id="Stroke-71" stroke="#FFFFFF" stroke-width="2" stroke-linecap="round" stroke-linejoin="round"></path>
                </g>
                <g id="Media-Controls" transform="translate(183.000000, 735.500000) rotate(-270.000000) translate(-183.000000, -735.500000) translate(-63.500000, 666.500000)">
                    <g id="Previous" transform="translate(57.737831, 42.572357)" fill="#FFFFFF">
                        <path d="M1.56966102,24.6047931 C0.553728814,25.6647931 0.553728814,27.3352069 1.56966102,28.3952069 C6.21366102,33.2419655 18.568678,46.1346724 24.4171525,52.2378966 C24.9342712,52.7770345 25.7277966,52.9488276 26.4215593,52.6701207 C27.115322,52.3923276 27.5702034,51.7206897 27.5702034,50.9741207 C27.5702034,40.1292241 27.5702034,12.8707759 27.5702034,2.02587931 C27.5702034,1.27931034 27.115322,0.607672414 26.4215593,0.32987931 C25.7277966,0.0511724138 24.9342712,0.222965517 24.4171525,0.762103448 C18.568678,6.86532759 6.21366102,19.7580345 1.56966102,24.6047931 Z" id="Fill-5"></path>
                        <path d="M27.5555593,24.6047931 C26.5405424,25.6647931 26.5405424,27.3352069 27.5555593,28.3952069 C32.2004746,33.2419655 44.5554915,46.1346724 50.4030508,52.2378966 C50.9201695,52.7770345 51.7136949,52.9488276 52.4074576,52.6701207 C53.1021356,52.3923276 53.5570169,51.7206897 53.5570169,50.9741207 C53.5570169,40.1292241 53.5570169,12.8707759 53.5570169,2.02587931 C53.5570169,1.27931034 53.1021356,0.607672414 52.4074576,0.32987931 C51.7136949,0.0511724138 50.9201695,0.222965517 50.4030508,0.762103448 C44.5554915,6.86532759 32.2004746,19.7580345 27.5555593,24.6047931 Z" id="Fill-6"></path>
                    </g>
                    <g id="Next" transform="translate(384.737831, 42.572357)" fill="#FFFFFF">
                        <path d="M52.0642759,24.6047931 C53.0785862,25.6647931 53.0785862,27.3352069 52.0642759,28.3952069 C47.4267759,33.2419655 35.0914828,46.1346724 29.2532586,52.2378966 C28.7369655,52.7770345 27.9447069,52.9488276 27.2520517,52.6701207 C26.5584828,52.3923276 26.1043276,51.7206897 26.1043276,50.9741207 C26.1043276,40.1292241 26.1043276,12.8707759 26.1043276,2.02587931 C26.1043276,1.27931034 26.5584828,0.607672414 27.2520517,0.32987931 C27.9447069,0.0511724138 28.7369655,0.222965517 29.2532586,0.762103448 C35.0914828,6.86532759 47.4267759,19.7580345 52.0642759,24.6047931 Z" id="Fill-7"></path>
                        <path d="M26.1189483,24.6047931 C27.1332586,25.6647931 27.1332586,27.3352069 26.1189483,28.3952069 C21.4823621,33.2419655 9.14706897,46.1346724 3.30793103,52.2378966 C2.79163793,52.7770345 1.99937931,52.9488276 1.30672414,52.6701207 C0.614068966,52.3923276 0.159913793,51.7206897 0.159913793,50.9741207 C0.159913793,40.1292241 0.159913793,12.8707759 0.159913793,2.02587931 C0.159913793,1.27931034 0.614068966,0.607672414 1.30672414,0.32987931 C1.99937931,0.0511724138 2.79163793,0.222965517 3.30793103,0.762103448 C9.14706897,6.86532759 21.4823621,19.7580345 26.1189483,24.6047931 Z" id="Fill-8"></path>
                    </g>
                    <g id="Pause/Play" transform="translate(224.737831, 34.572357)" fill="#FFFFFF">
                        <path d="M16.847449,4.13513514 C16.847449,1.85254054 14.9960204,0 12.7147959,0 L4.4494898,0 C2.16918367,0 0.316836735,1.85254054 0.316836735,4.13513514 L0.316836735,63.8648649 C0.316836735,66.1474595 2.16918367,68 4.4494898,68 L12.7147959,68 C14.9960204,68 16.847449,66.1474595 16.847449,63.8648649 L16.847449,4.13513514 Z" id="Fill-9"></path>
                        <path d="M44.3984694,4.13513514 C44.3984694,1.85254054 42.5470408,0 40.2658163,0 L32.0005102,0 C29.7202041,0 27.8678571,1.85254054 27.8678571,4.13513514 L27.8678571,63.8648649 C27.8678571,66.1474595 29.7202041,68 32.0005102,68 L40.2658163,68 C42.5470408,68 44.3984694,66.1474595 44.3984694,63.8648649 L44.3984694,4.13513514 Z" id="Fill-10"></path>
                    </g>
                    <rect id="Rectangle" stroke="#F7B03B" stroke-width="3" x="2.2378308" y="2.07235737" width="489" height="134" rx="67"></rect>
                </g>
                <g id="Status-Bar" transform="translate(711.058705, 1166.476017) rotate(-270.000000) translate(-711.058705, -1166.476017) translate(577.058705, 1132.976017)" fill="#FFFFFF" font-family="Helvetica" font-size="28" font-weight="normal">
                    <text id="08:13" letter-spacing="0.0056">
                        <tspan x="177" y="61">08</tspan>
                        <tspan x="208.155731" y="61" letter-spacing="-0.0056">:</tspan>
                        <tspan x="215.929428" y="61">1</tspan>
                        <tspan x="231.507294" y="61" letter-spacing="-15.568">3</tspan>
                    </text>
                    <text id="Friday,2November" letter-spacing="-0.0056">
                        <tspan x="6" y="27">F</tspan>
                        <tspan x="23.0979156" y="27" letter-spacing="0.0028">r</tspan>
                        <tspan x="32.4249344" y="27" letter-spacing="0.0056">ida</tspan>
                        <tspan x="69.8069687" y="27">y</tspan>
                        <tspan x="81.7425156" y="27" letter-spacing="7.7756">,</tspan>
                        <tspan x="97.2974125" y="27" letter-spacing="7.784">2</tspan>
                        <tspan x="120.653678" y="27" letter-spacing="0.0056">No</tspan>
                        <tspan x="156.457847" y="27">v</tspan>
                        <tspan x="170.457847" y="27" letter-spacing="0.0056">e</tspan>
                        <tspan x="186.035712" y="27" letter-spacing="0.0028">m</tspan>
                        <tspan x="209.362731" y="27" letter-spacing="0.0056">be</tspan>
                        <tspan x="240.518462" y="27" letter-spacing="-9.324">r</tspan>
                    </text>
                </g>
            </g>
            <text id="16:9" font-family="Helvetica" font-size="62" font-weight="normal" letter-spacing="-0.01176" fill="#4A4A4A">
                <tspan x="883.688559" y="75">16:9</tspan>
            </text>
            <text id="18:9" font-family="Helvetica" font-size="62" font-weight="normal" letter-spacing="-0.01176" fill="#4A4A4A">
                <tspan x="883.688559" y="991.29967">18:9</tspan>
            </text>
        </g>
    </g>
</svg>