<?xml version="1.0" encoding="UTF-8" standalone="no"?>
<!DOCTYPE svg PUBLIC "-//W3C//DTD SVG 1.1//EN" "http://www.w3.org/Graphics/SVG/1.1/DTD/svg11.dtd">
<svg width="100%" height="100%" viewBox="0 0 1800 1779" version="1.1" xmlns="http://www.w3.org/2000/svg" xmlns:xlink="http://www.w3.org/1999/xlink" xml:space="preserve" xmlns:serif="http://www.serif.com/" style="fill-rule:evenodd;clip-rule:evenodd;stroke-miterlimit:10;">
    <g transform="matrix(1,0,0,1,-130.45,-285.95)">
        <g transform="matrix(1,0,0,1,120,-2)">
            <g transform="matrix(1,0,0,1,20.5,298)">
                <clipPath id="_clip1">
                    <path d="M-20.5,-20.5L854.5,-20.5L854.5,1778.5L-20.5,1778.5L-20.5,-20.5ZM0,0.5L834,0.5L833.5,0L833.5,1758L834,1757.5L0,1757.5L0.5,1758L0.5,0L0,0.5ZM0,-0.5L-0.5,-0.5L-0.5,1758.5L834.5,1758.5L834.5,1758L834.5,0L834.5,-0.5L834,-0.5L0,-0.5ZM60,133.5C43.155,133.5 29.5,147.155 29.5,164L29.5,1621C29.5,1637.85 43.155,1651.5 60,1651.5L773,1651.5C789.845,1651.5 803.5,1637.85 803.5,1621L803.5,164C803.5,147.155 789.845,133.5 773,133.5L60,133.5ZM60,134.5L773,134.5C789.292,134.5 802.5,147.708 802.5,164L802.5,1621C802.5,1637.29 789.292,1650.5 773,1650.5L60,1650.5C43.708,1650.5 30.5,1637.29 30.5,1621L30.5,164C30.5,147.708 43.708,134.5 60,134.5Z"/>
                </clipPath>
                <g clip-path="url(#_clip1)">
                    <clipPath id="_clip2">
                        <path d="M0,0L834,0L834,1758L0,1758L0,0ZM60,134C43.431,134 30,147.431 30,164L30,1621C30,1637.57 43.431,1651 60,1651L773,1651C789.569,1651 803,1637.57 803,1621L803,164C803,147.431 789.569,134 773,134L60,134Z"/>
                    </clipPath>
                    <g clip-path="url(#_clip2)">
                        <path d="M0,0L834,0L834,1758L0,1758L0,0ZM60,134C43.431,134 30,147.431 30,164L30,1621C30,1637.57 43.431,1651 60,1651L773,1651C789.569,1651 803,1637.57 803,1621L803,164C803,147.431 789.569,134 773,134L60,134Z" style="fill:rgb(216,216,216);fill-rule:nonzero;"/>
                    </g>
                </g>
            </g>
            <g transform="matrix(1,0,0,-1,20.5,2056)">
                <clipPath id="_clip3">
                    <path d="M0,1758L834,1758L834,0L0,0L0,1758ZM60,1624C43.431,1624 30,1610.57 30,1594L30,137C30,120.431 43.431,107 60,107L773,107C789.569,107 803,120.431 803,137L803,1594C803,1610.57 789.569,1624 773,1624L60,1624Z"/>
                </clipPath>
                <g clip-path="url(#_clip3)">
                    <path d="M0,1758L834,1758L834,0L0,0L0,1758ZM60,1624C43.431,1624 30,1610.57 30,1594L30,137C30,120.431 43.431,107 60,107L773,107C789.569,107 803,120.431 803,137L803,1594C803,1610.57 789.569,1624 773,1624L60,1624Z" style="fill:none;stroke:rgb(151,151,151);stroke-width:2px;"/>
                </g>
            </g>
            <g transform="matrix(1,0,0,1,20.5,325)">
                <path d="M60,107L773,107C789.569,107 803,120.431 803,137L803,1594C803,1610.57 789.569,1624 773,1624L60,1624C43.431,1624 30,1610.57 30,1594L30,137C30,120.431 43.431,107 60,107Z" style="fill:rgb(17,56,63);"/>
            </g>
            <g transform="matrix(1,0,0,1,20.5,298)">
                <g opacity="0.6005">
                    <g>
                        <clipPath id="_clip4">
                            <rect x="61" y="483" width="774" height="1255" clip-rule="nonzero"/>
                        </clipPath>
                        <g clip-path="url(#_clip4)">
                            <g transform="matrix(1,0,0,1,0,462.742)">
                                <clipPath id="_clip5">
                                    <path d="M833.743,1141.09C827.358,1153.69 804.289,1175.36 764.537,1206.1C704.909,1252.22 554.991,1290.44 361.759,1266.8C168.527,1243.15 133.664,1114.27 99.953,1058.51C66.243,1002.75 34.227,535.546 99.953,417.906C106.999,405.296 128.624,385.09 164.83,357.289C181.181,344.734 193.251,327.432 199.39,307.753C214.5,259.313 227.661,225.005 238.874,204.829C319.098,60.476 517.473,1.254 834,27.163L834,897.011C833.917,897.471 833.831,897.932 833.743,898.393L833.743,1141.09Z"/>
                                </clipPath>
                                <g clip-path="url(#_clip5)">
                                    <rect x="61" y="20.258" width="774" height="1255" style="fill:rgb(255,132,0);"/>
                                </g>
                            </g>
                            <g transform="matrix(1,0,0,-1,61.7431,1733.19)">
                                <path d="M772,129.356C765.615,116.761 742.546,95.091 702.794,64.344C643.166,18.223 493.248,-19.995 300.016,3.649C106.784,27.294 71.921,156.181 38.21,211.938C4.499,267.694 -27.516,734.9 38.21,852.54C45.256,865.151 66.881,885.356 103.087,913.158C119.438,925.713 131.508,943.015 137.647,962.694C152.757,1011.13 165.918,1045.44 177.131,1065.62C257.355,1209.97 455.73,1269.19 772.257,1243.28L772.257,373.436C772.174,372.976 772.088,372.515 772,372.054L772,129.356Z" style="fill:none;stroke:rgb(151,151,151);stroke-width:1px;"/>
                            </g>
                        </g>
                    </g>
                </g>
            </g>
            <g transform="matrix(1,0,0,1,20.5,298)">
                <g opacity="0.8992">
                    <g>
                        <clipPath id="_clip6">
                            <rect x="159" y="703" width="676" height="965" clip-rule="nonzero"/>
                        </clipPath>
                        <g clip-path="url(#_clip6)">
                            <g transform="matrix(1,0,0,1,0,613.485)">
                                <clipPath id="_clip7">
                                    <path d="M833.146,492.144L833.146,813.606C778.61,899.456 718.888,960.421 653.978,996.501C556.614,1050.62 307.904,1086.48 228.735,1008.51C149.567,930.539 136.537,761.709 202.539,504.716C225.689,414.576 294.845,334.661 410.007,264.971C510.038,164.821 651.369,106.802 834,90.915L834,489.914C833.715,490.658 833.43,491.401 833.146,492.144Z"/>
                                </clipPath>
                                <g clip-path="url(#_clip7)">
                                    <rect x="159" y="89.515" width="676" height="965" style="fill:rgb(115,219,95);"/>
                                </g>
                            </g>
                            <g transform="matrix(1,0,0,-1,160.208,1699.96)">
                                <path d="M672.937,594.336L672.937,272.873C618.402,187.023 558.679,126.058 493.77,89.978C396.406,35.858 147.695,0 68.527,77.97C-10.641,155.941 -23.672,324.77 42.33,581.763C65.48,671.903 134.636,751.819 249.798,821.509C349.83,921.658 491.161,979.676 673.792,995.563L673.792,596.565C673.507,595.821 673.222,595.078 672.937,594.336Z" style="fill:none;stroke:rgb(151,151,151);stroke-width:1px;"/>
                            </g>
                        </g>
                    </g>
                </g>
            </g>
            <g id="Swipe">
                <g transform="matrix(0.838843,0,0,0.838843,98.8265,234.219)">
                    <path d="M782,1140C522.895,1237.65 376.366,1412.58 334,1659" style="fill:none;stroke:rgb(217,217,217);stroke-width:17.88px;stroke-linecap:round;stroke-linejoin:round;stroke-miterlimit:1.5;"/>
                </g>
                <g id="Location--filled-" serif:id="Location (filled)" transform="matrix(2.23953,1.02232,-1.02232,2.23953,781.772,-121.368)">
                    <path d="M230.3,470.5L184.3,490.5L210.3,490.5L210.3,514.5L230.3,470.5Z" style="fill:rgb(242,242,242);fill-rule:nonzero;"/>
                </g>
                <g id="Location--filled-1" serif:id="Location (filled)" transform="matrix(-1.95116,1.50121,-1.50121,-1.95116,1524.58,2272.89)">
                    <path d="M230.3,470.5L184.3,490.5L210.3,490.5L210.3,514.5L230.3,470.5Z" style="fill:rgb(242,242,242);fill-rule:nonzero;"/>
                </g>
            </g>
            <g transform="matrix(1,0,0,1,-942.191,-7.92025)">
                <path d="M1106.02,398L1106.02,332.045L1114.97,332.045L1149.61,383.828L1149.61,332.045L1157.98,332.045L1157.98,398L1149.03,398L1114.39,346.172L1114.39,398L1106.02,398Z" style="fill:rgb(77,77,77);fill-rule:nonzero;"/>
                <path d="M1202.79,392.106C1199.79,394.656 1196.9,396.455 1194.13,397.505C1191.36,398.555 1188.38,399.08 1185.2,399.08C1179.95,399.08 1175.92,397.798 1173.1,395.233C1170.28,392.669 1168.87,389.392 1168.87,385.403C1168.87,383.063 1169.4,380.926 1170.47,378.992C1171.53,377.057 1172.93,375.505 1174.65,374.335C1176.38,373.166 1178.32,372.281 1180.48,371.681C1182.07,371.261 1184.47,370.856 1187.67,370.466C1194.21,369.686 1199.03,368.757 1202.12,367.677C1202.15,366.567 1202.16,365.862 1202.16,365.562C1202.16,362.263 1201.4,359.939 1199.87,358.589C1197.8,356.759 1194.72,355.845 1190.64,355.845C1186.84,355.845 1184.02,356.512 1182.21,357.847C1180.39,359.181 1179.05,361.543 1178.18,364.933L1170.26,363.853C1170.98,360.464 1172.17,357.727 1173.82,355.642C1175.47,353.558 1177.85,351.953 1180.97,350.828C1184.09,349.703 1187.7,349.141 1191.81,349.141C1195.89,349.141 1199.21,349.621 1201.76,350.581C1204.31,351.541 1206.18,352.748 1207.38,354.202C1208.58,355.657 1209.42,357.494 1209.9,359.714C1210.17,361.093 1210.31,363.583 1210.31,367.182L1210.31,377.98C1210.31,385.508 1210.48,390.269 1210.82,392.264C1211.17,394.258 1211.85,396.17 1212.87,398L1204.41,398C1203.57,396.32 1203.03,394.356 1202.79,392.106ZM1202.12,374.02C1199.18,375.22 1194.77,376.24 1188.89,377.08C1185.56,377.56 1183.21,378.1 1181.83,378.699C1180.45,379.299 1179.38,380.177 1178.63,381.331C1177.88,382.486 1177.51,383.768 1177.51,385.178C1177.51,387.337 1178.32,389.137 1179.96,390.577C1181.59,392.016 1183.99,392.736 1187.13,392.736C1190.25,392.736 1193.03,392.054 1195.46,390.689C1197.89,389.324 1199.67,387.457 1200.81,385.088C1201.68,383.258 1202.12,380.559 1202.12,376.99L1202.12,374.02Z" style="fill:rgb(77,77,77);fill-rule:nonzero;"/>
                <path d="M1240.54,390.757L1241.71,397.91C1239.43,398.39 1237.39,398.63 1235.59,398.63C1232.65,398.63 1230.37,398.165 1228.75,397.235C1227.13,396.305 1225.99,395.083 1225.33,393.569C1224.67,392.054 1224.34,388.867 1224.34,384.008L1224.34,356.519L1218.4,356.519L1218.4,350.221L1224.34,350.221L1224.34,338.389L1232.39,333.53L1232.39,350.221L1240.54,350.221L1240.54,356.519L1232.39,356.519L1232.39,384.458C1232.39,386.768 1232.54,388.252 1232.82,388.912C1233.11,389.572 1233.57,390.097 1234.22,390.487C1234.86,390.877 1235.78,391.072 1236.98,391.072C1237.88,391.072 1239.07,390.967 1240.54,390.757Z" style="fill:rgb(77,77,77);fill-rule:nonzero;"/>
                <path d="M1279.77,398L1279.77,390.982C1276.05,396.38 1271,399.08 1264.61,399.08C1261.79,399.08 1259.16,398.54 1256.71,397.46C1254.27,396.38 1252.45,395.023 1251.27,393.389C1250.08,391.754 1249.25,389.752 1248.77,387.382C1248.44,385.793 1248.28,383.273 1248.28,379.824L1248.28,350.221L1256.37,350.221L1256.37,376.72C1256.37,380.949 1256.54,383.798 1256.87,385.268C1257.38,387.397 1258.46,389.07 1260.11,390.284C1261.76,391.499 1263.8,392.106 1266.23,392.106C1268.66,392.106 1270.94,391.484 1273.07,390.239C1275.19,388.995 1276.7,387.3 1277.59,385.155C1278.47,383.011 1278.91,379.899 1278.91,375.82L1278.91,350.221L1287.01,350.221L1287.01,398L1279.77,398Z" style="fill:rgb(77,77,77);fill-rule:nonzero;"/>
                <path d="M1299.61,398L1299.61,350.221L1306.9,350.221L1306.9,357.464C1308.76,354.075 1310.47,351.84 1312.05,350.761C1313.62,349.681 1315.36,349.141 1317.25,349.141C1319.98,349.141 1322.75,350.011 1325.57,351.751L1322.78,359.264C1320.8,358.094 1318.82,357.509 1316.84,357.509C1315.07,357.509 1313.48,358.042 1312.07,359.106C1310.66,360.171 1309.66,361.648 1309.06,363.538C1308.16,366.417 1307.71,369.566 1307.71,372.986L1307.71,398L1299.61,398Z" style="fill:rgb(77,77,77);fill-rule:nonzero;"/>
                <path d="M1361.56,392.106C1358.56,394.656 1355.67,396.455 1352.9,397.505C1350.12,398.555 1347.15,399.08 1343.97,399.08C1338.72,399.08 1334.69,397.798 1331.87,395.233C1329.05,392.669 1327.64,389.392 1327.64,385.403C1327.64,383.063 1328.17,380.926 1329.24,378.992C1330.3,377.057 1331.69,375.505 1333.42,374.335C1335.14,373.166 1337.09,372.281 1339.25,371.681C1340.84,371.261 1343.23,370.856 1346.44,370.466C1352.98,369.686 1357.8,368.757 1360.88,367.677C1360.91,366.567 1360.93,365.862 1360.93,365.562C1360.93,362.263 1360.17,359.939 1358.64,358.589C1356.57,356.759 1353.49,355.845 1349.41,355.845C1345.6,355.845 1342.79,356.512 1340.98,357.847C1339.16,359.181 1337.82,361.543 1336.95,364.933L1329.03,363.853C1329.75,360.464 1330.94,357.727 1332.59,355.642C1334.24,353.558 1336.62,351.953 1339.74,350.828C1342.86,349.703 1346.47,349.141 1350.58,349.141C1354.66,349.141 1357.98,349.621 1360.53,350.581C1363.08,351.541 1364.95,352.748 1366.15,354.202C1367.35,355.657 1368.19,357.494 1368.67,359.714C1368.94,361.093 1369.07,363.583 1369.07,367.182L1369.07,377.98C1369.07,385.508 1369.25,390.269 1369.59,392.264C1369.94,394.258 1370.62,396.17 1371.64,398L1363.18,398C1362.34,396.32 1361.8,394.356 1361.56,392.106ZM1360.88,374.02C1357.95,375.22 1353.54,376.24 1347.66,377.08C1344.33,377.56 1341.98,378.1 1340.6,378.699C1339.21,379.299 1338.15,380.177 1337.4,381.331C1336.65,382.486 1336.28,383.768 1336.28,385.178C1336.28,387.337 1337.09,389.137 1338.73,390.577C1340.36,392.016 1342.76,392.736 1345.9,392.736C1349.02,392.736 1351.8,392.054 1354.23,390.689C1356.66,389.324 1358.44,387.457 1359.58,385.088C1360.45,383.258 1360.88,380.559 1360.88,376.99L1360.88,374.02Z" style="fill:rgb(77,77,77);fill-rule:nonzero;"/>
                <rect x="1381.45" y="332.045" width="8.098" height="65.955" style="fill:rgb(77,77,77);fill-rule:nonzero;"/>
                <path d="M1424.46,383.738L1432.46,382.479C1432.91,385.688 1434.17,388.147 1436.22,389.857C1438.28,391.566 1441.15,392.421 1444.84,392.421C1448.56,392.421 1451.32,391.664 1453.12,390.149C1454.91,388.635 1455.81,386.858 1455.81,384.818C1455.81,382.988 1455.02,381.549 1453.43,380.499C1452.32,379.779 1449.56,378.864 1445.15,377.755C1439.21,376.255 1435.1,374.958 1432.8,373.863C1430.51,372.768 1428.77,371.254 1427.58,369.319C1426.4,367.384 1425.81,365.247 1425.81,362.908C1425.81,360.778 1426.29,358.806 1427.27,356.992C1428.24,355.177 1429.57,353.67 1431.25,352.47C1432.51,351.541 1434.23,350.753 1436.4,350.108C1438.58,349.464 1440.91,349.141 1443.4,349.141C1447.15,349.141 1450.44,349.681 1453.27,350.761C1456.11,351.84 1458.2,353.303 1459.55,355.147C1460.9,356.992 1461.83,359.459 1462.34,362.548L1454.42,363.628C1454.06,361.168 1453.02,359.249 1451.29,357.869C1449.57,356.489 1447.13,355.8 1443.98,355.8C1440.26,355.8 1437.61,356.414 1436.02,357.644C1434.43,358.874 1433.63,360.314 1433.63,361.963C1433.63,363.013 1433.96,363.958 1434.62,364.798C1435.28,365.667 1436.32,366.387 1437.73,366.957C1438.54,367.257 1440.92,367.947 1444.88,369.027C1450.61,370.556 1454.61,371.808 1456.87,372.783C1459.14,373.758 1460.91,375.175 1462.2,377.035C1463.49,378.894 1464.14,381.204 1464.14,383.963C1464.14,386.663 1463.35,389.204 1461.78,391.589C1460.2,393.973 1457.93,395.818 1454.96,397.123C1451.99,398.427 1448.63,399.08 1444.88,399.08C1438.67,399.08 1433.94,397.79 1430.69,395.211C1427.43,392.631 1425.36,388.807 1424.46,383.738Z" style="fill:rgb(77,77,77);fill-rule:nonzero;"/>
                <path d="M1482.58,398L1467.96,350.221L1476.33,350.221L1483.93,377.8L1486.77,388.057C1486.89,387.547 1487.71,384.263 1489.24,378.204L1496.85,350.221L1505.17,350.221L1512.32,377.935L1514.71,387.067L1517.45,377.845L1525.64,350.221L1533.51,350.221L1518.58,398L1510.16,398L1502.56,369.387L1500.71,361.243L1491.04,398L1482.58,398Z" style="fill:rgb(77,77,77);fill-rule:nonzero;"/>
                <path d="M1540.35,341.358L1540.35,332.045L1548.45,332.045L1548.45,341.358L1540.35,341.358ZM1540.35,398L1540.35,350.221L1548.45,350.221L1548.45,398L1540.35,398Z" style="fill:rgb(77,77,77);fill-rule:nonzero;"/>
                <path d="M1560.78,416.311L1560.78,350.221L1568.15,350.221L1568.15,356.429C1569.89,354 1571.86,352.178 1574.05,350.963C1576.24,349.748 1578.89,349.141 1582.01,349.141C1586.09,349.141 1589.69,350.191 1592.81,352.29C1595.93,354.39 1598.28,357.352 1599.87,361.176C1601.46,365 1602.26,369.192 1602.26,373.751C1602.26,378.639 1601.38,383.041 1599.62,386.955C1597.87,390.869 1595.32,393.868 1591.98,395.953C1588.63,398.037 1585.12,399.08 1581.42,399.08C1578.73,399.08 1576.3,398.51 1574.16,397.37C1572.02,396.23 1570.25,394.791 1568.87,393.051L1568.87,416.311L1560.78,416.311ZM1568.11,374.38C1568.11,380.529 1569.35,385.073 1571.84,388.012C1574.33,390.952 1577.35,392.421 1580.88,392.421C1584.49,392.421 1587.57,390.899 1590.13,387.855C1592.69,384.81 1593.98,380.094 1593.98,373.706C1593.98,367.617 1592.73,363.058 1590.22,360.029C1587.72,356.999 1584.73,355.485 1581.25,355.485C1577.8,355.485 1574.74,357.097 1572.09,360.321C1569.44,363.545 1568.11,368.232 1568.11,374.38Z" style="fill:rgb(77,77,77);fill-rule:nonzero;"/>
                <path d="M1644.73,382.613L1653.09,383.648C1651.77,388.537 1649.33,392.331 1645.76,395.031C1642.19,397.73 1637.63,399.08 1632.08,399.08C1625.1,399.08 1619.55,396.928 1615.46,392.624C1611.37,388.32 1609.32,382.284 1609.32,374.515C1609.32,366.477 1611.39,360.239 1615.53,355.8C1619.67,351.361 1625.04,349.141 1631.63,349.141C1638.02,349.141 1643.24,351.316 1647.29,355.665C1651.34,360.014 1653.36,366.132 1653.36,374.02C1653.36,374.5 1653.35,375.22 1653.32,376.18L1617.69,376.18C1617.99,381.429 1619.47,385.448 1622.14,388.237C1624.81,391.027 1628.14,392.421 1632.13,392.421C1635.1,392.421 1637.63,391.641 1639.73,390.082C1641.83,388.522 1643.5,386.033 1644.73,382.613ZM1618.14,369.521L1644.82,369.521C1644.46,365.502 1643.44,362.488 1641.76,360.479C1639.18,357.359 1635.83,355.8 1631.72,355.8C1628.01,355.8 1624.88,357.044 1622.34,359.534C1619.81,362.023 1618.41,365.352 1618.14,369.521Z" style="fill:rgb(77,77,77);fill-rule:nonzero;"/>
            </g>
        </g>
        <g transform="matrix(1,0,0,1,1065.23,-2)">
            <g transform="matrix(1,0,0,1,20.5,298)">
                <clipPath id="_clip8">
                    <path d="M-20.5,-20.5L854.5,-20.5L854.5,1778.5L-20.5,1778.5L-20.5,-20.5ZM0,0.5L834,0.5L833.5,0L833.5,1758L834,1757.5L0,1757.5L0.5,1758L0.5,0L0,0.5ZM0,-0.5L-0.5,-0.5L-0.5,1758.5L834.5,1758.5L834.5,1758L834.5,0L834.5,-0.5L834,-0.5L0,-0.5ZM60,133.5C43.155,133.5 29.5,147.155 29.5,164L29.5,1621C29.5,1637.85 43.155,1651.5 60,1651.5L773,1651.5C789.845,1651.5 803.5,1637.85 803.5,1621L803.5,164C803.5,147.155 789.845,133.5 773,133.5L60,133.5ZM60,134.5L773,134.5C789.292,134.5 802.5,147.708 802.5,164L802.5,1621C802.5,1637.29 789.292,1650.5 773,1650.5L60,1650.5C43.708,1650.5 30.5,1637.29 30.5,1621L30.5,164C30.5,147.708 43.708,134.5 60,134.5Z"/>
                </clipPath>
                <g clip-path="url(#_clip8)">
                    <clipPath id="_clip9">
                        <path d="M0,0L834,0L834,1758L0,1758L0,0ZM60,134C43.431,134 30,147.431 30,164L30,1621C30,1637.57 43.431,1651 60,1651L773,1651C789.569,1651 803,1637.57 803,1621L803,164C803,147.431 789.569,134 773,134L60,134Z"/>
                    </clipPath>
                    <g clip-path="url(#_clip9)">
                        <path d="M0,0L834,0L834,1758L0,1758L0,0ZM60,134C43.431,134 30,147.431 30,164L30,1621C30,1637.57 43.431,1651 60,1651L773,1651C789.569,1651 803,1637.57 803,1621L803,164C803,147.431 789.569,134 773,134L60,134Z" style="fill:rgb(216,216,216);fill-rule:nonzero;"/>
                    </g>
                </g>
            </g>
            <g transform="matrix(1,0,0,-1,20.5,2056)">
                <clipPath id="_clip10">
                    <path d="M0,1758L834,1758L834,0L0,0L0,1758ZM60,1624C43.431,1624 30,1610.57 30,1594L30,137C30,120.431 43.431,107 60,107L773,107C789.569,107 803,120.431 803,137L803,1594C803,1610.57 789.569,1624 773,1624L60,1624Z"/>
                </clipPath>
                <g clip-path="url(#_clip10)">
                    <path d="M0,1758L834,1758L834,0L0,0L0,1758ZM60,1624C43.431,1624 30,1610.57 30,1594L30,137C30,120.431 43.431,107 60,107L773,107C789.569,107 803,120.431 803,137L803,1594C803,1610.57 789.569,1624 773,1624L60,1624Z" style="fill:none;stroke:rgb(151,151,151);stroke-width:2px;"/>
                </g>
            </g>
            <g transform="matrix(1,0,0,1,20.5,325)">
                <path d="M60,107L773,107C789.569,107 803,120.431 803,137L803,1594C803,1610.57 789.569,1624 773,1624L60,1624C43.431,1624 30,1610.57 30,1594L30,137C30,120.431 43.431,107 60,107Z" style="fill:rgb(17,56,63);"/>
            </g>
            <g transform="matrix(1,0,0,1,20.5,298)">
                <g opacity="0.6005">
                    <g>
                        <clipPath id="_clip11">
                            <rect x="61" y="483" width="774" height="1255" clip-rule="nonzero"/>
                        </clipPath>
                        <g clip-path="url(#_clip11)">
                            <g transform="matrix(1,0,0,1,0,462.742)">
                                <clipPath id="_clip12">
                                    <path d="M833.743,1141.09C827.358,1153.69 804.289,1175.36 764.537,1206.1C704.909,1252.22 554.991,1290.44 361.759,1266.8C168.527,1243.15 133.664,1114.27 99.953,1058.51C66.243,1002.75 34.227,535.546 99.953,417.906C106.999,405.296 128.624,385.09 164.83,357.289C181.181,344.734 193.251,327.432 199.39,307.753C214.5,259.313 227.661,225.005 238.874,204.829C319.098,60.476 517.473,1.254 834,27.163L834,897.011C833.917,897.471 833.831,897.932 833.743,898.393L833.743,1141.09Z"/>
                                </clipPath>
                                <g clip-path="url(#_clip12)">
                                    <rect x="61" y="20.258" width="774" height="1255" style="fill:rgb(255,132,0);"/>
                                </g>
                            </g>
                            <g transform="matrix(1,0,0,-1,61.7431,1733.19)">
                                <path d="M772,129.356C765.615,116.761 742.546,95.091 702.794,64.344C643.166,18.223 493.248,-19.995 300.016,3.649C106.784,27.294 71.921,156.181 38.21,211.938C4.499,267.694 -27.516,734.9 38.21,852.54C45.256,865.151 66.881,885.356 103.087,913.158C119.438,925.713 131.508,943.015 137.647,962.694C152.757,1011.13 165.918,1045.44 177.131,1065.62C257.355,1209.97 455.73,1269.19 772.257,1243.28L772.257,373.436C772.174,372.976 772.088,372.515 772,372.054L772,129.356Z" style="fill:none;stroke:rgb(151,151,151);stroke-width:1px;"/>
                            </g>
                        </g>
                    </g>
                </g>
            </g>
            <g transform="matrix(1,0,0,1,20.5,298)">
                <g opacity="0.8992">
                    <g>
                        <clipPath id="_clip13">
                            <rect x="159" y="703" width="676" height="965" clip-rule="nonzero"/>
                        </clipPath>
                        <g clip-path="url(#_clip13)">
                            <g transform="matrix(1,0,0,1,0,613.485)">
                                <clipPath id="_clip14">
                                    <path d="M833.146,492.144L833.146,813.606C778.61,899.456 718.888,960.421 653.978,996.501C556.614,1050.62 307.904,1086.48 228.735,1008.51C149.567,930.539 136.537,761.709 202.539,504.716C225.689,414.576 294.845,334.661 410.007,264.971C510.038,164.821 651.369,106.802 834,90.915L834,489.914C833.715,490.658 833.43,491.401 833.146,492.144Z"/>
                                </clipPath>
                                <g clip-path="url(#_clip14)">
                                    <rect x="159" y="89.515" width="676" height="965" style="fill:rgb(115,219,95);"/>
                                </g>
                            </g>
                            <g transform="matrix(1,0,0,-1,160.208,1699.96)">
                                <path d="M672.937,594.336L672.937,272.873C618.402,187.023 558.679,126.058 493.77,89.978C396.406,35.858 147.695,0 68.527,77.97C-10.641,155.941 -23.672,324.77 42.33,581.763C65.48,671.903 134.636,751.819 249.798,821.509C349.83,921.658 491.161,979.676 673.792,995.563L673.792,596.565C673.507,595.821 673.222,595.078 672.937,594.336Z" style="fill:none;stroke:rgb(151,151,151);stroke-width:1px;"/>
                            </g>
                        </g>
                    </g>
                </g>
            </g>
            <g id="Swipe1" serif:id="Swipe" transform="matrix(5.55112e-17,-1,1,5.55112e-17,-912.549,1821.98)">
                <g transform="matrix(0.838843,0,0,0.838843,98.8265,234.219)">
                    <path d="M658.02,1320.01C347.456,1317.39 336.35,1323.64 337.292,1705.49" style="fill:none;stroke:rgb(217,217,217);stroke-width:17.88px;stroke-linecap:round;stroke-linejoin:round;stroke-miterlimit:1.5;"/>
                </g>
                <g id="Location--filled-2" serif:id="Location (filled)" transform="matrix(1.80795,1.67092,-1.67092,1.80795,1088.67,102.778)">
                    <path d="M230.3,470.5L184.3,490.5L210.3,490.5L210.3,514.5L230.3,470.5Z" style="fill:rgb(255,90,90);fill-rule:nonzero;"/>
                </g>
                <g id="Location--filled-3" serif:id="Location (filled)" transform="matrix(-1.74078,1.74078,-1.74078,-1.74078,1599.96,2152.62)">
                    <path d="M230.3,470.5L184.3,490.5L210.3,490.5L210.3,514.5L230.3,470.5Z" style="fill:rgb(255,90,90);fill-rule:nonzero;"/>
                </g>
            </g>
            <g transform="matrix(1,0,0,1,-1007.88,-7.92025)">
                <path d="M1098.87,398L1124.19,332.045L1133.6,332.045L1160.59,398L1150.65,398L1142.95,378.025L1115.38,378.025L1108.13,398L1098.87,398ZM1117.9,370.916L1140.26,370.916L1133.37,352.65C1131.27,347.102 1129.71,342.543 1128.69,338.973C1127.85,343.202 1126.67,347.401 1125.14,351.571L1117.9,370.916Z" style="fill:rgb(77,77,77);fill-rule:nonzero;"/>
                <path d="M1165.05,401.959L1172.92,403.129C1173.25,405.558 1174.16,407.328 1175.66,408.438C1177.67,409.937 1180.42,410.687 1183.9,410.687C1187.64,410.687 1190.54,409.937 1192.58,408.438C1194.62,406.938 1196,404.838 1196.72,402.139C1197.14,400.489 1197.33,397.025 1197.3,391.746C1193.76,395.915 1189.35,398 1184.08,398C1177.51,398 1172.42,395.631 1168.82,390.892C1165.23,386.153 1163.42,380.469 1163.42,373.84C1163.42,369.282 1164.25,365.075 1165.9,361.221C1167.55,357.367 1169.94,354.39 1173.08,352.29C1176.21,350.191 1179.89,349.141 1184.12,349.141C1189.76,349.141 1194.41,351.421 1198.07,355.98L1198.07,350.221L1205.54,350.221L1205.54,391.521C1205.54,398.96 1204.78,404.231 1203.26,407.335C1201.75,410.44 1199.35,412.892 1196.07,414.691C1192.78,416.491 1188.74,417.391 1183.94,417.391C1178.24,417.391 1173.64,416.108 1170.13,413.544C1166.62,410.98 1164.92,407.118 1165.05,401.959ZM1171.75,373.256C1171.75,379.524 1172.99,384.098 1175.48,386.978C1177.97,389.857 1181.09,391.297 1184.84,391.297C1188.56,391.297 1191.68,389.864 1194.2,387C1196.72,384.136 1197.98,379.644 1197.98,373.526C1197.98,367.677 1196.68,363.268 1194.09,360.299C1191.49,357.329 1188.37,355.845 1184.71,355.845C1181.11,355.845 1178.05,357.307 1175.53,360.231C1173.01,363.155 1171.75,367.497 1171.75,373.256Z" style="fill:rgb(77,77,77);fill-rule:nonzero;"/>
                <path d="M1248.95,392.106C1245.95,394.656 1243.07,396.455 1240.29,397.505C1237.52,398.555 1234.54,399.08 1231.36,399.08C1226.11,399.08 1222.08,397.798 1219.26,395.233C1216.44,392.669 1215.03,389.392 1215.03,385.403C1215.03,383.063 1215.56,380.926 1216.63,378.992C1217.69,377.057 1219.09,375.505 1220.81,374.335C1222.53,373.166 1224.48,372.281 1226.64,371.681C1228.23,371.261 1230.62,370.856 1233.83,370.466C1240.37,369.686 1245.19,368.757 1248.28,367.677C1248.31,366.567 1248.32,365.862 1248.32,365.562C1248.32,362.263 1247.56,359.939 1246.03,358.589C1243.96,356.759 1240.88,355.845 1236.8,355.845C1233,355.845 1230.18,356.512 1228.37,357.847C1226.55,359.181 1225.21,361.543 1224.34,364.933L1216.42,363.853C1217.14,360.464 1218.33,357.727 1219.98,355.642C1221.63,353.558 1224.01,351.953 1227.13,350.828C1230.25,349.703 1233.86,349.141 1237.97,349.141C1242.05,349.141 1245.37,349.621 1247.92,350.581C1250.47,351.541 1252.34,352.748 1253.54,354.202C1254.74,355.657 1255.58,357.494 1256.06,359.714C1256.33,361.093 1256.46,363.583 1256.46,367.182L1256.46,377.98C1256.46,385.508 1256.64,390.269 1256.98,392.264C1257.33,394.258 1258.01,396.17 1259.03,398L1250.57,398C1249.73,396.32 1249.19,394.356 1248.95,392.106ZM1248.28,374.02C1245.34,375.22 1240.93,376.24 1235.05,377.08C1231.72,377.56 1229.37,378.1 1227.99,378.699C1226.61,379.299 1225.54,380.177 1224.79,381.331C1224.04,382.486 1223.67,383.768 1223.67,385.178C1223.67,387.337 1224.48,389.137 1226.12,390.577C1227.75,392.016 1230.14,392.736 1233.29,392.736C1236.41,392.736 1239.19,392.054 1241.62,390.689C1244.05,389.324 1245.83,387.457 1246.97,385.088C1247.84,383.258 1248.28,380.559 1248.28,376.99L1248.28,374.02Z" style="fill:rgb(77,77,77);fill-rule:nonzero;"/>
                <path d="M1269.06,341.358L1269.06,332.045L1277.16,332.045L1277.16,341.358L1269.06,341.358ZM1269.06,398L1269.06,350.221L1277.16,350.221L1277.16,398L1269.06,398Z" style="fill:rgb(77,77,77);fill-rule:nonzero;"/>
                <path d="M1289.49,398L1289.49,350.221L1296.78,350.221L1296.78,357.014C1300.28,351.766 1305.35,349.141 1311.98,349.141C1314.86,349.141 1317.51,349.658 1319.92,350.693C1322.34,351.728 1324.14,353.085 1325.34,354.765C1326.54,356.444 1327.38,358.439 1327.86,360.748C1328.16,362.248 1328.31,364.873 1328.31,368.622L1328.31,398L1320.21,398L1320.21,368.937C1320.21,365.637 1319.9,363.17 1319.27,361.536C1318.64,359.901 1317.52,358.596 1315.92,357.622C1314.31,356.647 1312.43,356.16 1310.27,356.16C1306.82,356.16 1303.85,357.254 1301.34,359.444C1298.84,361.633 1297.59,365.787 1297.59,371.906L1297.59,398L1289.49,398Z" style="fill:rgb(77,77,77);fill-rule:nonzero;"/>
                <path d="M1337.49,383.738L1345.5,382.479C1345.95,385.688 1347.2,388.147 1349.26,389.857C1351.31,391.566 1354.18,392.421 1357.87,392.421C1361.59,392.421 1364.35,391.664 1366.15,390.149C1367.95,388.635 1368.85,386.858 1368.85,384.818C1368.85,382.988 1368.05,381.549 1366.46,380.499C1365.35,379.779 1362.6,378.864 1358.19,377.755C1352.25,376.255 1348.13,374.958 1345.84,373.863C1343.54,372.768 1341.8,371.254 1340.62,369.319C1339.43,367.384 1338.84,365.247 1338.84,362.908C1338.84,360.778 1339.33,358.806 1340.3,356.992C1341.28,355.177 1342.61,353.67 1344.28,352.47C1345.54,351.541 1347.26,350.753 1349.44,350.108C1351.61,349.464 1353.94,349.141 1356.43,349.141C1360.18,349.141 1363.47,349.681 1366.31,350.761C1369.14,351.84 1371.23,353.303 1372.58,355.147C1373.93,356.992 1374.86,359.459 1375.37,362.548L1367.45,363.628C1367.09,361.168 1366.05,359.249 1364.33,357.869C1362.6,356.489 1360.17,355.8 1357.02,355.8C1353.3,355.8 1350.64,356.414 1349.05,357.644C1347.46,358.874 1346.67,360.314 1346.67,361.963C1346.67,363.013 1347,363.958 1347.66,364.798C1348.32,365.667 1349.35,366.387 1350.76,366.957C1351.57,367.257 1353.96,367.947 1357.92,369.027C1363.64,370.556 1367.64,371.808 1369.91,372.783C1372.17,373.758 1373.95,375.175 1375.24,377.035C1376.53,378.894 1377.17,381.204 1377.17,383.963C1377.17,386.663 1376.38,389.204 1374.81,391.589C1373.24,393.973 1370.96,395.818 1367.99,397.123C1365.03,398.427 1361.66,399.08 1357.92,399.08C1351.71,399.08 1346.98,397.79 1343.72,395.211C1340.47,392.631 1338.39,388.807 1337.49,383.738Z" style="fill:rgb(77,77,77);fill-rule:nonzero;"/>
                <path d="M1404.48,390.757L1405.65,397.91C1403.37,398.39 1401.33,398.63 1399.53,398.63C1396.59,398.63 1394.31,398.165 1392.69,397.235C1391.07,396.305 1389.93,395.083 1389.27,393.569C1388.61,392.054 1388.28,388.867 1388.28,384.008L1388.28,356.519L1382.35,356.519L1382.35,350.221L1388.28,350.221L1388.28,338.389L1396.34,333.53L1396.34,350.221L1404.48,350.221L1404.48,356.519L1396.34,356.519L1396.34,384.458C1396.34,386.768 1396.48,388.252 1396.77,388.912C1397.05,389.572 1397.52,390.097 1398.16,390.487C1398.8,390.877 1399.73,391.072 1400.93,391.072C1401.83,391.072 1403.01,390.967 1404.48,390.757Z" style="fill:rgb(77,77,77);fill-rule:nonzero;"/>
                <path d="M1438.76,398L1438.76,332.045L1451.9,332.045L1467.51,378.744C1468.95,383.093 1470,386.348 1470.66,388.507C1471.41,386.108 1472.58,382.584 1474.17,377.935L1489.96,332.045L1501.7,332.045L1501.7,398L1493.29,398L1493.29,342.798L1474.12,398L1466.25,398L1447.18,341.853L1447.18,398L1438.76,398Z" style="fill:rgb(77,77,77);fill-rule:nonzero;"/>
                <path d="M1514.8,341.358L1514.8,332.045L1522.89,332.045L1522.89,341.358L1514.8,341.358ZM1514.8,398L1514.8,350.221L1522.89,350.221L1522.89,398L1514.8,398Z" style="fill:rgb(77,77,77);fill-rule:nonzero;"/>
                <path d="M1531.98,383.738L1539.99,382.479C1540.44,385.688 1541.69,388.147 1543.75,389.857C1545.8,391.566 1548.67,392.421 1552.36,392.421C1556.08,392.421 1558.84,391.664 1560.64,390.149C1562.44,388.635 1563.34,386.858 1563.34,384.818C1563.34,382.988 1562.55,381.549 1560.95,380.499C1559.85,379.779 1557.09,378.864 1552.68,377.755C1546.74,376.255 1542.62,374.958 1540.33,373.863C1538.03,372.768 1536.29,371.254 1535.11,369.319C1533.92,367.384 1533.33,365.247 1533.33,362.908C1533.33,360.778 1533.82,358.806 1534.79,356.992C1535.77,355.177 1537.1,353.67 1538.78,352.47C1540.04,351.541 1541.75,350.753 1543.93,350.108C1546.1,349.464 1548.43,349.141 1550.92,349.141C1554.67,349.141 1557.96,349.681 1560.8,350.761C1563.63,351.84 1565.72,353.303 1567.07,355.147C1568.42,356.992 1569.35,359.459 1569.86,362.548L1561.94,363.628C1561.59,361.168 1560.54,359.249 1558.82,357.869C1557.09,356.489 1554.66,355.8 1551.51,355.8C1547.79,355.8 1545.13,356.414 1543.54,357.644C1541.95,358.874 1541.16,360.314 1541.16,361.963C1541.16,363.013 1541.49,363.958 1542.15,364.798C1542.81,365.667 1543.84,366.387 1545.25,366.957C1546.06,367.257 1548.45,367.947 1552.41,369.027C1558.14,370.556 1562.13,371.808 1564.4,372.783C1566.66,373.758 1568.44,375.175 1569.73,377.035C1571.02,378.894 1571.66,381.204 1571.66,383.963C1571.66,386.663 1570.88,389.204 1569.3,391.589C1567.73,393.973 1565.45,395.818 1562.49,397.123C1559.52,398.427 1556.16,399.08 1552.41,399.08C1546.2,399.08 1541.47,397.79 1538.21,395.211C1534.96,392.631 1532.88,388.807 1531.98,383.738Z" style="fill:rgb(77,77,77);fill-rule:nonzero;"/>
                <path d="M1598.97,390.757L1600.14,397.91C1597.86,398.39 1595.82,398.63 1594.02,398.63C1591.08,398.63 1588.8,398.165 1587.18,397.235C1585.56,396.305 1584.42,395.083 1583.77,393.569C1583.11,392.054 1582.78,388.867 1582.78,384.008L1582.78,356.519L1576.84,356.519L1576.84,350.221L1582.78,350.221L1582.78,338.389L1590.83,333.53L1590.83,350.221L1598.97,350.221L1598.97,356.519L1590.83,356.519L1590.83,384.458C1590.83,386.768 1590.97,388.252 1591.26,388.912C1591.54,389.572 1592.01,390.097 1592.65,390.487C1593.3,390.877 1594.22,391.072 1595.42,391.072C1596.32,391.072 1597.5,390.967 1598.97,390.757Z" style="fill:rgb(77,77,77);fill-rule:nonzero;"/>
                <path d="M1638.07,392.106C1635.07,394.656 1632.18,396.455 1629.41,397.505C1626.63,398.555 1623.66,399.08 1620.48,399.08C1615.23,399.08 1611.19,397.798 1608.37,395.233C1605.56,392.669 1604.14,389.392 1604.14,385.403C1604.14,383.063 1604.68,380.926 1605.74,378.992C1606.81,377.057 1608.2,375.505 1609.93,374.335C1611.65,373.166 1613.59,372.281 1615.75,371.681C1617.34,371.261 1619.74,370.856 1622.95,370.466C1629.49,369.686 1634.3,368.757 1637.39,367.677C1637.42,366.567 1637.44,365.862 1637.44,365.562C1637.44,362.263 1636.67,359.939 1635.14,358.589C1633.07,356.759 1630,355.845 1625.92,355.845C1622.11,355.845 1619.3,356.512 1617.49,357.847C1615.67,359.181 1614.33,361.543 1613.46,364.933L1605.54,363.853C1606.26,360.464 1607.44,357.727 1609.09,355.642C1610.74,353.558 1613.13,351.953 1616.25,350.828C1619.37,349.703 1622.98,349.141 1627.09,349.141C1631.17,349.141 1634.48,349.621 1637.03,350.581C1639.58,351.541 1641.46,352.748 1642.66,354.202C1643.86,355.657 1644.7,357.494 1645.18,359.714C1645.45,361.093 1645.58,363.583 1645.58,367.182L1645.58,377.98C1645.58,385.508 1645.75,390.269 1646.1,392.264C1646.44,394.258 1647.12,396.17 1648.14,398L1639.69,398C1638.85,396.32 1638.31,394.356 1638.07,392.106ZM1637.39,374.02C1634.45,375.22 1630.04,376.24 1624.17,377.08C1620.84,377.56 1618.48,378.1 1617.1,378.699C1615.72,379.299 1614.66,380.177 1613.91,381.331C1613.16,382.486 1612.78,383.768 1612.78,385.178C1612.78,387.337 1613.6,389.137 1615.24,390.577C1616.87,392.016 1619.26,392.736 1622.41,392.736C1625.53,392.736 1628.31,392.054 1630.73,390.689C1633.16,389.324 1634.95,387.457 1636.09,385.088C1636.96,383.258 1637.39,380.559 1637.39,376.99L1637.39,374.02Z" style="fill:rgb(77,77,77);fill-rule:nonzero;"/>
                <path d="M1658.18,398L1658.18,332.045L1666.28,332.045L1666.28,369.656L1685.44,350.221L1695.92,350.221L1677.66,367.947L1697.77,398L1687.78,398L1671.99,373.571L1666.28,379.059L1666.28,398L1658.18,398Z" style="fill:rgb(77,77,77);fill-rule:nonzero;"/>
                <path d="M1736.91,382.613L1745.28,383.648C1743.96,388.537 1741.51,392.331 1737.94,395.031C1734.38,397.73 1729.82,399.08 1724.27,399.08C1717.28,399.08 1711.74,396.928 1707.64,392.624C1703.55,388.32 1701.5,382.284 1701.5,374.515C1701.5,366.477 1703.57,360.239 1707.71,355.8C1711.85,351.361 1717.22,349.141 1723.82,349.141C1730.21,349.141 1735.42,351.316 1739.47,355.665C1743.52,360.014 1745.55,366.132 1745.55,374.02C1745.55,374.5 1745.53,375.22 1745.5,376.18L1709.87,376.18C1710.17,381.429 1711.66,385.448 1714.33,388.237C1717,391.027 1720.32,392.421 1724.31,392.421C1727.28,392.421 1729.82,391.641 1731.92,390.082C1734.02,388.522 1735.68,386.033 1736.91,382.613ZM1710.32,369.521L1737,369.521C1736.64,365.502 1735.62,362.488 1733.94,360.479C1731.36,357.359 1728.02,355.8 1723.91,355.8C1720.19,355.8 1717.06,357.044 1714.53,359.534C1711.99,362.023 1710.59,365.352 1710.32,369.521Z" style="fill:rgb(77,77,77);fill-rule:nonzero;"/>
                <path d="M1752.21,383.738L1760.22,382.479C1760.66,385.688 1761.92,388.147 1763.97,389.857C1766.03,391.566 1768.9,392.421 1772.59,392.421C1776.31,392.421 1779.07,391.664 1780.87,390.149C1782.66,388.635 1783.56,386.858 1783.56,384.818C1783.56,382.988 1782.77,381.549 1781.18,380.499C1780.07,379.779 1777.31,378.864 1772.9,377.755C1766.96,376.255 1762.85,374.958 1760.55,373.863C1758.26,372.768 1756.52,371.254 1755.33,369.319C1754.15,367.384 1753.56,365.247 1753.56,362.908C1753.56,360.778 1754.04,358.806 1755.02,356.992C1755.99,355.177 1757.32,353.67 1759,352.47C1760.26,351.541 1761.98,350.753 1764.15,350.108C1766.33,349.464 1768.66,349.141 1771.15,349.141C1774.9,349.141 1778.19,349.681 1781.02,350.761C1783.86,351.84 1785.95,353.303 1787.3,355.147C1788.65,356.992 1789.58,359.459 1790.09,362.548L1782.17,363.628C1781.81,361.168 1780.77,359.249 1779.04,357.869C1777.32,356.489 1774.88,355.8 1771.73,355.8C1768.01,355.8 1765.36,356.414 1763.77,357.644C1762.18,358.874 1761.38,360.314 1761.38,361.963C1761.38,363.013 1761.71,363.958 1762.37,364.798C1763.03,365.667 1764.07,366.387 1765.48,366.957C1766.29,367.257 1768.67,367.947 1772.63,369.027C1778.36,370.556 1782.36,371.808 1784.62,372.783C1786.89,373.758 1788.66,375.175 1789.95,377.035C1791.24,378.894 1791.89,381.204 1791.89,383.963C1791.89,386.663 1791.1,389.204 1789.53,391.589C1787.95,393.973 1785.68,395.818 1782.71,397.123C1779.74,398.427 1776.38,399.08 1772.63,399.08C1766.42,399.08 1761.69,397.79 1758.44,395.211C1755.18,392.631 1753.11,388.807 1752.21,383.738Z" style="fill:rgb(77,77,77);fill-rule:nonzero;"/>
            </g>
        </g>
    </g>
</svg>
